<svg width="160" height="68" viewBox="0 0 160 68" fill="none" xmlns="http://www.w3.org/2000/svg">
<g clip-path="url(#clip0_3978_2064)">
<path d="M55.2191 16.8031C56.3541 18.3182 57.1615 19.9773 57.2005 21.7564C57.2547 24.2232 56.1539 26.3749 54.4875 28.2124C52.3004 30.624 49.5674 32.2594 46.5145 33.3145C37.0803 36.5751 27.7919 36.3538 18.7747 31.8604C16.3004 30.6275 14.1756 28.9141 12.7237 26.5253C11.6941 24.8315 10.9675 22.9902 11.3602 20.9973C11.7706 18.9147 12.7791 17.0697 14.3175 15.5412C17.4573 12.4217 21.3568 10.7102 25.6004 9.67507C29.225 8.79093 32.9199 8.26256 36.6449 8.64016C42.4208 9.22568 48.0034 10.5027 52.6646 14.2261C53.588 14.9636 54.3449 15.9041 55.2191 16.8031Z" fill="#F18B38"/>
<path d="M55.2171 16.8031C56.3522 18.3182 57.1595 19.9773 57.1986 21.7564C57.2527 24.2232 56.1519 26.3749 54.4855 28.2124C52.2984 30.624 49.5654 32.2594 46.5125 33.3145C37.0783 36.5751 27.7899 36.3538 18.7727 31.8604C16.2984 30.6275 14.1737 28.9141 12.7217 26.5253C11.6922 24.8315 10.9655 22.9902 11.3582 20.9973C11.7686 18.9147 12.7771 17.0697 14.3156 15.5412C17.4554 12.4217 21.3548 10.7102 25.5984 9.67507C29.2231 8.79093 32.918 8.26256 36.6429 8.64016C42.4189 9.22568 48.0015 10.5027 52.6627 14.2261C53.586 14.9636 54.343 15.9041 55.2171 16.8031Z" fill="#F18B38"/>
<path d="M73.5128 43.9542C73.926 44.6641 74.3097 45.3138 74.7434 46.0481C76.3579 43.2921 77.9546 40.6362 79.4683 37.9351C79.8675 37.2228 80.2982 36.9232 81.1135 37.0096C81.8066 37.0831 82.514 37.0247 83.2606 37.0247C83.2606 42.6783 83.2606 48.2554 83.2606 53.8981C82.2259 53.8981 81.1697 53.8981 80.105 53.8981C80.105 50.2623 80.105 46.6221 80.105 42.8435C78.7338 45.2287 77.4024 47.498 76.1271 49.7976C75.8273 50.338 75.4768 50.502 74.8919 50.4603C74.293 50.4177 73.7512 50.5202 73.3643 49.8095C72.1048 47.4962 70.7544 45.2312 69.3674 42.8233C69.3674 46.5929 69.3674 50.2075 69.3674 53.8928C68.3799 53.8928 67.3236 53.8928 66.2129 53.8928C66.2129 48.3139 66.2129 42.7147 66.2129 37.0249C67.184 37.0249 68.1326 36.9852 69.0734 37.0514C69.3241 37.0691 69.6293 37.3658 69.7772 37.6118C71.03 39.6958 72.2521 41.7976 73.5128 43.9542Z" fill="#FBFBFB"/>
<path d="M73.5148 43.9542C73.928 44.6641 74.3117 45.3138 74.7454 46.0481C76.3598 43.2921 77.9566 40.6362 79.4703 37.9351C79.8694 37.2228 80.3001 36.9232 81.1155 37.0096C81.8086 37.0831 82.516 37.0247 83.2626 37.0247C83.2626 42.6783 83.2626 48.2554 83.2626 53.8981C82.2278 53.8981 81.1717 53.8981 80.1069 53.8981C80.1069 50.2623 80.1069 46.6221 80.1069 42.8435C78.7357 45.2287 77.4044 47.498 76.129 49.7976C75.8293 50.338 75.4788 50.502 74.8938 50.4603C74.295 50.4177 73.7532 50.5202 73.3662 49.8095C72.1068 47.4962 70.7563 45.2312 69.3693 42.8233C69.3693 46.5929 69.3693 50.2075 69.3693 53.8928C68.3818 53.8928 67.3255 53.8928 66.2148 53.8928C66.2148 48.3139 66.2148 42.7147 66.2148 37.0249C67.186 37.0249 68.1345 36.9852 69.0754 37.0514C69.3261 37.0691 69.6313 37.3658 69.7792 37.6118C71.0319 39.6958 72.254 41.7976 73.5148 43.9542Z" fill="#FBFBFB"/>
<path d="M77.2865 21.9021C76.7641 24.2656 74.7578 25.8527 72.1226 26.0493C68.6949 26.3051 66.1105 24.5666 65.0449 21.2158C66.0443 20.8214 67.0511 20.424 68.0224 20.0407C68.4117 20.705 68.6967 21.3505 69.1231 21.8864C70.049 23.0501 71.8573 23.315 73.1302 22.5469C74.1987 21.9021 74.4273 20.5051 73.4763 19.6869C72.8466 19.1451 72.039 18.7829 71.2702 18.4258C70.3842 18.0141 69.4172 17.7658 68.5489 17.3247C66.3597 16.2125 65.4325 14.4698 65.7683 12.2857C66.0559 10.4148 67.6301 8.84711 69.8424 8.48001C72.9833 7.95882 75.6872 8.97374 76.788 11.9978C75.8527 12.3899 74.9118 12.7844 73.9133 13.203C73.2358 11.7283 72.1373 11.1112 70.5537 11.4507C69.7526 11.6225 69.0787 11.9759 68.9283 12.8424C68.7814 13.6882 69.3044 14.2434 69.9995 14.5764C70.8776 14.9971 71.8062 15.3151 72.7122 15.6795C73.2788 15.9074 73.8637 16.1008 74.406 16.3758C76.6911 17.5342 77.5977 19.2622 77.2865 21.9021Z" fill="#FAFAFA"/>
<path d="M77.2885 21.9021C76.7661 24.2656 74.7598 25.8527 72.1245 26.0493C68.6969 26.3051 66.1124 24.5666 65.0469 21.2158C66.0463 20.8214 67.0531 20.424 68.0244 20.0407C68.4137 20.705 68.6986 21.3505 69.125 21.8864C70.051 23.0501 71.8593 23.315 73.1322 22.5469C74.2006 21.9021 74.4293 20.5051 73.4783 19.6869C72.8485 19.1451 72.0409 18.7829 71.2722 18.4258C70.3861 18.0141 69.4191 17.7658 68.5509 17.3247C66.3617 16.2125 65.4345 14.4698 65.7702 12.2857C66.0579 10.4148 67.632 8.84711 69.8443 8.48001C72.9853 7.95882 75.6892 8.97374 76.7899 11.9978C75.8547 12.3899 74.9138 12.7844 73.9152 13.203C73.2377 11.7283 72.1392 11.1112 70.5557 11.4507C69.7545 11.6225 69.0807 11.9759 68.9302 12.8424C68.7834 13.6882 69.3063 14.2434 70.0014 14.5764C70.8796 14.9971 71.8082 15.3151 72.7141 15.6795C73.2807 15.9074 73.8656 16.1008 74.4079 16.3758C76.693 17.5342 77.5996 19.2622 77.2885 21.9021Z" fill="#FAFAFA"/>
<path d="M50.4886 46.1995C52.5275 44.8561 54.5063 43.5452 56.3888 42.298C56.3396 42.4058 56.2177 42.7248 56.0547 43.0217C54.562 45.7402 52.225 47.5751 49.5326 49.0183C46.1066 50.8548 42.4128 51.868 38.5576 52.2736C36.4637 52.4938 34.3234 52.7946 32.2499 52.5951C26.8054 52.0713 21.5047 50.9468 16.8752 47.7854C14.8644 46.4123 13.3097 44.6559 12.0766 42.5978C12.0198 42.5031 12.024 42.3663 12.0234 42.2489C12.0232 42.2087 12.0952 42.1681 12.1317 42.1304C19.2741 48.4896 27.8815 50.1509 37.1254 49.6535C41.7785 49.4032 46.2387 48.2983 50.4886 46.1995Z" fill="#F2F0F0"/>
<path d="M50.4886 46.2C52.5275 44.8565 54.5063 43.5457 56.3888 42.2985C56.3396 42.4063 56.2177 42.7252 56.0547 43.0221C54.562 45.7407 52.225 47.5756 49.5326 49.0187C46.1066 50.8552 42.4128 51.8685 38.5576 52.274C36.4637 52.4943 34.3234 52.7951 32.2499 52.5956C26.8054 52.0717 21.5047 50.9473 16.8752 47.7859C14.8644 46.4128 13.3097 44.6564 12.0766 42.5983C12.0198 42.5036 12.024 42.3668 12.0234 42.2494C12.0232 42.2092 12.0952 42.1686 12.1317 42.1309C19.2741 48.49 27.8815 50.1514 37.1254 49.654C41.7785 49.4037 46.2387 48.2988 50.4886 46.2Z" fill="#F2F0F0"/>
<path d="M46.8274 42.048C50.4415 40.7748 53.6667 39.0045 56.3218 36.3055C56.3875 36.3543 56.4531 36.403 56.5188 36.4517C56.1036 37.1614 55.7434 37.9099 55.2634 38.574C53.498 41.0164 51.1067 42.7399 48.3551 43.8946C38.4264 48.0614 28.5419 47.9901 18.8186 43.2428C16.0142 41.8736 13.6965 39.8816 12.26 37.0439C12.1782 36.8822 12.108 36.7138 12.0472 36.5435C12.0304 36.4964 12.0673 36.4308 12.0951 36.3013C12.6147 36.7711 13.0884 37.2345 13.5985 37.655C17.0571 40.5067 21.0892 42.1766 25.4438 43.1182C32.6375 44.6737 39.7531 44.3944 46.8274 42.048Z" fill="#F2F0F0"/>
<path d="M46.8274 42.048C50.4415 40.7748 53.6667 39.0045 56.3218 36.3055C56.3875 36.3543 56.4531 36.403 56.5188 36.4517C56.1036 37.1614 55.7434 37.9099 55.2634 38.574C53.498 41.0164 51.1067 42.7399 48.3551 43.8946C38.4264 48.0614 28.5419 47.9901 18.8186 43.2428C16.0142 41.8736 13.6965 39.8816 12.26 37.0439C12.1782 36.8822 12.108 36.7138 12.0472 36.5435C12.0304 36.4964 12.0673 36.4308 12.0951 36.3013C12.6147 36.7711 13.0884 37.2345 13.5985 37.655C17.0571 40.5067 21.0892 42.1766 25.4438 43.1182C32.6375 44.6737 39.7531 44.3944 46.8274 42.048Z" fill="#F2F0F0"/>
<path d="M26.3869 37.6367C33.6652 38.9574 40.7435 38.5965 47.6439 36.0577C50.6411 34.9549 53.3787 33.4069 55.7095 31.2112C55.8132 31.1135 55.9439 31.0439 56.2192 31.0509C56.0974 31.3645 56.0154 31.7007 55.8474 31.9881C54.5672 34.1778 52.7016 35.786 50.5305 37.061C45.1175 40.2399 39.1826 41.2988 32.9787 41.114C27.6405 40.955 22.549 39.808 17.9201 37.0568C15.5347 35.639 13.5142 33.8527 12.2534 31.3424C12.1467 31.13 12.0638 30.9059 12.0195 30.6182C16.0227 34.4945 20.9375 36.5163 26.3869 37.6367Z" fill="#F2F0F0"/>
<path d="M26.3869 37.6367C33.6652 38.9574 40.7435 38.5965 47.6439 36.0577C50.6411 34.9549 53.3787 33.4069 55.7095 31.2112C55.8132 31.1135 55.9439 31.0439 56.2192 31.0509C56.0974 31.3645 56.0154 31.7007 55.8474 31.9881C54.5672 34.1778 52.7016 35.786 50.5305 37.061C45.1175 40.2399 39.1826 41.2988 32.9787 41.114C27.6405 40.955 22.549 39.808 17.9201 37.0568C15.5347 35.639 13.5142 33.8527 12.2534 31.3424C12.1467 31.13 12.0638 30.9059 12.0195 30.6182C16.0227 34.4945 20.9375 36.5163 26.3869 37.6367Z" fill="#F2F0F0"/>
<path d="M133.459 24.0589C133.459 24.6301 133.459 25.1109 133.459 25.6395C132.391 25.6395 131.387 25.6395 130.318 25.6395C130.318 20.0614 130.318 14.4649 130.318 8.80908C131.304 8.80908 132.331 8.80908 133.404 8.80908C133.404 10.9652 133.404 13.1252 133.404 15.4136C134.261 14.4561 135.219 13.8104 136.455 13.6958C139.359 13.4267 141.196 14.8156 141.411 17.7791C141.598 20.3686 141.45 22.9817 141.45 25.6361C140.412 25.6361 139.384 25.6361 138.25 25.6361C138.25 23.8678 138.251 22.117 138.249 20.3663C138.248 19.8204 138.258 19.2732 138.225 18.7288C138.156 17.577 137.69 16.9586 136.731 16.6917C135.771 16.4246 134.652 16.7447 134.186 17.6661C133.791 18.4474 133.569 19.3628 133.488 20.2385C133.373 21.4723 133.459 22.7242 133.459 24.0589Z" fill="#FBFBFB"/>
<path d="M133.457 24.0589C133.457 24.6301 133.457 25.1109 133.457 25.6395C132.389 25.6395 131.385 25.6395 130.316 25.6395C130.316 20.0614 130.316 14.4649 130.316 8.80908C131.302 8.80908 132.329 8.80908 133.402 8.80908C133.402 10.9652 133.402 13.1252 133.402 15.4136C134.259 14.4561 135.217 13.8104 136.453 13.6958C139.357 13.4267 141.194 14.8156 141.409 17.7791C141.596 20.3686 141.448 22.9817 141.448 25.6361C140.41 25.6361 139.382 25.6361 138.248 25.6361C138.248 23.8678 138.249 22.117 138.247 20.3663C138.246 19.8204 138.256 19.2732 138.223 18.7288C138.154 17.577 137.688 16.9586 136.729 16.6917C135.769 16.4246 134.65 16.7447 134.184 17.6661C133.789 18.4474 133.567 19.3628 133.486 20.2385C133.371 21.4723 133.457 22.7242 133.457 24.0589Z" fill="#FBFBFB"/>
<path d="M89.6402 15.345C91.6784 13.5621 94.4298 13.153 96.7219 14.2611C98.8782 15.3035 99.9655 17.5607 99.7122 20.5598C96.8122 20.5598 93.9035 20.5598 90.9405 20.5598C91.1377 21.9062 91.8317 22.7789 93.065 23.097C94.6917 23.5166 96.0369 23.0397 96.9391 21.5309C97.8485 21.982 98.7163 22.4124 99.6161 22.8588C98.1825 25.236 96.1071 26.2731 93.409 26.0418C91.0135 25.8365 89.2128 24.6768 88.2811 22.4571C87.286 20.086 87.6049 17.8336 89.2187 15.79C89.3317 15.647 89.464 15.5188 89.6402 15.345ZM95.0977 16.5053C93.0878 15.9464 91.556 16.6701 91.2441 18.2964C93.0248 18.2964 94.8112 18.2964 96.6685 18.2964C96.417 17.4565 95.9794 16.8846 95.0977 16.5053Z" fill="#FBFBFB"/>
<path d="M89.6402 15.3455C91.6784 13.5626 94.4298 13.1535 96.7219 14.2616C98.8782 15.304 99.9655 17.5612 99.7122 20.5602C96.8122 20.5602 93.9035 20.5602 90.9405 20.5602C91.1377 21.9067 91.8317 22.7794 93.065 23.0975C94.6917 23.5171 96.0369 23.0402 96.9391 21.5314C97.8485 21.9825 98.7163 22.4129 99.6161 22.8593C98.1825 25.2365 96.1071 26.2736 93.409 26.0423C91.0135 25.837 89.2128 24.6773 88.2811 22.4576C87.286 20.0865 87.6049 17.8341 89.2187 15.7905C89.3317 15.6474 89.464 15.5193 89.6402 15.3455ZM95.0977 16.5058C93.0878 15.9469 91.556 16.6706 91.2441 18.2969C93.0248 18.2969 94.8112 18.2969 96.6685 18.2969C96.417 17.457 95.9794 16.8851 95.0977 16.5058Z" fill="#FBFBFB"/>
<path d="M121.805 53.8688C117.653 55.3195 113.787 53.4107 113.01 49.4969C112.511 46.9868 113.203 44.7649 115.329 43.1882C117.41 41.645 119.709 41.529 122.016 42.6742C124.122 43.7198 125.146 46.0542 124.817 48.8649C121.948 48.8649 119.069 48.8649 116.192 48.8649C116.182 50.0254 116.852 50.9939 117.988 51.3273C119.586 51.7962 120.757 51.6183 122.11 49.8619C122.964 50.2816 123.83 50.707 124.732 51.1504C124.033 52.3774 123.105 53.2653 121.805 53.8688ZM116.342 46.3726C116.398 46.4708 116.453 46.6544 116.51 46.6549C118.247 46.6701 119.983 46.6673 121.744 46.6673C121.408 45.4418 120.678 44.7773 119.588 44.6396C118.155 44.4585 117.06 44.9401 116.342 46.3726Z" fill="#FBFBFB"/>
<path d="M121.805 53.8688C117.653 55.3195 113.787 53.4107 113.01 49.4969C112.511 46.9868 113.203 44.7649 115.329 43.1882C117.41 41.645 119.709 41.529 122.016 42.6742C124.122 43.7198 125.146 46.0542 124.817 48.8649C121.948 48.8649 119.069 48.8649 116.192 48.8649C116.182 50.0254 116.852 50.9939 117.988 51.3273C119.586 51.7962 120.757 51.6183 122.11 49.8619C122.964 50.2816 123.83 50.707 124.732 51.1504C124.033 52.3774 123.105 53.2653 121.805 53.8688ZM116.342 46.3726C116.398 46.4708 116.453 46.6544 116.51 46.6549C118.247 46.6701 119.983 46.6673 121.744 46.6673C121.408 45.4418 120.678 44.7773 119.588 44.6396C118.155 44.4585 117.06 44.9401 116.342 46.3726Z" fill="#FBFBFB"/>
<path d="M105.594 13.7144C106.654 13.7629 107.652 13.7169 108.605 13.8987C110.713 14.3007 112.038 15.7329 112.126 17.864C112.233 20.4337 112.152 23.0111 112.152 25.6368C111.127 25.6368 110.098 25.6368 109.051 25.6368C109.034 25.2673 109.019 24.9366 108.995 24.42C107.966 25.578 106.802 26.147 105.324 26.0709C103.074 25.955 101.322 24.4583 101.185 22.4401C101.036 20.2332 102.385 18.5323 104.743 18.259C106.115 18.1001 107.527 18.2777 109.017 18.3056C109.176 17.6371 108.705 17.021 107.967 16.6398C106.323 15.791 104.951 16.3719 103.743 17.6134C102.971 17.0876 102.22 16.5762 101.432 16.0394C102.501 14.6582 103.884 13.9831 105.594 13.7144ZM105.028 23.2006C106.675 23.9944 108.503 23.283 108.936 21.6392C108.997 21.4048 108.804 20.876 108.674 20.8578C107.663 20.7162 106.605 20.4688 105.628 20.6364C104.333 20.8586 104.053 22.0942 105.028 23.2006Z" fill="#FBFBFB"/>
<path d="M105.596 13.7139C106.656 13.7625 107.654 13.7164 108.607 13.8982C110.715 14.3002 112.04 15.7325 112.128 17.8635C112.235 20.4332 112.154 23.0106 112.154 25.6363C111.129 25.6363 110.1 25.6363 109.053 25.6363C109.036 25.2669 109.02 24.9361 108.997 24.4196C107.968 25.5775 106.804 26.1465 105.326 26.0704C103.076 25.9545 101.324 24.4578 101.187 22.4396C101.038 20.2327 102.387 18.5318 104.745 18.2586C106.117 18.0996 107.529 18.2772 109.019 18.3051C109.178 17.6366 108.707 17.0205 107.969 16.6393C106.325 15.7905 104.953 16.3714 103.745 17.6129C102.973 17.0871 102.222 16.5758 101.434 16.0389C102.503 14.6577 103.886 13.9827 105.596 13.7139ZM105.03 23.2001C106.677 23.9939 108.505 23.2825 108.937 21.6387C108.999 21.4043 108.805 20.8755 108.676 20.8574C107.665 20.7157 106.607 20.4683 105.63 20.6359C104.335 20.8581 104.055 22.0937 105.03 23.2001Z" fill="#FBFBFB"/>
<path d="M94.7364 53.7579C92.033 54.8911 88.9929 54.3666 87.2557 52.5021C85.4311 50.5437 85.0784 47.4881 86.3944 45.0395C87.6976 42.6146 90.6383 41.4429 93.6095 42.1646C96.213 42.797 98.0391 45.1314 98.1161 47.811C98.1919 50.4488 97.1991 52.4635 94.7364 53.7579ZM93.4637 50.9847C93.6922 50.783 93.9434 50.6012 94.1452 50.3762C95.0192 49.4021 95.167 47.6487 94.4936 46.4459C93.8902 45.3683 92.693 44.7672 91.4789 44.9539C90.1998 45.1507 89.3611 45.8699 89.0098 47.0992C88.6223 48.455 88.8203 49.714 89.9146 50.681C90.9347 51.5825 92.1152 51.6605 93.4637 50.9847Z" fill="#FBFBFB"/>
<path d="M94.7383 53.7579C92.035 54.8911 88.9949 54.3666 87.2577 52.5021C85.4331 50.5437 85.0804 47.4881 86.3963 45.0395C87.6996 42.6146 90.6402 41.4429 93.6115 42.1646C96.2149 42.797 98.0411 45.1314 98.1181 47.811C98.1938 50.4488 97.2011 52.4635 94.7383 53.7579ZM93.4657 50.9847C93.6942 50.783 93.9453 50.6012 94.1472 50.3762C95.0211 49.4021 95.169 47.6487 94.4955 46.4459C93.8922 45.3683 92.695 44.7672 91.4809 44.9539C90.2017 45.1507 89.3631 45.8699 89.0117 47.0992C88.6242 48.455 88.8223 49.714 89.9166 50.681C90.9367 51.5825 92.1172 51.6605 93.4657 50.9847Z" fill="#FBFBFB"/>
<path d="M126.54 45.0631C126.137 44.1526 125.76 43.3065 125.332 42.3448C126.528 42.3448 127.568 42.3082 128.6 42.3728C128.833 42.3874 129.137 42.715 129.248 42.9671C130.089 44.8801 130.89 46.8103 131.705 48.7345C131.775 48.8987 131.856 49.0583 132.018 49.4059C133.02 46.9555 133.959 44.6585 134.893 42.3762C136.076 42.3762 137.204 42.3762 138.483 42.3762C136.011 47.9865 133.575 53.5158 131.137 59.0487C129.996 59.0487 128.891 59.0487 127.66 59.0487C128.42 57.3895 129.127 55.7694 129.907 54.1842C130.187 53.6135 130.188 53.1662 129.919 52.5866C128.769 50.115 127.679 47.6164 126.54 45.0631Z" fill="#FAFAFA"/>
<path d="M126.54 45.0631C126.137 44.1526 125.76 43.3065 125.332 42.3448C126.528 42.3448 127.568 42.3082 128.6 42.3728C128.833 42.3874 129.137 42.715 129.248 42.9671C130.089 44.8801 130.89 46.8103 131.705 48.7345C131.775 48.8987 131.856 49.0583 132.018 49.4059C133.02 46.9555 133.959 44.6585 134.893 42.3762C136.076 42.3762 137.204 42.3762 138.483 42.3762C136.011 47.9865 133.575 53.5158 131.137 59.0487C129.996 59.0487 128.891 59.0487 127.66 59.0487C128.42 57.3895 129.127 55.7694 129.907 54.1842C130.187 53.6135 130.188 53.1662 129.919 52.5866C128.769 50.115 127.679 47.6164 126.54 45.0631Z" fill="#FAFAFA"/>
<path d="M103.045 49.0492C103.045 50.7129 103.045 52.2871 103.045 53.9121C101.954 53.9121 100.927 53.9121 99.8652 53.9121C99.8652 50.0677 99.8652 46.2558 99.8652 42.3939C100.85 42.3939 101.79 42.3939 102.804 42.3939C102.839 42.8296 102.874 43.2585 102.919 43.8235C104.228 42.2144 105.817 41.6728 107.728 42.0883C109.645 42.5053 110.889 43.853 110.983 45.9763C111.098 48.6072 111.01 51.2468 111.01 53.9231C109.973 53.9231 108.968 53.9231 107.833 53.9231C107.833 53.0685 107.833 52.2041 107.833 51.3396C107.833 49.9723 107.863 48.6042 107.824 47.238C107.783 45.8297 107.271 45.177 106.163 44.975C104.958 44.7553 103.883 45.2674 103.45 46.4746C103.171 47.2527 103.171 48.1279 103.045 49.0492Z" fill="#F9F9F9"/>
<path d="M103.043 49.0492C103.043 50.7129 103.043 52.2871 103.043 53.9121C101.952 53.9121 100.925 53.9121 99.8633 53.9121C99.8633 50.0677 99.8633 46.2558 99.8633 42.3939C100.848 42.3939 101.788 42.3939 102.802 42.3939C102.837 42.8296 102.872 43.2585 102.917 43.8235C104.226 42.2144 105.815 41.6728 107.726 42.0883C109.643 42.5053 110.887 43.853 110.981 45.9763C111.096 48.6072 111.008 51.2468 111.008 53.9231C109.971 53.9231 108.966 53.9231 107.831 53.9231C107.831 53.0685 107.831 52.2041 107.831 51.3396C107.831 49.9723 107.861 48.6042 107.822 47.238C107.781 45.8297 107.269 45.177 106.161 44.975C104.956 44.7553 103.881 45.2674 103.448 46.4746C103.17 47.2527 103.169 48.1279 103.043 49.0492Z" fill="#F9F9F9"/>
<path d="M125.065 11.3539C125.065 12.2828 125.065 13.1263 125.065 14.027C126.01 14.027 126.892 14.027 127.846 14.027C127.846 14.9424 127.846 15.8012 127.846 16.7433C126.971 16.7433 126.066 16.7433 125.078 16.7433C125.078 18.4811 125.021 20.1414 125.098 21.7956C125.151 22.9495 125.957 23.2623 127.512 22.8227C127.671 23.2676 127.838 23.7137 127.988 24.1658C128.129 24.5933 128.251 25.0271 128.379 25.4524C125.316 27.2778 121.913 25.4722 121.814 21.9668C121.766 20.2711 121.806 18.5729 121.806 16.7957C121.139 16.7957 120.506 16.7957 119.824 16.7957C119.824 15.8545 119.824 14.9935 119.824 14.0729C120.476 14.0729 121.081 14.0729 121.776 14.0729C121.776 12.8812 121.776 11.746 121.776 10.5605C122.899 10.5605 123.933 10.5605 125.024 10.5605C125.038 10.8048 125.052 11.0366 125.065 11.3539Z" fill="#F9F9F9"/>
<path d="M125.065 11.3539C125.065 12.2828 125.065 13.1263 125.065 14.027C126.01 14.027 126.892 14.027 127.846 14.027C127.846 14.9424 127.846 15.8012 127.846 16.7433C126.971 16.7433 126.066 16.7433 125.078 16.7433C125.078 18.4811 125.021 20.1414 125.098 21.7956C125.151 22.9495 125.957 23.2623 127.512 22.8227C127.671 23.2676 127.838 23.7137 127.988 24.1658C128.129 24.5933 128.251 25.0271 128.379 25.4524C125.316 27.2778 121.913 25.4722 121.814 21.9668C121.766 20.2711 121.806 18.5729 121.806 16.7957C121.139 16.7957 120.506 16.7957 119.824 16.7957C119.824 15.8545 119.824 14.9935 119.824 14.0729C120.476 14.0729 121.081 14.0729 121.776 14.0729C121.776 12.8812 121.776 11.746 121.776 10.5605C122.899 10.5605 123.933 10.5605 125.024 10.5605C125.038 10.8048 125.052 11.0366 125.065 11.3539Z" fill="#F9F9F9"/>
<path d="M78.9259 14.0533C79.3795 14.0533 79.7454 14.0533 80.2008 14.0533C80.2008 12.8837 80.2008 11.7483 80.2008 10.5615C81.3205 10.5615 82.3508 10.5615 83.437 10.5615C83.437 11.7115 83.437 12.825 83.437 14.0139C84.3996 14.0139 85.3096 14.0139 86.2837 14.0139C86.2837 14.9499 86.2837 15.8116 86.2837 16.7473C85.3896 16.7473 84.4818 16.7473 83.5131 16.7473C83.5131 18.532 83.4433 20.2498 83.5393 21.9585C83.5967 22.9797 84.4313 23.2422 85.9295 22.8149C86.2189 23.6891 86.5094 24.5666 86.8291 25.532C85.2314 26.1744 83.662 26.3903 82.1208 25.569C80.6969 24.8102 80.2467 23.4774 80.2372 21.966C80.2265 20.2693 80.2347 18.5726 80.2347 16.8105C79.5653 16.8105 78.9301 16.8105 78.1707 16.8105C78.1707 15.9724 78.1378 15.1945 78.2007 14.4242C78.2121 14.2845 78.6157 14.1761 78.9259 14.0533Z" fill="#F9F9F9"/>
<path d="M78.9239 14.0533C79.3775 14.0533 79.7435 14.0533 80.1989 14.0533C80.1989 12.8837 80.1989 11.7483 80.1989 10.5615C81.3185 10.5615 82.3489 10.5615 83.4351 10.5615C83.4351 11.7115 83.4351 12.825 83.4351 14.0139C84.3977 14.0139 85.3076 14.0139 86.2818 14.0139C86.2818 14.9499 86.2818 15.8116 86.2818 16.7473C85.3877 16.7473 84.4798 16.7473 83.5111 16.7473C83.5111 18.532 83.4413 20.2498 83.5374 21.9585C83.5948 22.9797 84.4293 23.2422 85.9275 22.8149C86.217 23.6891 86.5075 24.5666 86.8271 25.532C85.2294 26.1744 83.66 26.3903 82.1188 25.569C80.6949 24.8102 80.2448 23.4774 80.2352 21.966C80.2245 20.2693 80.2328 18.5726 80.2328 16.8105C79.5633 16.8105 78.9281 16.8105 78.1687 16.8105C78.1687 15.9724 78.1359 15.1945 78.1988 14.4242C78.2102 14.2845 78.6138 14.1761 78.9239 14.0533Z" fill="#F9F9F9"/>
<path d="M117.86 16.2252C117.86 19.4045 117.86 22.4926 117.86 25.6351C116.771 25.6351 115.743 25.6351 114.656 25.6351C114.656 20.0349 114.656 14.4417 114.656 8.79834C115.696 8.79834 116.726 8.79834 117.86 8.79834C117.86 11.2441 117.86 13.6891 117.86 16.2252Z" fill="#F7F7F7"/>
<path d="M117.86 16.2252C117.86 19.4045 117.86 22.4926 117.86 25.6351C116.771 25.6351 115.743 25.6351 114.656 25.6351C114.656 20.0349 114.656 14.4417 114.656 8.79834C115.696 8.79834 116.726 8.79834 117.86 8.79834C117.86 11.2441 117.86 13.6891 117.86 16.2252Z" fill="#F7F7F7"/>
</g>
<defs>
<clipPath id="clip0_3978_2064">
<rect width="160" height="68" fill="white"/>
</clipPath>
</defs>
</svg>
