<svg width="16" height="16" viewBox="0 0 16 16" fill="none" xmlns="http://www.w3.org/2000/svg">
<path d="M7.35403 10.6462C7.40052 10.6926 7.4374 10.7477 7.46256 10.8084C7.48772 10.8691 7.50067 10.9342 7.50067 10.9999C7.50067 11.0656 7.48772 11.1307 7.46256 11.1914C7.4374 11.2521 7.40052 11.3072 7.35403 11.3537L5.35403 13.3537C5.30759 13.4001 5.25245 13.437 5.19175 13.4622C5.13105 13.4873 5.06599 13.5003 5.00028 13.5003C4.93457 13.5003 4.86951 13.4873 4.80881 13.4622C4.74811 13.437 4.69296 13.4001 4.64653 13.3537L2.64653 11.3537C2.60007 11.3072 2.56322 11.252 2.53808 11.1914C2.51294 11.1307 2.5 11.0656 2.5 10.9999C2.5 10.9342 2.51294 10.8692 2.53808 10.8085C2.56322 10.7478 2.60007 10.6926 2.64653 10.6462C2.74035 10.5523 2.8676 10.4996 3.00028 10.4996C3.06598 10.4996 3.13103 10.5126 3.19173 10.5377C3.25242 10.5628 3.30757 10.5997 3.35403 10.6462L4.50028 11.793V2.99991C4.50028 2.8673 4.55296 2.74012 4.64672 2.64635C4.74049 2.55258 4.86767 2.49991 5.00028 2.49991C5.13289 2.49991 5.26006 2.55258 5.35383 2.64635C5.4476 2.74012 5.50028 2.8673 5.50028 2.99991V11.793L6.64653 10.6462C6.69296 10.5997 6.74811 10.5628 6.80881 10.5376C6.86951 10.5125 6.93457 10.4995 7.00028 10.4995C7.06599 10.4995 7.13105 10.5125 7.19175 10.5376C7.25245 10.5628 7.30759 10.5997 7.35403 10.6462ZM13.354 4.64615L11.354 2.64616C11.3076 2.59967 11.2524 2.56279 11.1917 2.53763C11.131 2.51246 11.066 2.49951 11.0003 2.49951C10.9346 2.49951 10.8695 2.51246 10.8088 2.53763C10.7481 2.56279 10.693 2.59967 10.6465 2.64616L8.64653 4.64615C8.55271 4.73998 8.5 4.86722 8.5 4.99991C8.5 5.13259 8.55271 5.25984 8.64653 5.35366C8.74035 5.44748 8.8676 5.50018 9.00028 5.50018C9.13296 5.50018 9.26021 5.44748 9.35403 5.35366L10.5003 4.20678V12.9999C10.5003 13.1325 10.553 13.2597 10.6467 13.3535C10.7405 13.4472 10.8677 13.4999 11.0003 13.4999C11.1329 13.4999 11.2601 13.4472 11.3538 13.3535C11.4476 13.2597 11.5003 13.1325 11.5003 12.9999V4.20678L12.6465 5.35366C12.7403 5.44748 12.8676 5.50018 13.0003 5.50018C13.133 5.50018 13.2602 5.44748 13.354 5.35366C13.4478 5.25984 13.5006 5.13259 13.5006 4.99991C13.5006 4.86722 13.4478 4.73998 13.354 4.64615Z" fill="white"/>
</svg>
