<svg width="150" height="207" viewBox="0 0 150 207" fill="none" xmlns="http://www.w3.org/2000/svg">
<path d="M138.777 81.8266C138.039 40.1777 124.189 0.833984 73.8881 0.833984C22.4599 2.25079 9.6719 39.7615 9.8808 81.8266M138.777 81.8266C139.116 101.005 136.676 120.673 133.733 137.213M138.777 81.8266C157.296 81.8266 146.572 128.875 133.733 137.213M133.733 137.213C131.878 147.643 129.823 156.829 128.139 163.864C128.115 163.965 128.079 164.059 128.03 164.15C120.225 178.418 99.1293 195.715 92.9528 200.939C84.0162 208.498 61.3769 207.49 54.2277 200.939C39.3334 189.028 22.1752 170.685 20.2687 164.015C18.8182 155.912 17.1111 146.831 15.5044 137.213M9.8808 81.8266C9.97254 100.301 12.5711 119.653 15.5044 137.213M9.8808 81.8266C-7.73378 81.8266 2.98942 130.662 15.5044 137.213" stroke="#494949" stroke-width="0.743842"/>
<ellipse cx="17.8967" cy="38.3509" rx="1.78731" ry="1.78665" fill="#F7931A"/>
<ellipse cx="47.6857" cy="22.8667" rx="1.78731" ry="1.78665" fill="#F7931A"/>
<ellipse cx="58.4104" cy="65.7481" rx="1.78731" ry="1.78665" fill="#F7931A"/>
<ellipse cx="89.7873" cy="65.7867" rx="1.78731" ry="1.78665" fill="#F7931A"/>
<ellipse cx="100.113" cy="80.0408" rx="1.78731" ry="1.78665" fill="#F7931A"/>
<ellipse cx="73.7522" cy="104.782" rx="1.78731" ry="1.78665" fill="#F7931A"/>
<ellipse cx="47.6857" cy="80.0408" rx="1.78731" ry="1.78665" fill="#F7931A"/>
<ellipse cx="26.2385" cy="80.0408" rx="1.78731" ry="1.78665" fill="#F7931A"/>
<ellipse cx="13.1311" cy="103.861" rx="1.78731" ry="1.78665" fill="#F7931A"/>
<ellipse cx="47.6857" cy="120.537" rx="1.78731" ry="1.78665" fill="#F7931A"/>
<ellipse cx="22.6623" cy="161.035" rx="1.78731" ry="1.78665" fill="#F7931A"/>
<ellipse cx="47.6857" cy="164.606" rx="1.78731" ry="1.78665" fill="#F7931A"/>
<ellipse cx="47.6857" cy="188.43" rx="1.78731" ry="1.78665" fill="#F7931A"/>
<ellipse cx="73.9006" cy="183.665" rx="1.78731" ry="1.78665" fill="#F7931A"/>
<ellipse cx="101.305" cy="188.43" rx="1.78731" ry="1.78665" fill="#F7931A"/>
<ellipse cx="101.305" cy="166.992" rx="1.78731" ry="1.78665" fill="#F7931A"/>
<ellipse cx="125.137" cy="159.844" rx="1.78731" ry="1.78665" fill="#F7931A"/>
<ellipse cx="101.305" cy="120.537" rx="1.78731" ry="1.78665" fill="#F7931A"/>
<ellipse cx="73.9006" cy="143.169" rx="1.78731" ry="1.78665" fill="#F7931A"/>
<ellipse cx="84.6233" cy="133.638" rx="1.78731" ry="1.78665" fill="#F7931A"/>
<ellipse cx="63.176" cy="133.638" rx="1.78731" ry="1.78665" fill="#F7931A"/>
<ellipse cx="121.561" cy="80.0408" rx="1.78731" ry="1.78665" fill="#F7931A"/>
<ellipse cx="134.668" cy="103.861" rx="1.78731" ry="1.78665" fill="#F7931A"/>
<ellipse cx="101.305" cy="22.8667" rx="1.78731" ry="1.78665" fill="#F7931A"/>
<ellipse cx="129.903" cy="38.3509" rx="1.78731" ry="1.78665" fill="#F7931A"/>
<path d="M18.4173 38.6136L47.4501 22.9355M18.4173 38.6136L25.9659 81.0023M18.4173 38.6136L58.4826 66.4856M47.4501 22.9355H100.871M47.4501 22.9355L58.4826 66.4856M100.871 22.9355L130.484 38.6136M100.871 22.9355L89.2574 66.4856M130.484 38.6136L121.774 81.0023M130.484 38.6136L89.2574 66.4856M121.774 81.0023L133.945 103.131C134.273 103.728 134.033 104.478 133.42 104.774L100.871 120.488M121.774 81.0023H100.871M100.871 120.488L126.057 159.668C126.51 160.372 126.112 161.312 125.29 161.476L100.871 166.36M100.871 120.488V166.36M100.871 120.488L73.5797 104.229M100.871 120.488L83.8138 135.004M100.871 166.36V188.088C100.871 188.854 100.157 189.42 99.4109 189.245L73.5797 183.2M100.871 166.36L73.5797 183.2M100.871 166.36L83.8138 135.004M73.5797 183.2L47.2572 188.684C46.4822 188.845 45.7688 188.218 45.8295 187.429L47.4501 166.36M73.5797 183.2L47.4501 166.36M47.4501 166.36L24.1356 161.48C23.3302 161.312 22.9356 160.396 23.3662 159.695L47.4501 120.488M47.4501 166.36V120.488M47.4501 166.36L63.7085 135.004M47.4501 120.488L14.3315 104.77C13.7132 104.477 13.4697 103.723 13.7996 103.123L25.9659 81.0023M47.4501 120.488L73.5797 104.229M47.4501 120.488L63.7085 135.004M25.9659 81.0023H47.4501M58.4826 66.4856L47.4501 81.0023M58.4826 66.4856H89.2574M47.4501 81.0023L73.5797 104.229M73.5797 104.229L100.871 81.0023M73.5797 104.229V143.714M73.5797 104.229L63.7085 135.004M73.5797 104.229L83.8138 135.004M100.871 81.0023L89.2574 66.4856M73.5797 143.714L83.8138 135.004M73.5797 143.714L63.7085 135.004" stroke="#F7931A" stroke-dasharray="4.76 4.76"/>
</svg>
