<svg width="20" height="20" viewBox="0 0 20 20" fill="none" xmlns="http://www.w3.org/2000/svg">
<path d="M16.6927 7.94219L10.4427 14.1922C10.3846 14.2503 10.3157 14.2964 10.2398 14.3279C10.164 14.3593 10.0826 14.3755 10.0005 14.3755C9.91836 14.3755 9.83703 14.3593 9.76115 14.3279C9.68528 14.2964 9.61635 14.2503 9.5583 14.1922L3.3083 7.94219C3.2208 7.85478 3.16119 7.74337 3.13704 7.62207C3.11288 7.50076 3.12526 7.37502 3.1726 7.26076C3.21995 7.14649 3.30013 7.04884 3.403 6.98017C3.50587 6.91151 3.62681 6.8749 3.75049 6.875H16.2505C16.3742 6.8749 16.4951 6.91151 16.598 6.98017C16.7009 7.04884 16.781 7.14649 16.8284 7.26076C16.8757 7.37502 16.8881 7.50076 16.8639 7.62207C16.8398 7.74337 16.7802 7.85478 16.6927 7.94219Z" fill="#AAAAAA"/>
</svg>
