<?xml version="1.0" encoding="UTF-8"?>
<svg version="1.1" xmlns="http://www.w3.org/2000/svg" width="575" height="355">
<path d="M0 0 C5.82981477 3.04164249 8.66215653 8.31535927 10.734375 14.3125 C11.68250723 21.45842289 11.14184449 27.27452795 7.23828125 33.40234375 C4.57355585 36.78689108 1.61729611 39.37103945 -2.265625 41.3125 C-9.45654493 42.02548073 -15.71242382 42.24388568 -21.6796875 37.8125 C-25.77097282 33.94290995 -28.06922162 29.84642562 -28.50390625 24.23828125 C-28.77397512 11.09019142 -28.77397512 11.09019142 -24.265625 5.3125 C-17.45147433 -1.16094314 -9.11073535 -2.76463693 0 0 Z " fill="#E4CB8D" transform="translate(379.265625,42.6875)"/>
<path d="M0 0 C4.6537261 0.56353714 9.15331967 2.3487398 13.125 4.8125 C15.125 7.8125 15.125 7.8125 14.97045898 10.65551758 C14.02919912 14.17022485 12.70839333 16.36991675 10.59765625 19.32421875 C9.88802734 20.32904297 9.17839844 21.33386719 8.44726562 22.36914062 C7.70154297 23.40232422 6.95582031 24.43550781 6.1875 25.5 C5.44564453 26.54478516 4.70378906 27.58957031 3.93945312 28.66601562 C2.56623514 30.59947667 1.18852728 32.52976217 -0.19506836 34.45581055 C-1.45251474 36.21981723 -2.67334845 38.01002267 -3.875 39.8125 C-10.05438256 40.97113423 -13.68373547 38.51477326 -18.8359375 35.22265625 C-21.80200068 33.17141332 -21.80200068 33.17141332 -22.625 29.125 C-22.59001055 21.81220572 -16.76771732 16.69290776 -12.25097656 11.46777344 C-10.39594475 9.23620571 -8.81533395 6.83760866 -7.1875 4.4375 C-4.66708513 1.22262403 -4.22773323 0.88646019 0 0 Z " fill="#FAF5BE" transform="translate(294.875,44.1875)"/>
<path d="M0 0 C5.82981477 3.04164249 8.66215653 8.31535927 10.734375 14.3125 C11.68250723 21.45842289 11.14184449 27.27452795 7.23828125 33.40234375 C4.57355585 36.78689108 1.61729611 39.37103945 -2.265625 41.3125 C-9.45654493 42.02548073 -15.71242382 42.24388568 -21.6796875 37.8125 C-25.77097282 33.94290995 -28.06922162 29.84642562 -28.50390625 24.23828125 C-28.77397512 11.09019142 -28.77397512 11.09019142 -24.265625 5.3125 C-17.45147433 -1.16094314 -9.11073535 -2.76463693 0 0 Z M-18.265625 5.3125 C-19.19375 5.745625 -20.121875 6.17875 -21.078125 6.625 C-24.89201485 9.5671436 -25.94250578 13.13233295 -26.62109375 17.7109375 C-26.98885323 24.17157707 -25.44353924 28.3946282 -21.265625 33.3125 C-16.42343698 37.69352725 -13.05723096 39.75456055 -6.5625 39.6484375 C-2.98472622 39.12515766 -1.03277985 37.58298603 1.734375 35.3125 C1.074375 34.9825 0.414375 34.6525 -0.265625 34.3125 C0.08371094 33.85359375 0.43304688 33.3946875 0.79296875 32.921875 C1.24800781 32.30828125 1.70304687 31.6946875 2.171875 31.0625 C2.62433594 30.45921875 3.07679688 29.8559375 3.54296875 29.234375 C6.12480889 25.06957057 6.50485528 20.09986621 5.734375 15.3125 C3.55633617 10.2424594 0.84961151 6.65089383 -4.265625 4.3125 C-3.605625 3.6525 -2.945625 2.9925 -2.265625 2.3125 C-3.39393357 0.97363378 -3.39393357 0.97363378 -6.328125 1 C-11.14299315 1.38213239 -14.14401847 2.95233794 -18.265625 5.3125 Z " fill="#F9F3BD" transform="translate(379.265625,42.6875)"/>
<path d="M0 0 C0.99 0.33 1.98 0.66 3 1 C3 1.99 3 2.98 3 4 C3.598125 3.814375 4.19625 3.62875 4.8125 3.4375 C7 3 7 3 10 4 C12.05824786 3.8658648 12.05824786 3.8658648 14.25 3.5 C18.45191745 2.97132738 21.86729369 3.05292147 26 4 C26.495 4.99 26.495 4.99 27 6 C27 5.34 27 4.68 27 4 C30 3 30 3 33 4 C33 6.64 33 9.28 33 12 C30 12 27 12 24 12 C24 10.02 24 8.04 24 6 C23.34 6 22.68 6 22 6 C22 7.98 22 9.96 22 12 C21.01 12 20.02 12 19 12 C18.505 9.525 18.505 9.525 18 7 C17.67 8.65 17.34 10.3 17 12 C16.34 12 15.68 12 15 12 C15 10.02 15 8.04 15 6 C14.34 6.33 13.68 6.66 13 7 C12.34444881 9.52733235 12.34444881 9.52733235 12 12 C8.49064814 12 5.43515002 11.62457273 2 11 C2 9.35 2 7.7 2 6 C1.34 6 0.68 6 0 6 C0 7.98 0 9.96 0 12 C-0.66 12 -1.32 12 -2 12 C-2 10.02 -2 8.04 -2 6 C-2.99 6.33 -3.98 6.66 -5 7 C-5.33 8.65 -5.66 10.3 -6 12 C-10 12 -10 12 -13.5 11.4375 C-16.53170708 11.05853662 -18.19169713 10.98901097 -21 12 C-21 12.99 -21 13.98 -21 15 C-21.99 15 -22.98 15 -24 15 C-24 11.37 -24 7.74 -24 4 C-19.43817763 3.08763553 -18.90172366 2.99310357 -15 4 C-13.66431979 3.67619874 -12.33076989 3.34342449 -11 3 C-10.01 3.33 -9.02 3.66 -8 4 C-4.60348774 3.0988845 -2.50320403 2.50320403 0 0 Z M-21 6 C-21 6.99 -21 7.98 -21 9 C-20.01 8.67 -19.02 8.34 -18 8 C-18.33 7.34 -18.66 6.68 -19 6 C-19.66 6 -20.32 6 -21 6 Z M5 6 C4.67 6.99 4.34 7.98 4 9 C4.99 9 5.98 9 7 9 C7 8.01 7 7.02 7 6 C6.34 6 5.68 6 5 6 Z " fill="#FDFBFB" transform="translate(278,19)"/>
<path d="M0 0 C4.26672384 0.47408043 6.2455048 2.88307122 9 6 C11.62161944 9.6203316 11.53117763 13.69424194 11 18 C9.53755137 22.17842467 7.84926939 25.60801263 5 29 C5.66 29.33 6.32 29.66 7 30 C2.83928656 33.41391872 -0.25761508 34.78244368 -5.6953125 34.5078125 C-11.51914049 33.22459616 -15.60118923 28.94723286 -19 24.25 C-21.60146114 19.69525322 -21.82771468 15.1231182 -21 10 C-19.97265625 7.703125 -19.97265625 7.703125 -19 6 C-18.00352529 8.98942412 -17.98105079 10.65989036 -18.125 13.75 C-18.168084 18.65439527 -17.51739528 21.77437221 -15 26 C-13.01224124 26.97733657 -13.01224124 26.97733657 -11 27 C-10.34 27.33 -9.68 27.66 -9 28 C-9.33 25.69 -9.66 23.38 -10 21 C-9.34 21 -8.68 21 -8 21 C-8 17.04 -8 13.08 -8 9 C-8.66 9 -9.32 9 -10 9 C-9.67 8.01 -9.34 7.02 -9 6 C-8.34 6 -7.68 6 -7 6 C-7 6.66 -7 7.32 -7 8 C-6.34 8 -5.68 8 -5 8 C-4.505 14.93 -4.505 14.93 -4 22 C-2.68 22.33 -1.36 22.66 0 23 C0 23.66 0 24.32 0 25 C0.66 25 1.32 25 2 25 C2 25.66 2 26.32 2 27 C5.16666667 25.16666667 5.16666667 25.16666667 7 22 C7.71570882 15.55862064 7.82445909 9.46351298 4 4 C1.93832739 1.68581709 1.93832739 1.68581709 0 0 Z M-4 15 C-1.69 15 0.62 15 3 15 C3.33 16.65 3.66 18.3 4 20 C3.01 20 2.02 20 1 20 C0.67 19.67 0.34 19.34 0 19 C-1.98 19.99 -1.98 19.99 -4 21 C-4 19.02 -4 17.04 -4 15 Z " fill="#D2A25E" transform="translate(374,48)"/>
<path d="M0 0 C5.65612083 0.78922616 10.77818134 1.93454499 15 6 C15 7.32 15 8.64 15 10 C14.01 10.33 13.02 10.66 12 11 C10.72552175 12.43820582 10.72552175 12.43820582 9.625 14.23828125 C9.19703125 14.89376953 8.7690625 15.54925781 8.328125 16.22460938 C7.88984375 16.91361328 7.4515625 17.60261719 7 18.3125 C6.1259709 19.66338909 5.25099607 21.01366683 4.375 22.36328125 C3.96483643 22.99927246 3.55467285 23.63526367 3.13208008 24.29052734 C2.22325443 25.66287955 1.25180865 26.99366537 0.26171875 28.30859375 C-1.29735803 30.39862547 -2.11817496 32.55802296 -3 35 C-8.85272256 34.54979057 -13.08220119 31.96160773 -18 29 C-18 27.02 -18 25.04 -18 23 C-14.31698976 23.59955981 -10.65690221 24.25865185 -7 25 C-1.65331575 18.18946627 3.60159681 11.47728543 8 4 C5.36 3.34 2.72 2.68 0 2 C0 1.34 0 0.68 0 0 Z " fill="#EBCA6E" transform="translate(293,47)"/>
<path d="M0 0 C1.53202706 0.25195908 3.05257128 0.57596777 4.5625 0.9375 C5.80193359 1.22947266 5.80193359 1.22947266 7.06640625 1.52734375 C7.70449219 1.68332031 8.34257812 1.83929688 9 2 C7.37130791 7.10725669 4.30111683 11.01517756 1.125 15.25 C0.33029297 16.34828125 0.33029297 16.34828125 -0.48046875 17.46875 C-0.99996094 18.16484375 -1.51945312 18.8609375 -2.0546875 19.578125 C-2.75827393 20.52800293 -2.75827393 20.52800293 -3.47607422 21.49707031 C-5.28990331 23.28590913 -6.49613524 23.6750975 -9 24 C-11.50221782 23.27272937 -13.63811773 22.13552032 -16 21 C-14.63612885 18.04638063 -13.05802423 15.65655493 -10.99609375 13.14453125 C-10.42052734 12.44005859 -9.84496094 11.73558594 -9.25195312 11.00976562 C-8.35379883 9.92211914 -8.35379883 9.92211914 -7.4375 8.8125 C-6.83486328 8.07580078 -6.23222656 7.33910156 -5.61132812 6.58007812 C-1.20746971 1.20746971 -1.20746971 1.20746971 0 0 Z " fill="#F9DE9A" transform="translate(292,49)"/>
<path d="M0 0 C-0.33 0.99 -0.66 1.98 -1 3 C-2.65 3 -4.3 3 -6 3 C-6 4.32 -6 5.64 -6 7 C-4.68 7.33 -3.36 7.66 -2 8 C-2 7.34 -2 6.68 -2 6 C-2.99 6 -3.98 6 -5 6 C-5 5.34 -5 4.68 -5 4 C-3.20994059 3.63779734 -1.41787943 3.28547531 0.375 2.9375 C1.87160156 2.64166016 1.87160156 2.64166016 3.3984375 2.33984375 C6 2 6 2 8 3 C8.33 1.68 8.66 0.36 9 -1 C9.99 -1 10.98 -1 12 -1 C12.33 0.32 12.66 1.64 13 3 C13.99 2.67 14.98 2.34 16 2 C16.33 1.01 16.66 0.02 17 -1 C17.99 -1 18.98 -1 20 -1 C20 2.96 20 6.92 20 11 C7 11 7 11 3.75 10.4375 C0.07976198 9.81619142 0.07976198 9.81619142 -3.1875 10.625 C-6 11 -6 11 -8.375 9.9375 C-10 8 -10 8 -10.5 5 C-10 2 -10 2 -8.375 0.0625 C-5.23872457 -1.34057059 -3.27549981 -0.81887495 0 0 Z M4 5 C4 5.99 4 6.98 4 8 C4.99 7.67 5.98 7.34 7 7 C6.67 6.34 6.34 5.68 6 5 C5.34 5 4.68 5 4 5 Z M14 5 C14 5.99 14 6.98 14 8 C14.99 8 15.98 8 17 8 C17 7.01 17 6.02 17 5 C16.01 5 15.02 5 14 5 Z " fill="#FDFBFB" transform="translate(170,20)"/>
<path d="M0 0 C9.66666667 0 19.33333333 0 29 0 C29 1.32 29 2.64 29 4 C29.30404678 5.67225729 29.63128912 7.34080104 30 9 C27.10765685 9.82638376 25.11257569 10 22 10 C21.67 8.35 21.34 6.7 21 5 C20.67 6.32 20.34 7.64 20 9 C16.98968256 9.93423645 16.13349732 10.04449911 13 9 C12.34 9.165 11.68 9.33 11 9.5 C9 10 9 10 6 9 C3.36195411 9.39397335 3.36195411 9.39397335 1 10 C0.67 8.68 0.34 7.36 0 6 C0.66 6 1.32 6 2 6 C2 5.01 2 4.02 2 3 C1.34 3 0.68 3 0 3 C0 2.01 0 1.02 0 0 Z M17 2 C18.485 2.99 18.485 2.99 20 4 C20 3.34 20 2.68 20 2 C19.01 2 18.02 2 17 2 Z M9 3 C9 4.32 9 5.64 9 7 C9.66 7 10.32 7 11 7 C11 5.68 11 4.36 11 3 C10.34 3 9.68 3 9 3 Z " fill="#FDFBFB" transform="translate(357,205)"/>
<path d="M0 0 C2.97 0.495 2.97 0.495 6 1 C6.33 2.65 6.66 4.3 7 6 C7.33 5.34 7.66 4.68 8 4 C9.32 4 10.64 4 12 4 C12 3.34 12 2.68 12 2 C12.66 2 13.32 2 14 2 C14 2.66 14 3.32 14 4 C14.9075 3.814375 15.815 3.62875 16.75 3.4375 C19.79137413 3.02808425 21.15116877 3.24031167 24 4 C24.639375 3.835 25.27875 3.67 25.9375 3.5 C28.5437064 2.86819239 30.42673558 3.35668389 33 4 C33 6.64 33 9.28 33 12 C32.01 11.67 31.02 11.34 30 11 C29.175 11.165 28.35 11.33 27.5 11.5 C25 12 25 12 22 11 C21.21625 11.165 20.4325 11.33 19.625 11.5 C16.74911647 12.04778734 14.81089538 11.72280167 12 11 C12 9.35 12 7.7 12 6 C11.34 6 10.68 6 10 6 C10 7.98 10 9.96 10 12 C9.01 11.67 8.02 11.34 7 11 C4.6593935 11.27769908 2.32375692 11.60539977 0 12 C0 8.04 0 4.08 0 0 Z M2 3 C2 3.66 2 4.32 2 5 C2.99 4.67 3.98 4.34 5 4 C4.01 3.67 3.02 3.34 2 3 Z M14 6 C15 9 15 9 15 9 Z M18 6 C18 6.99 18 7.98 18 9 C19.65 9 21.3 9 23 9 C23 8.34 23 7.68 23 7 C21.35 6.67 19.7 6.34 18 6 Z M25 6 C25 6.99 25 7.98 25 9 C25.99 9 26.98 9 28 9 C28 8.01 28 7.02 28 6 C27.01 6 26.02 6 25 6 Z M2 7 C2 7.66 2 8.32 2 9 C2.99 9 3.98 9 5 9 C5 8.34 5 7.68 5 7 C4.01 7 3.02 7 2 7 Z " fill="#FDFBFB" transform="translate(210,19)"/>
<path d="M0 0 C6.66666667 0 13.33333333 0 20 0 C21.2375 -0.061875 21.2375 -0.061875 22.5 -0.125 C25 0 25 0 27 2 C26.625 5.625 26.625 5.625 26 9 C22.98968256 9.93423645 22.13349732 10.04449911 19 9 C15.09251338 8.85790958 11.76638598 9.02352956 8 10 C6 9 6 9 5 7 C5 7.66 5 8.32 5 9 C3.02 9 1.04 9 -1 9 C-0.34 7.35 0.32 5.7 1 4 C0.34 3.67 -0.32 3.34 -1 3 C-0.67 2.01 -0.34 1.02 0 0 Z M9 2 C8.67 3.32 8.34 4.64 8 6 C8.99 6.495 8.99 6.495 10 7 C10 5.35 10 3.7 10 2 C9.67 2 9.34 2 9 2 Z M13 3 C13.33 3.99 13.66 4.98 14 6 C14.66 5.01 15.32 4.02 16 3 C15.01 3 14.02 3 13 3 Z M22 3 C22 4.32 22 5.64 22 7 C22.66 7 23.32 7 24 7 C24 5.68 24 4.36 24 3 C23.34 3 22.68 3 22 3 Z M18 5 C17.67 5.66 17.34 6.32 17 7 C17.66 7 18.32 7 19 7 C18.67 6.34 18.34 5.68 18 5 Z " fill="#FF9D5C" transform="translate(204,205)"/>
<path d="M0 0 C0.886875 0.185625 1.77375 0.37125 2.6875 0.5625 C5.88965669 0.98542636 7.90675408 0.75241117 11 0 C11.99 0 12.98 0 14 0 C14.80695313 -0.01160156 15.61390625 -0.02320313 16.4453125 -0.03515625 C17.32960937 -0.04417969 18.21390625 -0.05320312 19.125 -0.0625 C20.01445312 -0.07410156 20.90390625 -0.08570313 21.8203125 -0.09765625 C24 0 24 0 25 1 C25.0450286 2.66605828 25.03874921 4.33378384 25 6 C25 7.32 25 8.64 25 10 C19.06 10 13.12 10 7 10 C6.67 8.68 6.34 7.36 6 6 C5.01 6.495 5.01 6.495 4 7 C4.33 7.99 4.66 8.98 5 10 C3.02 10 1.04 10 -1 10 C-0.835 9.38125 -0.67 8.7625 -0.5 8.125 C0.07634644 6.03936614 0.07634644 6.03936614 0 4 C0 2.68 0 1.36 0 0 Z M8 3 C8 4.32 8 5.64 8 7 C8.66 7 9.32 7 10 7 C10 5.68 10 4.36 10 3 C9.34 3 8.68 3 8 3 Z M13 3 C13.33 4.32 13.66 5.64 14 7 C14.66 5.68 15.32 4.36 16 3 C15.01 3 14.02 3 13 3 Z M19 3 C18.34 4.65 17.68 6.3 17 8 C20.12197478 6.6910428 20.12197478 6.6910428 22 4 C21.01 3.67 20.02 3.34 19 3 Z " fill="#FF9D5C" transform="translate(204,261)"/>
<path d="M0 0 C15.1 0 15.1 0 19 1 C19.33 1.66 19.66 2.32 20 3 C20.66 2.01 21.32 1.02 22 0 C22.99 0 23.98 0 25 0 C26.125 7.75 26.125 7.75 25 10 C24.34 10 23.68 10 23 10 C23 9.34 23 8.68 23 8 C21.68 8 20.36 8 19 8 C19 8.66 19 9.32 19 10 C9.9 10 9.9 10 6 9 C5.67 8.34 5.34 7.68 5 7 C5 7.99 5 8.98 5 10 C3.02 10 1.04 10 -1 10 C-0.38722388 7.03824877 0.25372522 5.61941217 2 3 C1.01 3 0.02 3 -1 3 C-0.67 2.01 -0.34 1.02 0 0 Z M8 3 C8 4.32 8 5.64 8 7 C8.66 7 9.32 7 10 7 C10 5.68 10 4.36 10 3 C9.34 3 8.68 3 8 3 Z M13 3 C13.33 4.32 13.66 5.64 14 7 C14.66 5.68 15.32 4.36 16 3 C15.01 3 14.02 3 13 3 Z M18 5 C17.67 5.66 17.34 6.32 17 7 C17.66 7 18.32 7 19 7 C18.67 6.34 18.34 5.68 18 5 Z " fill="#FF9D5C" transform="translate(204,318)"/>
<path d="M0 0 C0.7425 0.37125 1.485 0.7425 2.25 1.125 C4.92882719 2.31151158 4.92882719 2.31151158 7.125 1.0625 C7.74375 0.711875 8.3625 0.36125 9 0 C9.99 0.33 10.98 0.66 12 1 C12.66 0.835 13.32 0.67 14 0.5 C16 0 16 0 19 1 C19.99 0.67 20.98 0.34 22 0 C22.66 0.33 23.32 0.66 24 1 C24.59355614 3.64860427 24.74209269 6.29197322 25 9 C22.625 10.0625 22.625 10.0625 20 11 C19.34 10.67 18.68 10.34 18 10 C13.31391741 9.80604165 13.31391741 9.80604165 8.75 10.6875 C8.1725 10.790625 7.595 10.89375 7 11 C5.25 9.5625 5.25 9.5625 4 8 C4 8.66 4 9.32 4 10 C2.02 10 0.04 10 -2 10 C-1.125 6.125 -1.125 6.125 0 5 C-0.66 4.67 -1.32 4.34 -2 4 C-1.34 2.68 -0.68 1.36 0 0 Z M8 3 C7.67 4.32 7.34 5.64 7 7 C7.99 7.495 7.99 7.495 9 8 C9 6.35 9 4.7 9 3 C8.67 3 8.34 3 8 3 Z M18 3 C17.34 4.65 16.68 6.3 16 8 C17.32 7.67 18.64 7.34 20 7 C19.67 5.68 19.34 4.36 19 3 C18.67 3 18.34 3 18 3 Z M12 4 C12.33 4.99 12.66 5.98 13 7 C13.66 6.01 14.32 5.02 15 4 C14.01 4 13.02 4 12 4 Z " fill="#FF9D5C" transform="translate(205,289)"/>
<path d="M0 0 C0.886875 0.185625 1.77375 0.37125 2.6875 0.5625 C5.88965669 0.98542636 7.90675408 0.75241117 11 0 C15 0 19 0 23 0 C23 3.3 23 6.6 23 10 C22.34 10 21.68 10 21 10 C20.67 8.02 20.34 6.04 20 4 C19.34 4.66 18.68 5.32 18 6 C18.3185177 8.10820797 18.3185177 8.10820797 19 10 C14.46527914 10 10.43908976 9.93454521 6 9 C6 8.01 6 7.02 6 6 C5.67 7.32 5.34 8.64 5 10 C3.02 10 1.04 10 -1 10 C-0.38722388 7.03824877 0.25372522 5.61941217 2 3 C1.01 3 0.02 3 -1 3 C-0.67 2.01 -0.34 1.02 0 0 Z M8 3 C8 4.32 8 5.64 8 7 C8.66 7 9.32 7 10 7 C10 5.68 10 4.36 10 3 C9.34 3 8.68 3 8 3 Z M13 3 C13.33 4.32 13.66 5.64 14 7 C14.66 5.68 15.32 4.36 16 3 C15.01 3 14.02 3 13 3 Z " fill="#FF9D5C" transform="translate(204,233)"/>
<path d="M0 0 C0.33 0.99 0.66 1.98 1 3 C1.66 3 2.32 3 3 3 C3.33 2.01 3.66 1.02 4 0 C6.375 0.1875 6.375 0.1875 9 1 C11.80420134 6.37712833 11.78265551 12.0901523 11 18 C9.66906796 20.92585061 8.57154422 21.8856192 6 24 C3.1875 24.875 3.1875 24.875 1 25 C1.33 24.34 1.66 23.68 2 23 C2.99 23 3.98 23 5 23 C5 22.34 5 21.68 5 21 C4.34 21 3.68 21 3 21 C3 20.34 3 19.68 3 19 C2.34 19 1.68 19 1 19 C0.67 19.66 0.34 20.32 0 21 C0 20.34 0 19.68 0 19 C-1.32 18.67 -2.64 18.34 -4 18 C-3.34 17.67 -2.68 17.34 -2 17 C-2 12.71 -2 8.42 -2 4 C-2.66 3.67 -3.32 3.34 -4 3 C-3.01 3 -2.02 3 -1 3 C-1 5.31 -1 7.62 -1 10 C0.98 9.67 2.96 9.34 5 9 C5.33 7.68 5.66 6.36 6 5 C3.03 4.505 3.03 4.505 0 4 C0 2.68 0 1.36 0 0 Z M-1 11 C-1 12.98 -1 14.96 -1 17 C0.32 16.34 1.64 15.68 3 15 C3.33 15.33 3.66 15.66 4 16 C4.99 16 5.98 16 7 16 C6.67 14.35 6.34 12.7 6 11 C3.69 11 1.38 11 -1 11 Z " fill="#ECDAA1" transform="translate(371,52)"/>
<path d="M0 0 C14 0 14 0 16.4375 0.5625 C19.10849914 1.22570988 19.10849914 1.22570988 22 0 C21.67 1.32 21.34 2.64 21 4 C21.66 4.33 22.32 4.66 23 5 C22.67 6.65 22.34 8.3 22 10 C19.69 10 17.38 10 15 10 C15.33 8.68 15.66 7.36 16 6 C15.34 6 14.68 6 14 6 C13.34 7.32 12.68 8.64 12 10 C11.195625 9.814375 10.39125 9.62875 9.5625 9.4375 C8.716875 9.293125 7.87125 9.14875 7 9 C6.67 9.33 6.34 9.66 6 10 C4.00041636 10.04080783 1.99954746 10.04254356 0 10 C0.875 5.125 0.875 5.125 2 4 C1.34 3.67 0.68 3.34 0 3 C0 2.01 0 1.02 0 0 Z M9 3 C9 4.32 9 5.64 9 7 C9.66 7 10.32 7 11 7 C11 5.68 11 4.36 11 3 C10.34 3 9.68 3 9 3 Z M5 5 C4.67 5.66 4.34 6.32 4 7 C4.66 7 5.32 7 6 7 C5.67 6.34 5.34 5.68 5 5 Z " fill="#FDFBFB" transform="translate(362,318)"/>
<path d="M0 0 C6.93 0 13.86 0 21 0 C20.67 1.32 20.34 2.64 20 4 C20.99 4.66 21.98 5.32 23 6 C22.67 7.32 22.34 8.64 22 10 C21.236875 9.814375 20.47375 9.62875 19.6875 9.4375 C16.91032625 8.77180827 16.91032625 8.77180827 14 10 C14.33 8.68 14.66 7.36 15 6 C11.72226496 6.75150023 11.72226496 6.75150023 10 10 C9.34 10 8.68 10 8 10 C7.67 8.68 7.34 7.36 7 6 C6.34 7.32 5.68 8.64 5 10 C3.35 9.67 1.7 9.34 0 9 C0 6.03 0 3.06 0 0 Z " fill="#FDFBFB" transform="translate(357,233)"/>
<path d="M0 0 C6.93 0 13.86 0 21 0 C20.34 1.65 19.68 3.3 19 5 C19.99 5 20.98 5 22 5 C21.67 6.65 21.34 8.3 21 10 C20.401875 9.814375 19.80375 9.62875 19.1875 9.4375 C16.83591238 8.77906313 16.83591238 8.77906313 14 10 C14.33 8.35 14.66 6.7 15 5 C14.34 5 13.68 5 13 5 C12.34 6.65 11.68 8.3 11 10 C7.04 10 3.08 10 -1 10 C0 6 0 6 2 4 C1.01 3.34 0.02 2.68 -1 2 C-0.67 1.34 -0.34 0.68 0 0 Z M9 2 C10.485 2.99 10.485 2.99 12 4 C12 3.34 12 2.68 12 2 C11.01 2 10.02 2 9 2 Z M5 4 C4.67 4.99 4.34 5.98 4 7 C4.66 7 5.32 7 6 7 C5.67 6.01 5.34 5.02 5 4 Z " fill="#FDFBFB" transform="translate(276,206)"/>
<path d="M0 0 C2.375 -0.125 2.375 -0.125 5 0 C5.66 0.66 6.32 1.32 7 2 C7.33 1.34 7.66 0.68 8 0 C8.99 0.33 9.98 0.66 11 1 C11 1.66 11 2.32 11 3 C11.66 2.01 12.32 1.02 13 0 C13.598125 0.185625 14.19625 0.37125 14.8125 0.5625 C17.16408762 1.22093687 17.16408762 1.22093687 20 0 C19.67 1.65 19.34 3.3 19 5 C19.99 5.33 20.98 5.66 22 6 C21.67 7.32 21.34 8.64 21 10 C18.36 10 15.72 10 13 10 C13.33 8.68 13.66 7.36 14 6 C13.34 5.67 12.68 5.34 12 5 C11.67 6.65 11.34 8.3 11 10 C7.04 10 3.08 10 -1 10 C0 6 0 6 1 4 C0.34 3.34 -0.32 2.68 -1 2 C-0.67 1.34 -0.34 0.68 0 0 Z M5 4 C4.67 4.99 4.34 5.98 4 7 C4.66 7 5.32 7 6 7 C5.67 6.01 5.34 5.02 5 4 Z " fill="#FDFBFB" transform="translate(276,319)"/>
<path d="M0 0 C0.9075 0.185625 1.815 0.37125 2.75 0.5625 C5.76942789 0.96896145 7.17174111 0.78020935 10 0 C10.99 0.33 11.98 0.66 13 1 C16.89459074 1.21081851 16.89459074 1.21081851 20 0 C20.66666667 3.33333333 21.33333333 6.66666667 22 10 C19.36 10 16.72 10 14 10 C13.67 8.68 13.34 7.36 13 6 C12.34 7.32 11.68 8.64 11 10 C7.04 10 3.08 10 -1 10 C0 6 0 6 1 4 C0.34 4 -0.32 4 -1 4 C-0.67 2.68 -0.34 1.36 0 0 Z M8 3 C8 4.65 8 6.3 8 8 C8.66 7.67 9.32 7.34 10 7 C9.67 5.68 9.34 4.36 9 3 C8.67 3 8.34 3 8 3 Z M4 5 C3.67 5.99 3.34 6.98 3 8 C3.66 8 4.32 8 5 8 C4.67 7.01 4.34 6.02 4 5 Z " fill="#FDFBFB" transform="translate(363,91)"/>
<path d="M0 0 C0.99 0 1.98 0 3 0 C3 1.32 3 2.64 3 4 C3.598125 3.814375 4.19625 3.62875 4.8125 3.4375 C7 3 7 3 10 4 C10.66 3.835 11.32 3.67 12 3.5 C14 3 14 3 17 4 C17 3.34 17 2.68 17 2 C17.99 2 18.98 2 20 2 C21 8.625 21 8.625 21 12 C19.68 11.34 18.36 10.68 17 10 C17 8.68 17 7.36 17 6 C16.67 7.65 16.34 9.3 16 11 C10.60902318 12.13494249 5.48452296 12.07411518 0 12 C0 8.04 0 4.08 0 0 Z " fill="#FDFBFB" transform="translate(374,19)"/>
<path d="M0 0 C0.99 0 1.98 0 3 0 C3 1.98 3 3.96 3 6 C3.66 6 4.32 6 5 6 C4.67 4.02 4.34 2.04 4 0 C9.94 0 15.88 0 22 0 C22.33 2.64 22.66 5.28 23 8 C22.34 8.66 21.68 9.32 21 10 C18.875 9.625 18.875 9.625 17 9 C16.67 7.68 16.34 6.36 16 5 C15.67 5.825 15.34 6.65 15 7.5 C14.34 8.325 13.68 9.15 13 10 C10.1165291 10.2288469 7.82188833 10.24373316 5 10 C3.68 10 2.36 10 1 10 C1 7.69 1 5.38 1 3 C0.34 3 -0.32 3 -1 3 C-0.67 2.01 -0.34 1.02 0 0 Z M10 2 C9.67 2.99 9.34 3.98 9 5 C9.99 6.485 9.99 6.485 11 8 C11.66 6.02 12.32 4.04 13 2 C12.01 2 11.02 2 10 2 Z M19 5 C20 7 20 7 20 7 Z " fill="#FDFBFB" transform="translate(358,120)"/>
<path d="M0 0 C0.99 -0.33 1.98 -0.66 3 -1 C6 -1 6 -1 8 0 C7.67 1.32 7.34 2.64 7 4 C7.99 4.33 8.98 4.66 10 5 C9.67 6.32 9.34 7.64 9 9 C7.68 9 6.36 9 5 9 C4.01 9.33 3.02 9.66 2 10 C1 8 1 8 1 5 C-0.485 7.475 -0.485 7.475 -2 10 C-4.64 9.67 -7.28 9.34 -10 9 C-10.66 6.36 -11.32 3.72 -12 1 C-11.236875 0.855625 -10.47375 0.71125 -9.6875 0.5625 C-3.18987342 -0.79746835 -3.18987342 -0.79746835 0 0 Z " fill="#FDFBFB" transform="translate(287,178)"/>
<path d="M0 0 C13 0 13 0 15.4375 0.5625 C18.10849914 1.22570988 18.10849914 1.22570988 21 0 C20.67 1.32 20.34 2.64 20 4 C20.66 4.33 21.32 4.66 22 5 C22 6.65 22 8.3 22 10 C19.36 10 16.72 10 14 10 C14.33 8.68 14.66 7.36 15 6 C14.34 6 13.68 6 13 6 C12.67 7.32 12.34 8.64 12 10 C10.35 10 8.7 10 7 10 C7 6 7 6 8 4 C7.34 4 6.68 4 6 4 C5.01 5.98 4.02 7.96 3 10 C2.01 9.67 1.02 9.34 0 9 C0.66 7.35 1.32 5.7 2 4 C1.34 3.67 0.68 3.34 0 3 C0 2.01 0 1.02 0 0 Z " fill="#FDFBFB" transform="translate(362,148)"/>
<path d="M0 0 C0.80566406 0.00322266 1.61132812 0.00644531 2.44140625 0.00976562 C3.70404297 0.02233398 3.70404297 0.02233398 4.9921875 0.03515625 C5.84167969 0.03966797 6.69117188 0.04417969 7.56640625 0.04882812 C9.66669659 0.06062751 11.7669508 0.07856319 13.8671875 0.09765625 C13.5371875 1.41765625 13.2071875 2.73765625 12.8671875 4.09765625 C13.8571875 4.75765625 14.8471875 5.41765625 15.8671875 6.09765625 C15.5371875 7.41765625 15.2071875 8.73765625 14.8671875 10.09765625 C14.1040625 9.91203125 13.3409375 9.72640625 12.5546875 9.53515625 C9.77751375 8.86946452 9.77751375 8.86946452 6.8671875 10.09765625 C7.1971875 8.77765625 7.5271875 7.45765625 7.8671875 6.09765625 C7.2071875 5.76765625 6.5471875 5.43765625 5.8671875 5.09765625 C5.5371875 6.74765625 5.2071875 8.39765625 4.8671875 10.09765625 C4.1246875 9.91203125 3.3821875 9.72640625 2.6171875 9.53515625 C-0.36122166 8.87712914 -0.36122166 8.87712914 -4.1328125 10.09765625 C-4.7928125 7.12765625 -5.4528125 4.15765625 -6.1328125 1.09765625 C-3.8362755 -0.05061225 -2.54968083 -0.0179555 0 0 Z M-1.1328125 3.09765625 C-0.8028125 4.41765625 -0.4728125 5.73765625 -0.1328125 7.09765625 C0.1971875 5.77765625 0.5271875 4.45765625 0.8671875 3.09765625 C0.2071875 3.09765625 -0.4528125 3.09765625 -1.1328125 3.09765625 Z M4.8671875 3.09765625 C5.8671875 5.09765625 5.8671875 5.09765625 5.8671875 5.09765625 Z " fill="#FDFBFB" transform="translate(281.1328125,120.90234375)"/>
<path d="M0 0 C1.33841672 0.31229724 2.67139075 0.64830932 4 1 C4.99 1 5.98 1 7 1 C7 2.32 7 3.64 7 5 C7.30404678 6.67225729 7.63128912 8.34080104 8 10 C4 10 4 10 2 9 C1.67 9.66 1.34 10.32 1 11 C0.67 10.01 0.34 9.02 0 8 C0.33 7.34 0.66 6.68 1 6 C-0.32 5.67 -1.64 5.34 -3 5 C-3.66 6.98 -4.32 8.96 -5 11 C-5.66 10.67 -6.32 10.34 -7 10 C-6.125 5.25 -6.125 5.25 -5 3 C-6.32 3.33 -7.64 3.66 -9 4 C-8.67 4.33 -8.34 4.66 -8 5 C-7.95936168 6.66617115 -7.957279 8.33388095 -8 10 C-11.75 11.125 -11.75 11.125 -14 10 C-14 7.03 -14 4.06 -14 1 C-13.07316406 1.01160156 -12.14632813 1.02320313 -11.19140625 1.03515625 C-9.39509766 1.04869141 -9.39509766 1.04869141 -7.5625 1.0625 C-5.77005859 1.07990234 -5.77005859 1.07990234 -3.94140625 1.09765625 C-1.11126659 1.33901792 -1.11126659 1.33901792 0 0 Z " fill="#FDFBFB" transform="translate(376,289)"/>
<path d="M0 0 C0.33 0.66 0.66 1.32 1 2 C0.34 2.66 -0.32 3.32 -1 4 C-0.01 5.32 0.98 6.64 2 8 C1.01 8.33 0.02 8.66 -1 9 C-1.33 9.66 -1.66 10.32 -2 11 C-2.99 11.33 -3.98 11.66 -5 12 C-2.03 12.495 -2.03 12.495 1 13 C0.67 14.65 0.34 16.3 0 18 C-1.98 18 -3.96 18 -6 18 C-6 15.69 -6 13.38 -6 11 C-6.99 11 -7.98 11 -9 11 C-9 10.01 -9 9.02 -9 8 C-11.16874252 8.50603992 -12.99967627 8.99983813 -15 10 C-14.690625 9.236875 -14.38125 8.47375 -14.0625 7.6875 C-13.32106407 5.81210323 -12.63771783 3.91315348 -12 2 C-8.02584132 -0.22085338 -4.4785979 -0.17563129 0 0 Z " fill="#DCBE7D" transform="translate(376,44)"/>
<path d="M0 0 C1.32 0 2.64 0 4 0 C4.66 0.33 5.32 0.66 6 1 C6.33 0.34 6.66 -0.32 7 -1 C7.33 -0.01 7.66 0.98 8 2 C7.67 2.66 7.34 3.32 7 4 C7.66 4 8.32 4 9 4 C9.33 5.32 9.66 6.64 10 8 C6.846632 8.70074844 4.27275026 9 1 9 C0.67 7.68 0.34 6.36 0 5 C-0.33 6.32 -0.66 7.64 -1 9 C-3.97 9 -6.94 9 -10 9 C-10.66 6.36 -11.32 3.72 -12 1 C-10.824375 0.7834375 -10.824375 0.7834375 -9.625 0.5625 C-3.5 -0.75 -3.5 -0.75 0 0 Z M-7 2 C-7 3.32 -7 4.64 -7 6 C-6.01 5.67 -5.02 5.34 -4 5 C-4.99 4.01 -5.98 3.02 -7 2 Z " fill="#FDFBFB" transform="translate(287,263)"/>
<path d="M0 0 C0.99 -0.33 1.98 -0.66 3 -1 C3.99 -0.67 4.98 -0.34 6 0 C6 2.64 6 5.28 6 8 C1.25 8.125 1.25 8.125 -1 7 C-1.804375 7.20625 -2.60875 7.4125 -3.4375 7.625 C-4.7059375 7.810625 -4.7059375 7.810625 -6 8 C-7.8125 6.5625 -7.8125 6.5625 -9 5 C-9.99 6.98 -10.98 8.96 -12 11 C-12.66 11 -13.32 11 -14 11 C-13.979375 10.113125 -13.95875 9.22625 -13.9375 8.3125 C-13.99286219 5.37830369 -14.3305734 2.84506304 -15 0 C-14.46375 0.20625 -13.9275 0.4125 -13.375 0.625 C-10.86851184 1.20980297 -10.86851184 1.20980297 -8.0625 0 C-4.73608775 -1.08617543 -3.31391027 -0.80608628 0 0 Z M-1 2 C-0.67 2.66 -0.34 3.32 0 4 C0.33 3.34 0.66 2.68 1 2 C0.34 2 -0.32 2 -1 2 Z " fill="#FDFBFB" transform="translate(424,23)"/>
<path d="M0 0 C2.682811 0.52347532 3.98338754 0.18776332 6.5625 -0.5 C7.5525 -0.17 8.5425 0.16 9.5625 0.5 C10.5525 0.2215625 10.5525 0.2215625 11.5625 -0.0625 C12.2225 -0.206875 12.8825 -0.35125 13.5625 -0.5 C14.5525 0.16 15.5425 0.82 16.5625 1.5 C16.875 4 16.875 4 16.5625 6.5 C15.9025 7.16 15.2425 7.82 14.5625 8.5 C12.55900739 8.18834559 10.55923484 7.85236497 8.5625 7.5 C6.88595271 7.77942455 5.21641846 8.10828247 3.5625 8.5 C2.2425 8.5 0.9225 8.5 -0.4375 8.5 C-0.4375 6.52 -0.4375 4.54 -0.4375 2.5 C-1.4275 2.995 -1.4275 2.995 -2.4375 3.5 C-3.09305119 6.02733235 -3.09305119 6.02733235 -3.4375 8.5 C-4.0975 8.5 -4.7575 8.5 -5.4375 8.5 C-5.4375 5.86 -5.4375 3.22 -5.4375 0.5 C-2.4375 -0.5 -2.4375 -0.5 0 0 Z M4.5625 2.5 C4.5625 3.49 4.5625 4.48 4.5625 5.5 C5.8825 4.84 7.2025 4.18 8.5625 3.5 C7.2425 3.17 5.9225 2.84 4.5625 2.5 Z " fill="#FDFBFB" transform="translate(317.4375,22.5)"/>
<path d="M0 0 C0.886875 0.185625 1.77375 0.37125 2.6875 0.5625 C5.88965669 0.98542636 7.90675408 0.75241117 11 0 C13 0 15 0 17 0 C17 3.3 17 6.6 17 10 C16.34 10 15.68 10 15 10 C15 8.02 15 6.04 15 4 C14.34 4 13.68 4 13 4 C12.67 5.65 12.34 7.3 12 9 C10.35 9.33 8.7 9.66 7 10 C6.67 8.68 6.34 7.36 6 6 C5.67 7.32 5.34 8.64 5 10 C3.02 10 1.04 10 -1 10 C-0.835 9.38125 -0.67 8.7625 -0.5 8.125 C0.07634644 6.03936614 0.07634644 6.03936614 0 4 C0 2.68 0 1.36 0 0 Z M8 3 C8 4.32 8 5.64 8 7 C8.66 7 9.32 7 10 7 C10 5.68 10 4.36 10 3 C9.34 3 8.68 3 8 3 Z " fill="#FF9D5C" transform="translate(204,148)"/>
<path d="M0 0 C0.66 0 1.32 0 2 0 C2.33 0.99 2.66 1.98 3 3 C6.55156755 3.89892838 6.55156755 3.89892838 10.125 3.4375 C10.74375 3.293125 11.3625 3.14875 12 3 C12.99 3.66 13.98 4.32 15 5 C15.3125 7.5 15.3125 7.5 15 10 C14.34 10.66 13.68 11.32 13 12 C11.32706064 11.69972883 9.66014616 11.36442233 8 11 C7.01 11.33 6.02 11.66 5 12 C5 10.02 5 8.04 5 6 C4.01 6.495 4.01 6.495 3 7 C2.34444881 9.52733235 2.34444881 9.52733235 2 12 C0.35 12 -1.3 12 -3 12 C-5.42857143 5.71428571 -5.42857143 5.71428571 -4 2 C-3.34 2 -2.68 2 -2 2 C-2 2.66 -2 3.32 -2 4 C-1.34 4 -0.68 4 0 4 C0 2.68 0 1.36 0 0 Z M-2 6 C-2 6.99 -2 7.98 -2 9 C-1.34 9 -0.68 9 0 9 C0 8.01 0 7.02 0 6 C-0.66 6 -1.32 6 -2 6 Z " fill="#FDFBFB" transform="translate(356,19)"/>
<path d="M0 0 C5.66666667 0 11.33333333 0 17 0 C17 3.3 17 6.6 17 10 C16.34 10 15.68 10 15 10 C15 7.69 15 5.38 15 3 C14.34 3 13.68 3 13 3 C13.061875 4.175625 13.061875 4.175625 13.125 5.375 C13 8 13 8 11 10 C8.4375 9.75 8.4375 9.75 6 9 C5.67 8.34 5.34 7.68 5 7 C5 7.99 5 8.98 5 10 C3.02 10 1.04 10 -1 10 C-0.49396008 7.83125748 -0.00016187 6.00032373 1 4 C0.34 3.67 -0.32 3.34 -1 3 C-0.67 2.01 -0.34 1.02 0 0 Z M9 2 C8.67 3.32 8.34 4.64 8 6 C8.99 6.495 8.99 6.495 10 7 C10 5.35 10 3.7 10 2 C9.67 2 9.34 2 9 2 Z " fill="#FF9D5C" transform="translate(204,120)"/>
<path d="M0 0 C4.62 0 9.24 0 14 0 C14.74955438 2.9982175 15.41070989 5.96936513 16 9 C13.50935112 9.68707555 11.62113708 10 9 10 C8.34 9.34 7.68 8.68 7 8 C7 7.01 7 6.02 7 5 C6.67 6.32 6.34 7.64 6 9 C3.625 9.625 3.625 9.625 1 10 C0.34 9.34 -0.32 8.68 -1 8 C-0.96712417 5.27130593 -0.43602229 2.7033382 0 0 Z " fill="#FDFBFB" transform="translate(276,93)"/>
<path d="M0 0 C2.91735332 0.54276341 4.82141268 0.11969455 7.6875 -0.5 C8.3475 -0.17 9.0075 0.16 9.6875 0.5 C11.0075 0.17 12.3275 -0.16 13.6875 -0.5 C13.6875 2.8 13.6875 6.1 13.6875 9.5 C13.0275 9.5 12.3675 9.5 11.6875 9.5 C11.6875 7.52 11.6875 5.54 11.6875 3.5 C11.0275 3.5 10.3675 3.5 9.6875 3.5 C9.3575 5.48 9.0275 7.46 8.6875 9.5 C7.0375 9.5 5.3875 9.5 3.6875 9.5 C3.3575 8.18 3.0275 6.86 2.6875 5.5 C1.6975 5.995 1.6975 5.995 0.6875 6.5 C1.0175 7.49 1.3475 8.48 1.6875 9.5 C-0.2925 9.5 -2.2725 9.5 -4.3125 9.5 C-4.1475 8.88125 -3.9825 8.2625 -3.8125 7.625 C-3.10665848 4.62517354 -3.30937437 3.5093769 -4.3125 0.5 C-2.3125 -0.5 -2.3125 -0.5 0 0 Z M5.6875 2.5 C5.3575 3.82 5.0275 5.14 4.6875 6.5 C5.6775 6.995 5.6775 6.995 6.6875 7.5 C6.6875 5.85 6.6875 4.2 6.6875 2.5 C6.3575 2.5 6.0275 2.5 5.6875 2.5 Z " fill="#FF9D5C" transform="translate(207.3125,176.5)"/>
<path d="M0 0 C0.99647471 2.98942412 1.01894921 4.65989036 0.875 7.75 C0.831916 12.65439527 1.48260472 15.77437221 4 20 C5.98775876 20.97733657 5.98775876 20.97733657 8 21 C8.66 21.33 9.32 21.66 10 22 C10 21.34 10 20.68 10 20 C10.99 19.67 11.98 19.34 13 19 C13 19.66 13 20.32 13 21 C13.99 21.33 14.98 21.66 16 22 C15.67 22.66 15.34 23.32 15 24 C17.64 24 20.28 24 23 24 C22 27 22 27 20 28 C14.90704871 28.83473683 11.02897839 28.50179282 6.75 25.5 C2.19717637 21.60278298 -1.49987445 17.49561437 -2.37109375 11.40625 C-2.48146504 6.99139828 -2.21671114 3.8814701 0 0 Z " fill="#CCAE70" transform="translate(355,54)"/>
<path d="M0 0 C0.7425 0.185625 1.485 0.37125 2.25 0.5625 C4.87097652 1.17039473 4.87097652 1.17039473 6.875 0.5 C10.03278574 -0.24300841 12.83930758 0.45295708 16 1 C16 3.97 16 6.94 16 10 C15.34 10 14.68 10 14 10 C14 8.02 14 6.04 14 4 C13.34 4 12.68 4 12 4 C11.67 5.98 11.34 7.96 11 10 C8.625 10.125 8.625 10.125 6 10 C5.34 9.34 4.68 8.68 4 8 C4 8.66 4 9.32 4 10 C2.02 10 0.04 10 -2 10 C-1.125 6.125 -1.125 6.125 0 5 C-0.66 4.67 -1.32 4.34 -2 4 C-1.34 2.68 -0.68 1.36 0 0 Z M8 3 C7.67 4.32 7.34 5.64 7 7 C7.99 7.495 7.99 7.495 9 8 C9 6.35 9 4.7 9 3 C8.67 3 8.34 3 8 3 Z " fill="#FF9D5C" transform="translate(205,91)"/>
<path d="M0 0 C2.93042859 0.47704651 5.80959939 0.95129287 8.6875 1.6875 C11.27191143 2.29620858 11.27191143 2.29620858 14 0 C13.67 1.65 13.34 3.3 13 5 C13.99 4.34 14.98 3.68 16 3 C16.66 3.33 17.32 3.66 18 4 C17.34 6.31 16.68 8.62 16 11 C12.72520421 12.04769518 11.32916541 12.13815174 8.10546875 10.78515625 C7.14253906 10.21667969 6.17960937 9.64820312 5.1875 9.0625 C4.21167969 8.49660156 3.23585938 7.93070312 2.23046875 7.34765625 C1.49441406 6.90292969 0.75835937 6.45820312 0 6 C0 4.02 0 2.04 0 0 Z " fill="#F4CD69" transform="translate(275,70)"/>
<path d="M0 0 C4.33333333 0 8.66666667 0 13 0 C12.67 1.65 12.34 3.3 12 5 C12.99 5.33 13.98 5.66 15 6 C14.67 7.32 14.34 8.64 14 10 C11.36 10 8.72 10 6 10 C6.33 8.68 6.66 7.36 7 6 C6.34 5.67 5.68 5.34 5 5 C4.67 6.65 4.34 8.3 4 10 C2.35 10 0.7 10 -1 10 C-2.34726118 5.95821645 -1.32004573 3.96013719 0 0 Z " fill="#FDFBFB" transform="translate(282,234)"/>
<path d="M0 0 C4.95 0 9.9 0 15 0 C16 5 16 5 16 9 C14.68 9 13.36 9 12 9 C11.01 9.33 10.02 9.66 9 10 C9 8.68 9 7.36 9 6 C8.01 5.67 7.02 5.34 6 5 C4.515 7.475 4.515 7.475 3 10 C2.34 9.67 1.68 9.34 1 9 C1.66 7.02 2.32 5.04 3 3 C2.01 2.67 1.02 2.34 0 2 C0 1.34 0 0.68 0 0 Z " fill="#FDFBFB" transform="translate(275,291)"/>
<path d="M0 0 C1.32 0 2.64 0 4 0 C3.67 1.65 3.34 3.3 3 5 C3.99 5.33 4.98 5.66 6 6 C5.67 7.32 5.34 8.64 5 10 C2.36 10 -0.28 10 -3 10 C-2.67 8.68 -2.34 7.36 -2 6 C-2.66 5.67 -3.32 5.34 -4 5 C-4 6.65 -4 8.3 -4 10 C-4.99 10 -5.98 10 -7 10 C-7.66 7.03 -8.32 4.06 -9 1 C-6.03325429 -0.48337286 -3.28247334 -0.05659437 0 0 Z " fill="#FDFBFB" transform="translate(289,149)"/>
<path d="M0 0 C0.66 0.33 1.32 0.66 2 1 C2.33 1.99 2.66 2.98 3 4 C3.928125 3.01 3.928125 3.01 4.875 2 C7 0 7 0 9 0 C10.125 7.75 10.125 7.75 9 10 C8.34 10 7.68 10 7 10 C7 9.34 7 8.68 7 8 C5.68 8 4.36 8 3 8 C3 8.66 3 9.32 3 10 C1.35 10 -0.3 10 -2 10 C-2.33 9.01 -2.66 8.02 -3 7 C-4.65 7 -6.3 7 -8 7 C-8 6.01 -8 5.02 -8 4 C-6.02 4 -4.04 4 -2 4 C-1.34 2.68 -0.68 1.36 0 0 Z " fill="#FDFBFB" transform="translate(365,261)"/>
<path d="M0 0 C4.57659323 3.66127458 7.26947419 8.29483489 8.5 14 C8.5 19.62945857 7.46292708 24.14079958 4.5 29 C3.84 29.66 3.18 30.32 2.5 31 C1.51 31 0.52 31 -0.5 31 C-0.231875 30.484375 0.03625 29.96875 0.3125 29.4375 C0.704375 28.633125 1.09625 27.82875 1.5 27 C2.03625 25.9275 2.5725 24.855 3.125 23.75 C4.89364416 18.92642502 5.52802903 15.01065644 3.84375 10.078125 C1.43503395 5.21916331 -1.68295111 3.31588889 -6.5 1 C-3.8744543 -0.84760623 -3.05487039 -1.22194816 0 0 Z " fill="#F1E5B2" transform="translate(379.5,46)"/>
<path d="M0 0 C2.5 0.3125 2.5 0.3125 5 1 C5.33 1.66 5.66 2.32 6 3 C6.66 2.01 7.32 1.02 8 0 C8.99 0 9.98 0 11 0 C11.33 2.97 11.66 5.94 12 9 C8 10 8 10 5.75 9.0625 C5.1725 8.711875 4.595 8.36125 4 8 C3.67 8.66 3.34 9.32 3 10 C2.01 10 1.02 10 0 10 C-0.19412181 8.52168779 -0.38012131 7.04230684 -0.5625 5.5625 C-0.66691406 4.73878906 -0.77132813 3.91507813 -0.87890625 3.06640625 C-0.91886719 2.38449219 -0.95882813 1.70257813 -1 1 C-0.67 0.67 -0.34 0.34 0 0 Z " fill="#FDFBFB" transform="translate(358,176)"/>
<path d="M0 0 C0 2.31 0 4.62 0 7 C-1.8125 7.6875 -1.8125 7.6875 -4 8 C-5.75 6.5625 -5.75 6.5625 -7 5 C-7.33 5.99 -7.66 6.98 -8 8 C-8.99 8 -9.98 8 -11 8 C-11.99 5.36 -12.98 2.72 -14 0 C-13.278125 0.20625 -12.55625 0.4125 -11.8125 0.625 C-7.24323429 1.23423543 -4.57050953 -1.69278131 0 0 Z " fill="#FDFBFB" transform="translate(206,23)"/>
<path d="M0 0 C0.61875 0.165 1.2375 0.33 1.875 0.5 C4.16786836 1.23577017 4.16786836 1.23577017 7 0 C6.67 1.65 6.34 3.3 6 5 C6.99 5.33 7.98 5.66 9 6 C8.67 7.32 8.34 8.64 8 10 C5.36 10 2.72 10 0 10 C0 8.68 0 7.36 0 6 C-0.185625 5.113125 -0.37125 4.22625 -0.5625 3.3125 C-0.706875 2.549375 -0.85125 1.78625 -1 1 C-0.67 0.67 -0.34 0.34 0 0 Z " fill="#FDFBFB" transform="translate(371,176)"/>
<path d="M0 0 C0 2.64 0 5.28 0 8 C-0.66 8 -1.32 8 -2 8 C-2 6.02 -2 4.04 -2 2 C-2.66 2 -3.32 2 -4 2 C-4 3.98 -4 5.96 -4 8 C-5.98 8 -7.96 8 -10 8 C-10 5.36 -10 2.72 -10 0 C-3.375 -1.125 -3.375 -1.125 0 0 Z " fill="#FDFBFB" transform="translate(347,23)"/>
<path d="M0 0 C1.1446875 0.2475 1.1446875 0.2475 2.3125 0.5 C5.03596236 1.09145396 5.03596236 1.09145396 8 1 C7.67 1.99 7.34 2.98 7 4 C7.66 4.33 8.32 4.66 9 5 C9 6.65 9 8.3 9 10 C6.36 10 3.72 10 1 10 C0.855625 9.236875 0.71125 8.47375 0.5625 7.6875 C0.0367406 4.91827092 0.0367406 4.91827092 -1 2 C-0.67 1.34 -0.34 0.68 0 0 Z " fill="#FDFBFB" transform="translate(376,261)"/>
<path d="M0 0 C2.64 0 5.28 0 8 0 C8.33 2.97 8.66 5.94 9 9 C5.29847322 9.92538169 4.36541838 10.08174162 1 9 C1.33 8.01 1.66 7.02 2 6 C1.34 5.67 0.68 5.34 0 5 C0 3.35 0 1.7 0 0 Z " fill="#FDFBFB" transform="translate(381,120)"/>
<path d="M0 0 C0.93065133 2.60582371 1.14917407 3.64198224 0.0625 6.25 C-0.288125 6.8275 -0.63875 7.405 -1 8 C-2.875 7.75 -2.875 7.75 -5 7 C-6.25 4.9375 -6.25 4.9375 -7 3 C-7.33 4.65 -7.66 6.3 -8 8 C-8.66 8 -9.32 8 -10 8 C-10 5.36 -10 2.72 -10 0 C-6.30581799 -1.231394 -3.7943739 -0.64432764 0 0 Z " fill="#FDFBFB" transform="translate(441,23)"/>
<path d="M0 0 C0.33 1.32 0.66 2.64 1 4 C3.12364481 4.22609337 3.12364481 4.22609337 4.625 2.5 C5.07875 2.005 5.5325 1.51 6 1 C6.8125 2.625 6.8125 2.625 7 5 C3.26168224 10.60747664 3.26168224 10.60747664 -0.8125 11.875 C-1.534375 11.91625 -2.25625 11.9575 -3 12 C-2.67 11.34 -2.34 10.68 -2 10 C-1.01 10 -0.02 10 1 10 C1 9.34 1 8.68 1 8 C0.34 8 -0.32 8 -1 8 C-1 7.34 -1 6.68 -1 6 C-1.66 6 -2.32 6 -3 6 C-3.33 6.66 -3.66 7.32 -4 8 C-4 7.34 -4 6.68 -4 6 C-5.32 5.67 -6.64 5.34 -8 5 C-7.05125 4.54625 -6.1025 4.0925 -5.125 3.625 C-1.99686321 2.19761746 -1.99686321 2.19761746 0 0 Z " fill="#E5CC8B" transform="translate(375,65)"/>
<path d="M0 0 C0.66 0 1.32 0 2 0 C2 0.66 2 1.32 2 2 C2.66 2 3.32 2 4 2 C4 3.65 4 5.3 4 7 C6.97 7.495 6.97 7.495 10 8 C9.67 9.65 9.34 11.3 9 13 C7.02 13 5.04 13 3 13 C3 10.69 3 8.38 3 6 C2.01 6 1.02 6 0 6 C0 5.01 0 4.02 0 3 C-0.66 2.67 -1.32 2.34 -2 2 C-1.34 1.34 -0.68 0.68 0 0 Z " fill="#CDA871" transform="translate(367,49)"/>
<path d="M0 0 C1 2 1 2 0.375 4.6875 C-2.58874679 11.82743545 -7.55883209 17.70588806 -14 22 C-12.59290322 17.98904888 -10.67407059 14.95324484 -8.125 11.5625 C-5.30470417 7.76792016 -2.57239462 3.96577503 0 0 Z " fill="#EAE6B3" transform="translate(305,57)"/>
<path d="M0 0 C1.67542976 0.28604898 3.34385343 0.61781233 5 1 C5 3.64 5 6.28 5 9 C3.34385343 9.38218767 1.67542976 9.71395102 0 10 C-1 9 -1 9 -1.1328125 7.1875 C-1.13023437 6.465625 -1.12765625 5.74375 -1.125 5 C-1.12757813 4.278125 -1.13015625 3.55625 -1.1328125 2.8125 C-1 1 -1 1 0 0 Z " fill="#FF9D5C" transform="translate(223,148)"/>
<path d="M0 0 C0.66 0 1.32 0 2 0 C2.33 4.62 2.66 9.24 3 14 C2.01 13.67 1.02 13.34 0 13 C0 8.71 0 4.42 0 0 Z M3 7 C5.31 7 7.62 7 10 7 C10.33 8.65 10.66 10.3 11 12 C10.01 12 9.02 12 8 12 C7.67 11.67 7.34 11.34 7 11 C5.02 11.99 5.02 11.99 3 13 C3 11.02 3 9.04 3 7 Z " fill="#C99F67" transform="translate(367,56)"/>
<path d="M0 0 C0.66 0 1.32 0 2 0 C3.07957377 3.23872132 3.13326784 5.66028205 3.125 9.0625 C3.12757813 10.12597656 3.13015625 11.18945312 3.1328125 12.28515625 C3 15 3 15 2 17 C2.99 17 3.98 17 5 17 C5 17.99 5 18.98 5 20 C3.02 19.67 1.04 19.34 -1 19 C-1 17.68 -1 16.36 -1 15 C-0.34 15 0.32 15 1 15 C1 11.04 1 7.08 1 3 C0.34 3 -0.32 3 -1 3 C-0.67 2.01 -0.34 1.02 0 0 Z " fill="#C28545" transform="translate(365,54)"/>
<path d="M0 0 C1.32 0.66 2.64 1.32 4 2 C3.67 3.65 3.34 5.3 3 7 C2.67 7 2.34 7 2 7 C1.67 9.31 1.34 11.62 1 14 C0.01 13.67 -0.98 13.34 -2 13 C-2.05416188 11.39620659 -2.09286638 9.79188594 -2.125 8.1875 C-2.14820313 7.29417969 -2.17140625 6.40085937 -2.1953125 5.48046875 C-2 3 -2 3 0 0 Z " fill="#E9D398" transform="translate(357,54)"/>
<path d="M0 0 C2.625 0.375 2.625 0.375 5 1 C5.75 2.625 5.75 2.625 6 5 C4.0625 8.25 4.0625 8.25 2 11 C1.34 10.67 0.68 10.34 0 10 C-0.5625 8.1875 -0.5625 8.1875 -1 6 C-1.226875 5.29875 -1.45375 4.5975 -1.6875 3.875 C-1.790625 3.25625 -1.89375 2.6375 -2 2 C-1.34 1.34 -0.68 0.68 0 0 Z M1 2 C1.33 2.99 1.66 3.98 2 5 C2.33 4.01 2.66 3.02 3 2 C2.34 2 1.68 2 1 2 Z " fill="#FDFBFB" transform="translate(400,20)"/>
<path d="M0 0 C1.00135636 3.00406907 0.99234777 4.59120188 0.8125 7.6875 C0.73130007 14.64024399 3.60828878 19.72994654 8 25 C3.56583101 23.25800504 1.28944164 20.16735936 -1.1015625 16.1484375 C-2.15689329 13.62482039 -2.26663614 11.72832699 -2.25 9 C-2.25515625 8.154375 -2.2603125 7.30875 -2.265625 6.4375 C-1.98531155 3.86521189 -1.2948187 2.2196892 0 0 Z " fill="#684F34" transform="translate(355,54)"/>
<path d="M0 0 C1.67542976 0.28604898 3.34385343 0.61781233 5 1 C5.25 6.625 5.25 6.625 3 10 C2.01 10 1.02 10 0 10 C-0.19412181 8.52168779 -0.38012131 7.04230684 -0.5625 5.5625 C-0.66691406 4.73878906 -0.77132812 3.91507813 -0.87890625 3.06640625 C-0.91886719 2.38449219 -0.95882812 1.70257813 -1 1 C-0.67 0.67 -0.34 0.34 0 0 Z " fill="#FF9D5C" transform="translate(223,176)"/>
<path d="M0 0 C4.26672384 0.47408043 6.2455048 2.88307122 9 6 C11.71496189 9.74923308 11.28798729 13.53619703 11 18 C10.34 18.66 9.68 19.32 9 20 C8.98582031 19.443125 8.97164063 18.88625 8.95703125 18.3125 C8.47476708 10.59627324 5.56820507 5.30770425 0 0 Z " fill="#B5662E" transform="translate(374,48)"/>
<path d="M0 0 C0.66 0.33 1.32 0.66 2 1 C2.4140625 3.06640625 2.4140625 3.06640625 2.625 5.5625 C2.69976562 6.38878906 2.77453125 7.21507813 2.8515625 8.06640625 C2.90054688 8.70449219 2.94953125 9.34257813 3 10 C1.33388095 10.042721 -0.33382885 10.04063832 -2 10 C-2.33 9.67 -2.66 9.34 -3 9 C-2.4 2.4 -2.4 2.4 0 0 Z M0 6 C1 8 1 8 1 8 Z " fill="#FF9D5C" transform="translate(225,91)"/>
<path d="M0 0 C5.57667864 0.77814121 10.2013271 1.60153664 14 6 C13 8 13 8 11.0625 8.6875 C9 9 9 9 7 8 C7.33 6.68 7.66 5.36 8 4 C5.36 3.34 2.72 2.68 0 2 C0 1.34 0 0.68 0 0 Z " fill="#E0C076" transform="translate(293,47)"/>
<path d="M0 0 C0.66 0 1.32 0 2 0 C1.46060633 6.25696656 0.63698228 11.36301772 -4 16 C-4.99 16 -5.98 16 -7 16 C-6.731875 15.484375 -6.46375 14.96875 -6.1875 14.4375 C-4.67650593 11.33598585 -3.34427274 8.17737194 -2 5 C-1.67 5 -1.34 5 -1 5 C-0.67 3.35 -0.34 1.7 0 0 Z " fill="#EAD7A0" transform="translate(386,61)"/>
<path d="M0 0 C0.33 0 0.66 0 1 0 C1.49644634 2.73045487 1.36417913 4.43963009 -0.16015625 6.78515625 C-3.07374036 10.29487011 -5.86898607 12.93449303 -10 15 C-8.37879192 11.43503982 -6.2405574 8.40991178 -3.9375 5.25 C-3.22464844 4.26515625 -2.51179688 3.2803125 -1.77734375 2.265625 C-1.19082031 1.51796875 -0.60429687 0.7703125 0 0 Z " fill="#D2A44C" transform="translate(299,55)"/>
<path d="M0 0 C0.33 0 0.66 0 1 0 C1.125 2.875 1.125 2.875 1 6 C-1.38307475 8.38307475 -2.75404497 8.43195787 -6 9 C-6.99 9.495 -6.99 9.495 -8 10 C-7.08809093 6.2694629 -6.63450169 4.44879388 -3.4375 2.1875 C-2.633125 1.795625 -1.82875 1.40375 -1 1 C-0.67 0.67 -0.34 0.34 0 0 Z " fill="#F2CB6B" transform="translate(295,66)"/>
<path d="M0 0 C0.598125 0.350625 1.19625 0.70125 1.8125 1.0625 C1.8125 3.3725 1.8125 5.6825 1.8125 8.0625 C1.1525 8.0625 0.4925 8.0625 -0.1875 8.0625 C-0.31125 7.258125 -0.435 6.45375 -0.5625 5.625 C-0.76875 4.779375 -0.975 3.93375 -1.1875 3.0625 C-1.8475 2.7325 -2.5075 2.4025 -3.1875 2.0625 C-3.1875 4.0425 -3.1875 6.0225 -3.1875 8.0625 C-3.8475 8.0625 -4.5075 8.0625 -5.1875 8.0625 C-5.1875 5.4225 -5.1875 2.7825 -5.1875 0.0625 C-2.1875 -0.9375 -2.1875 -0.9375 0 0 Z " fill="#FDFBFB" transform="translate(249.1875,22.9375)"/>
<path d="M0 0 C1.98 0 3.96 0 6 0 C5.49287967 3.71888239 4.88391785 6.73454239 3 10 C2.01 9.67 1.02 9.34 0 9 C0.66 7.02 1.32 5.04 2 3 C1.34 2.67 0.68 2.34 0 2 C0 1.34 0 0.68 0 0 Z " fill="#FF9D5C" transform="translate(222,120)"/>
<path d="M0 0 C0.721875 0.144375 1.44375 0.28875 2.1875 0.4375 C3.5796875 0.7159375 3.5796875 0.7159375 5 1 C6.299375 1.3403125 6.299375 1.3403125 7.625 1.6875 C10.26359783 2.29985478 10.26359783 2.29985478 13 0 C12.34 1.65 11.68 3.3 11 5 C4.6 4.50769231 4.6 4.50769231 1.5625 1.9375 C1.046875 1.298125 0.53125 0.65875 0 0 Z " fill="#AC7A29" transform="translate(276,70)"/>
<path d="M0 0 C0.33 1.32 0.66 2.64 1 4 C0.01 4.33 -0.98 4.66 -2 5 C-3.66710346 6.49985609 -3.66710346 6.49985609 -5 8 C-7 5 -7 5 -6.625 2.8125 C-6.41875 2.214375 -6.2125 1.61625 -6 1 C-5.01 1 -4.02 1 -3 1 C-2.01 0.67 -1.02 0.34 0 0 Z " fill="#DDC778" transform="translate(307,53)"/>
<path d="M0 0 C1.65 0 3.3 0 5 0 C5 0.66 5 1.32 5 2 C6.45833358 3.62514468 6.45833358 3.62514468 8 5 C7.01 5.33 6.02 5.66 5 6 C4.67 6.66 4.34 7.32 4 8 C3.34 8 2.68 8 2 8 C1.855625 7.05125 1.71125 6.1025 1.5625 5.125 C1.17064601 2.1065506 1.17064601 2.1065506 0 0 Z " fill="#D1A669" transform="translate(370,47)"/>
<path d="M0 0 C0.99 0 1.98 0 3 0 C3 3.3 3 6.6 3 10 C2.34 10 1.68 10 1 10 C0.7834375 8.6078125 0.7834375 8.6078125 0.5625 7.1875 C0.07899889 3.99274889 0.07899889 3.99274889 -1 1 C-0.67 0.67 -0.34 0.34 0 0 Z " fill="#FDFBFB" transform="translate(358,318)"/>
<path d="M0 0 C0.66 0.66 1.32 1.32 2 2 C1.67 2.99 1.34 3.98 1 5 C2.670625 5.185625 2.670625 5.185625 4.375 5.375 C8 6 8 6 10 8 C8.375 8.6875 8.375 8.6875 6 9 C2.75 7.5625 2.75 7.5625 0 6 C0 4.02 0 2.04 0 0 Z " fill="#D5AF5B" transform="translate(275,70)"/>
<path d="M0 0 C1.32 0 2.64 0 4 0 C4 2.97 4 5.94 4 9 C3.34 9 2.68 9 2 9 C2 7.02 2 5.04 2 3 C1.34 3 0.68 3 0 3 C0 2.01 0 1.02 0 0 Z " fill="#FDFBFB" transform="translate(357,290)"/>
<path d="M0 0 C1.32 0 2.64 0 4 0 C4 2.97 4 5.94 4 9 C3.34 9 2.68 9 2 9 C2 7.02 2 5.04 2 3 C1.34 3 0.68 3 0 3 C0 2.01 0 1.02 0 0 Z " fill="#FDFBFB" transform="translate(357,92)"/>
<path d="M0 0 C4.24822374 0.47202486 6.19989709 2.96655518 9 6 C8.67 6.99 8.34 7.98 8 9 C7.236875 8.071875 6.47375 7.14375 5.6875 6.1875 C3.88151448 4.01723899 2.0523371 1.94431935 0 0 Z " fill="#5E2E18" transform="translate(374,48)"/>
<path d="M0 0 C0.66 0 1.32 0 2 0 C2 0.66 2 1.32 2 2 C2.66 2 3.32 2 4 2 C3.67 3.32 3.34 4.64 3 6 C2.01 6 1.02 6 0 6 C0 5.01 0 4.02 0 3 C-0.66 2.67 -1.32 2.34 -2 2 C-1.34 1.34 -0.68 0.68 0 0 Z " fill="#D8B070" transform="translate(367,49)"/>
<path d="M0 0 C0.33 0.66 0.66 1.32 1 2 C-0.8125 4.5 -0.8125 4.5 -3 7 C-3.99 7 -4.98 7 -6 7 C-4.4911799 3.76681408 -3.29394556 1.64697278 0 0 Z " fill="#DCC88E" transform="translate(385,70)"/>
<path d="M0 0 C0.66 0 1.32 0 2 0 C3.09506492 3.28519475 3.09960608 5.73663415 3.0625 9.1875 C3.05347656 10.27417969 3.04445313 11.36085938 3.03515625 12.48046875 C3.02355469 13.31191406 3.01195312 14.14335938 3 15 C2.67 15 2.34 15 2 15 C1.92652344 13.82630859 1.92652344 13.82630859 1.8515625 12.62890625 C1.77679688 11.61699219 1.70203125 10.60507813 1.625 9.5625 C1.55539062 8.55316406 1.48578125 7.54382812 1.4140625 6.50390625 C1.27742188 5.67761719 1.14078125 4.85132813 1 4 C0.34 3.67 -0.32 3.34 -1 3 C-0.67 2.01 -0.34 1.02 0 0 Z " fill="#BC6726" transform="translate(365,54)"/>
<path d="M0 0 C1.32 0.99 2.64 1.98 4 3 C3 5 3 5 1.0625 5.6875 C-1 6 -1 6 -3 5 C-1.125 1.125 -1.125 1.125 0 0 Z " fill="#CBA04A" transform="translate(303,50)"/>
<path d="M0 0 C-0.33 0.66 -0.66 1.32 -1 2 C-4.35595828 1.40072174 -6.37801226 0.15377564 -9 -2 C-5.08496436 -3.59501452 -3.33516624 -2.31608767 0 0 Z " fill="#E9D79D" transform="translate(382,48)"/>
<path d="M0 0 C0.33 1.32 0.66 2.64 1 4 C-1.3125 4.6875 -1.3125 4.6875 -4 5 C-5.8125 3.5625 -5.8125 3.5625 -7 2 C-4.03 2.495 -4.03 2.495 -1 3 C-0.67 2.01 -0.34 1.02 0 0 Z " fill="#BDB27C" transform="translate(290,77)"/>
<path d="M0 0 C2.31 0 4.62 0 7 0 C7.33 0.66 7.66 1.32 8 2 C3.545 2.495 3.545 2.495 -1 3 C-0.67 2.01 -0.34 1.02 0 0 Z " fill="#DDC58A" transform="translate(369,44)"/>
<path d="M0 0 C1.65 0 3.3 0 5 0 C5 0.99 5 1.98 5 3 C3.35 3 1.7 3 0 3 C0 2.01 0 1.02 0 0 Z " fill="#FDFBFB" transform="translate(357,152)"/>
<path d="M0 0 C1.32 0 2.64 0 4 0 C4 0.99 4 1.98 4 3 C2.68 3 1.36 3 0 3 C0 2.01 0 1.02 0 0 Z " fill="#FDFBFB" transform="translate(276,238)"/>
<path d="M0 0 C1.32 0 2.64 0 4 0 C4 0.99 4 1.98 4 3 C2.68 3 1.36 3 0 3 C0 2.01 0 1.02 0 0 Z " fill="#FDFBFB" transform="translate(276,153)"/>
<path d="M0 0 C0.66 0.33 1.32 0.66 2 1 C2 1.66 2 2.32 2 3 C1.01 3 0.02 3 -1 3 C-0.67 2.01 -0.34 1.02 0 0 Z " fill="#FDFBFB" transform="translate(338,19)"/>
<path d="M0 0 C0.66 0 1.32 0 2 0 C2 0.99 2 1.98 2 3 C1.34 3 0.68 3 0 3 C0 2.01 0 1.02 0 0 Z " fill="#FDFBFB" transform="translate(241,19)"/>
<path d="M0 0 C0.66 0 1.32 0 2 0 C2 0.99 2 1.98 2 3 C1.34 3 0.68 3 0 3 C0 2.01 0 1.02 0 0 Z " fill="#FDFBFB" transform="translate(218,19)"/>
</svg>
