<svg width="201" height="200" viewBox="0 0 201 200" fill="none" xmlns="http://www.w3.org/2000/svg">
<path d="M100.499 170.936C138.258 170.936 168.868 158.928 168.868 144.115C168.868 129.303 138.258 117.295 100.499 117.295C62.7405 117.295 32.1309 129.303 32.1309 144.115C32.1309 158.928 62.7405 170.936 100.499 170.936Z" fill="#494949"/>
<path d="M146.449 132.587L149.244 137.044L136.46 139.272L133.666 134.815L146.449 132.587Z" fill="#AAAAAA"/>
<path d="M136.461 139.657C136.329 139.657 136.205 139.591 136.135 139.476L133.34 135.018C133.272 134.909 133.263 134.774 133.314 134.657C133.366 134.541 133.474 134.457 133.6 134.435L146.383 132.207C146.538 132.179 146.692 132.25 146.775 132.381L149.57 136.839C149.638 136.948 149.648 137.083 149.596 137.2C149.544 137.316 149.437 137.4 149.311 137.422L136.527 139.65C136.505 139.655 136.483 139.657 136.461 139.657ZM134.298 135.096L136.65 138.848L148.614 136.763L146.263 133.011L134.298 135.096Z" fill="#494949"/>
<path d="M147.912 86.1055L146.834 94.9555C145.286 107.672 145.155 120.317 146.449 132.589L133.664 134.815L139.225 115.798L147.912 86.1055Z" fill="#808080"/>
<path d="M133.665 135.2C133.556 135.2 133.452 135.154 133.378 135.072C133.289 134.972 133.258 134.835 133.295 134.708L147.543 85.9983C147.598 85.8057 147.795 85.689 147.991 85.7298C148.187 85.7705 148.32 85.9538 148.296 86.1538L147.219 95.0038C145.674 107.685 145.545 120.317 146.833 132.55C146.856 132.752 146.717 132.935 146.517 132.971L133.733 135.198C133.709 135.198 133.687 135.2 133.665 135.2ZM146.961 90.7298L134.208 134.33L146.028 132.271C144.772 120.091 144.915 107.524 146.452 94.9094L146.961 90.7298Z" fill="#494949"/>
<path d="M150.708 90.5629L147.913 86.1055L146.836 94.9555C145.288 107.672 145.156 120.317 146.451 132.589L149.245 137.046C147.952 124.774 148.082 112.131 149.63 99.4129L150.708 90.5629Z" fill="#AAAAAA"/>
<path d="M149.244 137.43C149.114 137.43 148.99 137.363 148.918 137.248L146.124 132.791C146.092 132.741 146.074 132.685 146.066 132.626C144.772 120.335 144.901 107.644 146.453 94.9055L147.531 86.0555C147.551 85.8944 147.67 85.7611 147.829 85.7259C147.988 85.6907 148.153 85.7593 148.238 85.8981L151.033 90.3555C151.079 90.4296 151.1 90.5185 151.088 90.6074L150.011 99.4574C148.466 112.139 148.337 124.77 149.625 137.004C149.644 137.181 149.538 137.35 149.368 137.407C149.329 137.424 149.287 137.43 149.244 137.43ZM146.824 132.459L148.696 135.448C147.579 123.67 147.764 111.539 149.246 99.3667L150.307 90.6518L148.163 87.2315L147.216 95.0018C145.677 107.652 145.546 120.254 146.824 132.459Z" fill="#494949"/>
<path d="M131.92 140.786L134.715 145.244H131.437L128.643 140.786H131.92Z" fill="#AAAAAA"/>
<path d="M134.715 145.629H131.439C131.305 145.629 131.183 145.561 131.113 145.448L128.318 140.99C128.244 140.872 128.24 140.722 128.307 140.6C128.376 140.477 128.503 140.401 128.644 140.401H131.92C132.053 140.401 132.176 140.47 132.246 140.583L135.04 145.04C135.115 145.159 135.118 145.309 135.052 145.431C134.983 145.553 134.853 145.629 134.715 145.629ZM131.65 144.859H134.018L131.707 141.172H129.34L131.65 144.859Z" fill="#494949"/>
<path d="M148.663 83.5479L147.914 86.1053L139.227 115.798L133.666 134.815L131.92 140.787L134.714 145.244L136.461 139.272L142.022 120.255L150.709 90.5627L151.457 88.0053L148.663 83.5479Z" fill="#AAAAAA"/>
<path d="M134.714 145.629C134.583 145.629 134.459 145.563 134.388 145.448L131.594 140.991C131.535 140.898 131.52 140.783 131.551 140.678L148.294 83.4388C148.336 83.2925 148.461 83.1869 148.611 83.1647C148.761 83.1443 148.909 83.2128 148.99 83.3425L151.785 87.7999C151.844 87.8925 151.859 88.0073 151.827 88.1128L135.083 145.352C135.04 145.498 134.916 145.604 134.766 145.626C134.749 145.628 134.731 145.629 134.714 145.629ZM132.338 140.728L134.585 144.313L151.038 88.0628L148.792 84.4776L132.338 140.728Z" fill="#494949"/>
<path d="M148.663 83.5479L147.915 86.1053L139.228 115.798L133.667 134.815L131.92 140.787H128.643L134.835 119.624L145.387 83.5479H148.663Z" fill="#808080"/>
<path d="M131.92 141.172H128.644C128.522 141.172 128.409 141.115 128.337 141.019C128.265 140.922 128.241 140.796 128.276 140.68L134.466 119.517L145.018 83.4409C145.066 83.276 145.216 83.1631 145.389 83.1631H148.665C148.787 83.1631 148.9 83.2205 148.972 83.3168C149.044 83.4131 149.068 83.539 149.033 83.6557L132.291 140.895C132.242 141.059 132.091 141.172 131.92 141.172ZM129.157 140.402H131.631L148.15 83.9335H145.676L135.204 119.732L129.157 140.402Z" fill="#494949"/>
<path d="M89.5005 59.1368C89.5024 59.0997 89.5024 59.0627 89.5024 59.0256C89.5024 59.0034 89.5005 58.9831 89.4987 58.9627C89.4968 58.9293 89.495 58.8979 89.4913 58.8664C89.4894 58.8442 89.4857 58.8219 89.482 58.7997C89.4802 58.7793 89.4783 58.759 89.4746 58.7386C89.4728 58.7312 89.4709 58.7256 89.4709 58.7201C89.458 58.6497 89.4431 58.5793 89.4228 58.5127C89.4209 58.509 89.4209 58.5053 89.4209 58.5016C89.4172 58.4886 89.4117 58.4775 89.4079 58.4664C89.395 58.4256 89.3802 58.3849 89.3635 58.346C89.3598 58.3386 89.358 58.3293 89.3542 58.3201C89.3487 58.309 89.3431 58.2979 89.3376 58.2868C89.3246 58.2571 89.3098 58.2294 89.295 58.2016C89.2894 58.1905 89.2839 58.1793 89.2783 58.1682C89.2672 58.1497 89.2561 58.1312 89.245 58.1127L86.4506 53.6553C86.4691 53.6831 86.4839 53.7145 86.5006 53.7442C86.5154 53.7719 86.5302 53.8016 86.5431 53.8293C86.5524 53.8479 86.5617 53.8682 86.5691 53.8886C86.5857 53.9275 86.6005 53.9682 86.6135 54.009C86.6191 54.0238 86.6246 54.0386 86.6283 54.0553C86.6487 54.1219 86.6654 54.1905 86.6765 54.2627C86.682 54.2886 86.6857 54.3145 86.6894 54.3423C86.6931 54.3645 86.695 54.3868 86.6987 54.409C86.7024 54.4405 86.7043 54.4738 86.7061 54.5053C86.708 54.5256 86.708 54.5479 86.7098 54.5682C86.7098 54.6053 86.7098 54.6423 86.708 54.6793C86.708 54.6979 86.708 54.7145 86.7061 54.7331C86.7024 54.7886 86.6968 54.846 86.6894 54.9034L86.332 57.5275L89.1265 61.9849L89.4839 59.3608C89.4913 59.3034 89.4968 59.2479 89.5005 59.1905C89.5005 59.1738 89.5005 59.1553 89.5005 59.1368Z" fill="#808080"/>
<path d="M89.1263 62.3701C88.9948 62.3701 88.8708 62.3034 88.8004 62.1886L86.0059 57.7312C85.9578 57.6552 85.9393 57.5645 85.9504 57.4738L86.3078 54.8497C86.3134 54.8034 86.3189 54.7552 86.3208 54.7089V54.6664C86.3226 54.6349 86.3226 54.6034 86.3226 54.5738L86.3208 54.5404C86.3208 54.5386 86.3189 54.5219 86.3189 54.5201C86.3171 54.4941 86.3171 54.4682 86.3134 54.4423L86.3059 54.3923C86.3022 54.3682 86.2985 54.346 86.2967 54.3256C86.2856 54.2664 86.2726 54.2108 86.2578 54.1627L86.2448 54.1275C86.2337 54.096 86.2226 54.0645 86.2096 54.033L86.1893 53.9886C86.18 53.9664 86.1689 53.9441 86.1559 53.9238L86.1467 53.9071C86.1374 53.8904 86.1282 53.8738 86.1189 53.8571V53.8552C86.0059 53.6756 86.0597 53.4367 86.2411 53.3238C86.4208 53.2108 86.6597 53.2645 86.7726 53.4441L89.5671 57.9015C89.5819 57.9238 89.5948 57.946 89.6078 57.9701C89.6171 57.9867 89.6245 58.0015 89.6319 58.0164C89.6485 58.0478 89.6671 58.083 89.6837 58.1201C89.6893 58.1312 89.6967 58.146 89.7041 58.1608C89.7078 58.1701 89.7171 58.1941 89.7208 58.2052C89.7356 58.2404 89.7541 58.2886 89.7708 58.3386C89.7763 58.3497 89.7819 58.3645 89.7856 58.3812C89.7874 58.3904 89.7911 58.4015 89.793 58.4108C89.8115 58.4738 89.83 58.5515 89.8467 58.633C89.8504 58.646 89.8522 58.6571 89.8541 58.6701C89.8578 58.6867 89.8597 58.7052 89.8615 58.7238L89.4819 58.7923L89.8652 58.7571C89.8689 58.7775 89.8708 58.7997 89.8726 58.8219C89.8763 58.859 89.8782 58.8978 89.88 58.9367C89.8819 58.9719 89.8837 58.9904 89.8837 59.0108C89.8837 59.0571 89.8837 59.0997 89.8819 59.1441V59.146V59.1589C89.8819 59.1756 89.8819 59.1904 89.88 59.2071C89.8763 59.2719 89.8708 59.3386 89.8615 59.4052L89.5078 62.0367C89.4856 62.1978 89.3652 62.3275 89.2078 62.3608C89.18 62.3682 89.1522 62.3701 89.1263 62.3701ZM86.7319 57.4404L88.8874 60.8793L89.1022 59.3089C89.1078 59.2626 89.1134 59.2145 89.1152 59.1682L89.1171 59.1238C89.1189 59.0941 89.1189 59.0627 89.1189 59.033L89.1152 58.9812C89.1134 58.9552 89.1134 58.9293 89.1097 58.9034L89.0985 58.8089C89.0967 58.7997 89.0948 58.7904 89.093 58.7793C89.0837 58.7275 89.0708 58.6719 89.0559 58.6219C89.0559 58.6182 89.0541 58.6164 89.0541 58.6127C89.0504 58.6052 89.0485 58.596 89.0448 58.5867C89.0337 58.5552 89.0226 58.5238 89.0097 58.4941C89.0078 58.4886 89.0041 58.4793 89.0004 58.4701C88.9967 58.4626 88.9911 58.4515 88.9893 58.4478C88.98 58.4275 88.9689 58.4052 88.9578 58.3849C88.9541 58.3793 88.943 58.3571 88.9411 58.3515L88.9208 58.3182L87.0282 55.2978L86.7319 57.4404Z" fill="#494949"/>
<path d="M85.2568 52.9922C86.192 52.9922 86.8346 53.8477 86.6901 54.9033L86.3327 57.5274L84.7179 69.3792C84.5734 70.4366 83.6994 71.2903 82.7642 71.2903H79.6216C78.6864 71.2903 78.0438 70.4348 78.1883 69.3792L79.8031 57.5274L80.1605 54.9033C80.3049 53.8459 81.179 52.9922 82.1142 52.9922H85.2568Z" fill="#565656"/>
<path d="M82.7624 71.6759H79.6198C79.0957 71.6759 78.6179 71.4611 78.2772 71.0704C77.8864 70.6241 77.7142 69.9889 77.805 69.3278L79.7772 54.8519C79.9494 53.5926 80.9753 52.6074 82.1124 52.6074H85.255C85.779 52.6074 86.2568 52.8222 86.5976 53.213C86.9883 53.6593 87.1605 54.2945 87.0698 54.9556L85.0976 69.4315C84.9272 70.6908 83.9013 71.6759 82.7624 71.6759ZM82.1142 53.3778C81.3661 53.3778 80.6605 54.0852 80.542 54.9556L78.5698 69.4315C78.5105 69.8722 78.6161 70.2852 78.8587 70.563C79.055 70.7871 79.3179 70.9056 79.6216 70.9056H82.7642C83.5124 70.9056 84.2179 70.1982 84.3364 69.3278L86.3087 54.8519C86.3679 54.4111 86.2624 54 86.0198 53.7204C85.8235 53.4963 85.5605 53.3778 85.2568 53.3778H82.1142Z" fill="#494949"/>
<path d="M70.1873 83.5484H64.0373C63.5873 83.5484 63.1725 83.4502 62.804 83.2706C62.6984 83.2187 62.5984 83.1613 62.5003 83.0984C62.3058 82.9706 62.1281 82.8187 61.9707 82.6447C61.8521 82.515 61.7447 82.3725 61.6484 82.2188L64.4429 86.6762C64.954 87.491 65.804 88.0058 66.8318 88.0058H72.9818L70.1873 83.5484Z" fill="#AAAAAA"/>
<path d="M72.9821 88.3911H66.8321C65.708 88.3911 64.7191 87.8411 64.1173 86.88L61.3247 82.4244C61.3247 82.4244 61.3247 82.4244 61.3247 82.4225C61.2117 82.2429 61.2654 82.004 61.4469 81.8911C61.6265 81.7781 61.8654 81.8318 61.9784 82.0133C62.0617 82.1466 62.1561 82.2707 62.2598 82.3837C62.3969 82.5337 62.5506 82.6651 62.7154 82.7744C62.7987 82.83 62.8858 82.88 62.9765 82.9225C63.3024 83.0818 63.6598 83.1614 64.0413 83.1614H70.1913C70.3247 83.1614 70.4469 83.23 70.5173 83.3429L73.3117 87.8003C73.3858 87.9188 73.3895 88.0688 73.3228 88.1911C73.2506 88.3151 73.1228 88.3911 72.9821 88.3911ZM63.0932 83.7966L64.7691 86.4726C65.2265 87.2022 65.9784 87.6226 66.8302 87.6226H72.2839L69.9728 83.9355H64.0358C63.7098 83.9337 63.3932 83.8874 63.0932 83.7966Z" fill="#494949"/>
<path d="M144.245 59.1367C144.247 59.0996 144.247 59.0626 144.247 59.0255C144.247 59.0033 144.245 58.983 144.243 58.9607C144.241 58.9292 144.239 58.8959 144.235 58.8644C144.234 58.8422 144.23 58.82 144.226 58.7978C144.224 58.7774 144.222 58.757 144.219 58.7385C144.217 58.7311 144.215 58.7255 144.215 58.7181C144.202 58.6478 144.187 58.5792 144.167 58.5126C144.165 58.5089 144.165 58.5052 144.165 58.5015C144.161 58.4904 144.156 58.4792 144.152 58.4663C144.139 58.4255 144.124 58.3848 144.108 58.3459C144.104 58.3385 144.102 58.3292 144.098 58.32C144.093 58.3089 144.087 58.2978 144.082 58.2867C144.069 58.257 144.054 58.2292 144.039 58.1996C144.034 58.1885 144.028 58.1774 144.022 58.1663C144.011 58.1478 144 58.1292 143.989 58.1107L141.195 53.6533C141.213 53.6811 141.228 53.7126 141.245 53.7422C141.26 53.77 141.274 53.7996 141.287 53.8292C141.297 53.8478 141.306 53.8681 141.313 53.8885C141.33 53.9274 141.345 53.9681 141.358 54.0107C141.363 54.0255 141.369 54.0404 141.372 54.0552C141.393 54.1218 141.41 54.1904 141.421 54.2626C141.426 54.2885 141.43 54.3144 141.434 54.3422C141.437 54.3644 141.439 54.3867 141.443 54.4089C141.447 54.4404 141.448 54.4737 141.45 54.5052C141.452 54.5274 141.454 54.5478 141.454 54.57C141.454 54.607 141.454 54.6441 141.452 54.6811C141.452 54.6996 141.452 54.7181 141.45 54.7366C141.447 54.7922 141.441 54.8496 141.434 54.9052L141.076 57.5292L143.871 61.9867L144.228 59.3626C144.235 59.3052 144.241 59.2496 144.245 59.1941C144.245 59.1737 144.245 59.1552 144.245 59.1367Z" fill="#808080"/>
<path d="M143.869 62.37C143.737 62.37 143.613 62.3034 143.543 62.1886L140.748 57.7311C140.7 57.6552 140.681 57.5645 140.693 57.4737L141.05 54.8497C141.056 54.8034 141.061 54.7552 141.063 54.7108V54.6663C141.065 54.6349 141.065 54.6052 141.065 54.5756L141.061 54.5237C141.059 54.4978 141.059 54.4719 141.056 54.4478L141.052 54.4108C141.046 54.3737 141.044 54.3515 141.041 54.3312C141.031 54.2756 141.019 54.22 141.002 54.1682C141.002 54.1663 140.991 54.1386 140.991 54.1367C140.98 54.1034 140.969 54.0719 140.956 54.0404C140.95 54.0256 140.943 54.0126 140.937 53.9978C140.926 53.9737 140.915 53.9515 140.904 53.9293C140.889 53.8997 140.878 53.8811 140.867 53.8626C140.754 53.683 140.809 53.4441 140.989 53.333C141.169 53.22 141.406 53.2756 141.52 53.4552L144.315 57.9126C144.33 57.9367 144.343 57.9589 144.357 57.983C144.363 57.9941 144.372 58.0089 144.38 58.0256C144.396 58.0571 144.415 58.0923 144.431 58.1293C144.439 58.1423 144.446 58.1571 144.452 58.1719C144.456 58.1811 144.465 58.2034 144.467 58.2126C144.483 58.2515 144.502 58.3015 144.519 58.3515C144.522 58.3608 144.528 58.3756 144.533 58.3904C144.535 58.3978 144.539 58.4089 144.541 58.42C144.561 58.4849 144.578 58.5608 144.594 58.6441C144.596 58.6534 144.598 58.6626 144.6 58.6719C144.604 58.6978 144.607 58.7182 144.609 58.7367C144.615 58.7774 144.619 58.8034 144.62 58.8293C144.624 58.8682 144.626 58.9071 144.628 58.946C144.63 58.9774 144.631 58.9997 144.631 59.0237C144.631 59.0645 144.631 59.1089 144.63 59.1515V59.1645C144.63 59.1811 144.63 59.1997 144.628 59.2163C144.624 59.2811 144.619 59.3478 144.609 59.4145L144.25 62.0367C144.228 62.1978 144.107 62.3274 143.95 62.3608C143.922 62.3682 143.896 62.37 143.869 62.37ZM141.476 57.4404L143.631 60.8793L143.846 59.3089C143.852 59.2626 143.857 59.2145 143.859 59.17V59.1256V59.1237C143.861 59.0941 143.861 59.0645 143.861 59.0349L143.859 59.0015C143.859 58.9997 143.857 58.983 143.857 58.983C143.856 58.9571 143.856 58.9311 143.852 58.9071L143.841 58.8219C143.841 58.82 143.839 58.8071 143.835 58.7941C143.824 58.7311 143.811 58.6774 143.796 58.6274C143.796 58.6256 143.794 58.6219 143.794 58.62C143.791 58.6108 143.787 58.6015 143.785 58.5923C143.774 58.5589 143.763 58.5274 143.75 58.4978C143.748 58.4941 143.744 58.4848 143.743 58.4756C143.737 58.4663 143.731 58.4534 143.73 58.4497C143.72 58.4293 143.709 58.4071 143.698 58.3849C143.694 58.3793 143.685 58.3589 143.683 58.3534C143.678 58.3441 143.67 58.3311 143.661 58.3163L141.769 55.296L141.476 57.4404Z" fill="#494949"/>
<path d="M139.997 52.9922C140.932 52.9922 141.577 53.8477 141.432 54.9033L141.075 57.5274L139.46 69.3792C139.316 70.4366 138.44 71.2903 137.504 71.2903H134.362C133.427 71.2903 132.784 70.4348 132.928 69.3792L134.543 57.5274L134.901 54.9033C135.045 53.8459 135.921 52.9922 136.854 52.9922H139.997Z" fill="#565656"/>
<path d="M137.503 71.6758H134.36C133.836 71.6758 133.358 71.461 133.017 71.0684C132.627 70.6221 132.454 69.9869 132.545 69.3258L134.517 54.8499C134.686 53.6129 135.734 52.6055 136.853 52.6055H139.995C140.519 52.6055 140.997 52.8203 141.34 53.2129C141.73 53.6592 141.903 54.2944 141.812 54.9555L139.84 69.4314C139.669 70.6907 138.641 71.6758 137.503 71.6758ZM136.854 53.3777C136.119 53.3777 135.399 54.0999 135.282 54.9555L133.31 69.4314C133.251 69.8703 133.356 70.2832 133.599 70.5629C133.795 70.787 134.058 70.9055 134.362 70.9055H137.504C138.241 70.9055 138.962 70.1832 139.079 69.3277L141.051 54.8518C141.11 54.4129 141.004 53.9999 140.762 53.7203C140.566 53.4962 140.303 53.3777 139.999 53.3777H136.854Z" fill="#494949"/>
<path d="M145.386 83.5479L148.178 88.0053H72.9819L70.1875 83.5479H145.386Z" fill="#1D2739"/>
<path d="M148.178 88.3909H72.9816C72.8483 88.3909 72.726 88.3223 72.6557 88.2094L69.8612 83.752C69.7871 83.6335 69.7834 83.4835 69.8501 83.3612C69.9186 83.239 70.0464 83.1631 70.1871 83.1631H145.383C145.517 83.1631 145.639 83.2316 145.709 83.3446L148.504 87.802C148.578 87.9205 148.582 88.0705 148.515 88.1927C148.448 88.3149 148.319 88.3909 148.178 88.3909ZM73.1945 87.6205H147.482L145.17 83.9335H70.8834L73.1945 87.6205Z" fill="#494949"/>
<path d="M158.988 65.3612C158.99 65.2872 158.994 65.2131 158.992 65.1409C158.992 65.0983 158.988 65.0557 158.987 65.0131C158.983 64.9483 158.979 64.8834 158.974 64.8186C158.97 64.7742 158.962 64.7316 158.957 64.6872C158.951 64.6464 158.948 64.6057 158.942 64.5668C158.938 64.5446 158.933 64.5223 158.929 64.5001C158.924 64.4686 158.918 64.439 158.911 64.4094C158.896 64.339 158.879 64.2705 158.861 64.202C158.853 64.176 158.848 64.152 158.84 64.126C158.837 64.1149 158.835 64.1057 158.831 64.0946C158.824 64.0705 158.812 64.0483 158.805 64.0242C158.777 63.9427 158.748 63.8612 158.714 63.7816C158.707 63.7649 158.703 63.7464 158.696 63.7316C158.687 63.7094 158.674 63.6872 158.662 63.6649C158.635 63.6057 158.607 63.5483 158.575 63.4927C158.564 63.4705 158.555 63.4483 158.542 63.4279C158.52 63.3909 158.498 63.3538 158.475 63.3168L155.681 58.8594C155.716 58.9168 155.748 58.976 155.781 59.0372C155.811 59.0927 155.84 59.152 155.868 59.2094C155.887 59.2483 155.903 59.2872 155.92 59.326C155.953 59.4038 155.983 59.4853 156.011 59.5686C156.022 59.602 156.035 59.6353 156.046 59.6705C156.053 59.6964 156.059 59.7205 156.066 59.7464C156.085 59.8149 156.101 59.8834 156.116 59.9538C156.122 59.9834 156.129 60.0149 156.135 60.0446C156.146 60.1057 156.155 60.1686 156.164 60.2335C156.17 60.2779 156.177 60.3205 156.181 60.3649C156.187 60.4279 156.19 60.4927 156.194 60.5594C156.196 60.602 156.199 60.6446 156.199 60.6872C156.201 60.7594 156.199 60.8334 156.196 60.9075C156.194 60.9446 156.196 60.9797 156.194 61.0168C156.187 61.1279 156.177 61.2409 156.161 61.3557L153.657 79.7279C153.64 79.8446 153.618 79.9612 153.594 80.076C153.587 80.1057 153.581 80.1353 153.574 80.1668C153.549 80.2686 153.522 80.3705 153.49 80.4705C153.487 80.4816 153.483 80.4946 153.479 80.5057C153.444 80.6149 153.403 80.7223 153.361 80.8298C153.349 80.8575 153.338 80.8853 153.325 80.9131C153.288 81.002 153.248 81.089 153.205 81.1742C153.196 81.1927 153.187 81.2131 153.177 81.2316C153.157 81.2723 153.131 81.3112 153.109 81.352C153.064 81.4335 153.02 81.5131 152.97 81.5909C152.938 81.6427 152.903 81.6909 152.87 81.7409C152.831 81.7964 152.794 81.852 152.753 81.9057C152.714 81.9575 152.672 82.0075 152.631 82.0575C152.594 82.102 152.559 82.1483 152.52 82.1909C152.475 82.2409 152.429 82.289 152.381 82.3372C152.344 82.376 152.307 82.4168 152.268 82.4538C152.222 82.5001 152.172 82.5409 152.122 82.5853C152.079 82.6223 152.038 82.6612 151.996 82.6964C151.951 82.7335 151.905 82.7649 151.859 82.8001C151.807 82.839 151.753 82.8798 151.699 82.9168C151.661 82.9427 151.62 82.9668 151.579 82.9909C151.509 83.0353 151.44 83.0779 151.368 83.1168C151.281 83.1649 151.194 83.2112 151.103 83.2501C151.103 83.2501 151.103 83.2501 151.101 83.2501C151.009 83.2909 150.914 83.3279 150.818 83.3612C150.781 83.3742 150.744 83.3853 150.705 83.3983C150.638 83.4186 150.57 83.439 150.501 83.4557C150.462 83.4649 150.424 83.4742 150.385 83.4835C150.312 83.4983 150.24 83.5094 150.166 83.5205C150.133 83.526 150.098 83.5316 150.064 83.5353C149.957 83.5464 149.849 83.5538 149.742 83.5538H148.659H145.383L148.177 88.0112H151.453H152.537C152.644 88.0112 152.751 88.0038 152.859 87.9927C152.894 87.989 152.927 87.9835 152.961 87.9779C153.033 87.9686 153.107 87.9557 153.179 87.9409C153.218 87.9335 153.257 87.9242 153.296 87.9131C153.364 87.8964 153.433 87.8779 153.499 87.8557C153.537 87.8446 153.575 87.8316 153.612 87.8186C153.633 87.8112 153.653 87.8075 153.672 87.8001C153.748 87.7723 153.822 87.7409 153.896 87.7094C153.896 87.7094 153.896 87.7094 153.898 87.7094C153.972 87.6761 154.046 87.6409 154.118 87.602C154.133 87.5946 154.148 87.5835 154.162 87.576C154.235 87.5372 154.303 87.4946 154.374 87.4501C154.405 87.4316 154.437 87.4149 154.466 87.3946C154.475 87.389 154.485 87.3816 154.492 87.3742C154.546 87.3372 154.598 87.2983 154.649 87.2575C154.688 87.2298 154.727 87.2038 154.764 87.1723C154.772 87.1668 154.779 87.1594 154.787 87.152C154.829 87.1168 154.87 87.0779 154.912 87.0409C154.953 87.0057 154.994 86.9723 155.033 86.9353C155.042 86.9279 155.049 86.9186 155.059 86.9094C155.098 86.8723 155.135 86.8316 155.172 86.7927C155.209 86.7557 155.246 86.7186 155.283 86.6798C155.292 86.6686 155.301 86.6575 155.311 86.6464C155.349 86.6038 155.385 86.5575 155.422 86.5131C155.453 86.4742 155.487 86.439 155.516 86.4001C155.525 86.3872 155.535 86.3742 155.544 86.3612C155.585 86.3075 155.622 86.252 155.659 86.1964C155.685 86.1575 155.714 86.1223 155.738 86.0835C155.746 86.0723 155.751 86.0594 155.759 86.0483C155.807 85.9705 155.853 85.8909 155.898 85.8094C155.916 85.776 155.937 85.7464 155.953 85.7131C155.957 85.7057 155.961 85.6964 155.964 85.689C155.974 85.6705 155.983 85.6501 155.992 85.6316C156.035 85.5464 156.075 85.4594 156.112 85.3705C156.124 85.3427 156.137 85.3149 156.148 85.2872C156.155 85.2668 156.166 85.2464 156.174 85.226C156.207 85.139 156.238 85.052 156.266 84.9631C156.27 84.952 156.274 84.939 156.277 84.9279C156.309 84.8279 156.335 84.726 156.361 84.6242C156.368 84.5946 156.375 84.5649 156.381 84.5335C156.405 84.4186 156.427 84.3038 156.444 84.1853L158.948 65.8131C158.962 65.6983 158.974 65.5853 158.981 65.4742C158.988 65.4335 158.987 65.3983 158.988 65.3612Z" fill="#AAAAAA"/>
<path d="M152.54 88.3904H148.179C148.046 88.3904 147.923 88.3219 147.853 88.2089L145.058 83.7515C144.984 83.633 144.981 83.483 145.047 83.3608C145.116 83.2385 145.244 83.1626 145.384 83.1626H149.746C149.831 83.1626 149.923 83.157 150.029 83.1459C150.046 83.1441 150.06 83.1422 150.077 83.1385L150.118 83.133C150.183 83.1237 150.246 83.1145 150.31 83.1015C150.346 83.0941 150.379 83.0867 150.412 83.0774C150.473 83.0626 150.533 83.0459 150.592 83.0274C150.633 83.0145 150.662 83.0052 150.692 82.9959C150.794 82.9607 150.873 82.9293 150.946 82.8978C150.947 82.8978 150.949 82.8959 150.949 82.8959C151.029 82.8608 151.107 82.82 151.183 82.7774C151.247 82.7422 151.31 82.7033 151.373 82.6626L151.42 82.6348C151.44 82.6219 151.46 82.6089 151.481 82.5959C151.52 82.57 151.557 82.5404 151.596 82.5126L151.67 82.457C151.697 82.4367 151.725 82.4163 151.751 82.3959C151.777 82.3737 151.803 82.3515 151.829 82.3293L151.897 82.27C151.933 82.2404 151.968 82.2089 152.001 82.1774C152.025 82.1533 152.051 82.1274 152.075 82.1015L152.12 82.0552C152.158 82.0163 152.196 81.9774 152.233 81.9367C152.26 81.9052 152.286 81.8737 152.31 81.8422L152.334 81.8126C152.381 81.757 152.414 81.7163 152.446 81.6719C152.477 81.6293 152.507 81.5867 152.536 81.5422L152.573 81.4867C152.597 81.4533 152.621 81.4182 152.644 81.383C152.688 81.3107 152.731 81.2385 152.771 81.1645L152.801 81.1126C152.812 81.0941 152.823 81.0756 152.833 81.0552L152.858 81.0015C152.897 80.9237 152.934 80.8441 152.968 80.7626L152.999 80.6867C153.042 80.5793 153.079 80.4811 153.107 80.3904C153.107 80.3867 153.114 80.3626 153.116 80.3589C153.146 80.2645 153.17 80.1719 153.192 80.0774L153.21 79.9959C153.236 79.8737 153.255 79.7737 153.268 79.6774L155.771 61.3052C155.784 61.2052 155.796 61.1015 155.801 60.9959C155.801 60.9793 155.803 60.9608 155.803 60.9441V60.8959C155.805 60.8274 155.807 60.7608 155.807 60.6941C155.807 60.6682 155.805 60.6441 155.803 60.6182L155.801 60.5811C155.797 60.52 155.796 60.4626 155.79 60.4052C155.786 60.3737 155.783 60.3422 155.777 60.3107L155.773 60.2885C155.766 60.2311 155.758 60.1756 155.747 60.12C155.742 60.0922 155.736 60.0663 155.731 60.0385C155.718 59.9756 155.701 59.9145 155.684 59.8533L155.666 59.7848C155.662 59.77 155.657 59.7552 155.651 59.7404L155.636 59.6978C155.612 59.6237 155.584 59.5515 155.557 59.4811C155.542 59.4459 155.527 59.4126 155.51 59.3793C155.486 59.3274 155.46 59.2756 155.433 59.2256L155.42 59.2015C155.396 59.157 155.371 59.1126 155.346 59.07C155.233 58.8904 155.288 58.6515 155.468 58.5385C155.649 58.4256 155.886 58.4793 155.999 58.6607L158.794 63.1182C158.82 63.1589 158.844 63.2015 158.868 63.2441C158.879 63.2645 158.89 63.2848 158.899 63.3052C158.94 63.3811 158.971 63.4459 159.003 63.5126C159.02 63.5441 159.031 63.5663 159.04 63.5885C159.047 63.6033 159.055 63.6237 159.06 63.6441C159.097 63.7311 159.129 63.82 159.16 63.9126C159.173 63.9459 159.183 63.9682 159.19 63.9904C159.192 63.9959 159.197 64.0182 159.199 64.0237L159.221 64.107C159.242 64.183 159.26 64.2589 159.277 64.3367C159.284 64.3719 159.292 64.4033 159.297 64.4367L159.301 64.457C159.305 64.4756 159.308 64.4941 159.312 64.5126C159.318 64.5422 159.321 64.5737 159.325 64.607L159.334 64.6774C159.34 64.7145 159.344 64.7515 159.349 64.7904C159.357 64.8589 159.36 64.9311 159.364 65.0015L159.366 65.0385C159.368 65.0737 159.37 65.107 159.371 65.1422C159.373 65.22 159.371 65.2996 159.368 65.3811C159.368 65.3811 159.368 65.3811 159.368 65.383V65.42C159.368 65.4478 159.368 65.4756 159.366 65.5033C159.358 65.6293 159.347 65.7533 159.331 65.8719L156.827 84.2441C156.812 84.357 156.79 84.4774 156.758 84.6219C156.751 84.6552 156.744 84.6885 156.736 84.7219C156.71 84.8311 156.681 84.9404 156.647 85.0496L156.636 85.0904C156.607 85.1848 156.573 85.2793 156.536 85.3737C156.531 85.3904 156.523 85.4052 156.518 85.42L156.477 85.52C156.433 85.6256 156.388 85.72 156.342 85.8126L156.297 85.9015C156.284 85.9256 156.27 85.9515 156.255 85.9756L156.238 86.0052C156.19 86.0922 156.14 86.1793 156.088 86.2626C156.081 86.2756 156.073 86.2904 156.064 86.3033C156.047 86.3311 156.027 86.3589 156.007 86.3867L155.964 86.4478C155.929 86.4996 155.892 86.5515 155.855 86.6015C155.844 86.6182 155.834 86.6311 155.825 86.6441C155.803 86.6737 155.779 86.6996 155.757 86.7274L155.703 86.7922C155.671 86.8311 155.638 86.8719 155.605 86.9089C155.594 86.9237 155.584 86.9348 155.575 86.9459C155.547 86.9774 155.52 87.0052 155.49 87.033L155.425 87.0996C155.394 87.1311 155.364 87.1645 155.331 87.1941C155.323 87.2015 155.314 87.2126 155.303 87.2219C155.273 87.2496 155.244 87.2756 155.212 87.3015L155.14 87.3645C155.105 87.3959 155.071 87.4256 155.034 87.4552C155.029 87.4608 155.02 87.4682 155.01 87.4756C154.981 87.4996 154.953 87.52 154.923 87.5404L154.853 87.5922C154.807 87.6274 154.76 87.6626 154.712 87.6941C154.705 87.6996 154.694 87.7089 154.681 87.7163C154.658 87.7311 154.633 87.7459 154.607 87.7608L154.581 87.7756C154.505 87.8237 154.429 87.87 154.349 87.9126C154.333 87.9237 154.318 87.933 154.301 87.9404C154.22 87.983 154.138 88.0219 154.057 88.0589C154.055 88.0589 154.053 88.0608 154.051 88.0608C153.971 88.0959 153.89 88.1293 153.807 88.1608C153.79 88.1663 153.771 88.1737 153.753 88.1793C153.703 88.1959 153.664 88.2089 153.625 88.22C153.542 88.2459 153.466 88.2663 153.39 88.2867C153.347 88.2978 153.305 88.307 153.26 88.3163C153.181 88.333 153.099 88.3459 153.016 88.357L152.984 88.3608C152.957 88.3645 152.929 88.37 152.899 88.3719C152.771 88.383 152.653 88.3904 152.54 88.3904ZM148.394 87.62H152.54C152.625 87.62 152.718 87.6145 152.823 87.6033C152.84 87.6015 152.857 87.5996 152.871 87.5959L152.912 87.5904C152.977 87.5811 153.04 87.5719 153.105 87.5589C153.14 87.5515 153.173 87.5441 153.207 87.5348C153.268 87.52 153.327 87.5033 153.388 87.4848C153.427 87.4719 153.458 87.4626 153.488 87.4533L153.531 87.4404C153.61 87.4126 153.675 87.3848 153.742 87.3552C153.744 87.3552 153.746 87.3533 153.746 87.3533C153.81 87.3237 153.877 87.2922 153.94 87.2589C153.951 87.2515 153.966 87.2422 153.979 87.2348C154.044 87.1996 154.107 87.1607 154.17 87.1219C154.188 87.1107 154.207 87.0996 154.225 87.0885C154.234 87.083 154.246 87.0774 154.255 87.0719C154.258 87.0682 154.268 87.0608 154.277 87.0552C154.316 87.0293 154.351 87.0015 154.388 86.9737L154.477 86.9089C154.494 86.8959 154.51 86.8848 154.527 86.8719L154.547 86.8533C154.575 86.8311 154.599 86.8089 154.625 86.7867L154.712 86.7107C154.733 86.6941 154.753 86.6756 154.773 86.657C154.777 86.6533 154.79 86.6385 154.796 86.6348C154.821 86.6107 154.844 86.5867 154.868 86.5626L154.946 86.483C154.964 86.4645 154.984 86.4441 155.001 86.4256C155.01 86.4145 155.018 86.4033 155.027 86.3941C155.053 86.3645 155.079 86.333 155.105 86.3015L155.171 86.2219C155.186 86.2052 155.201 86.1867 155.216 86.1682C155.223 86.1552 155.233 86.1441 155.24 86.133C155.271 86.0904 155.301 86.0478 155.331 86.0052L155.386 85.9274C155.397 85.9108 155.41 85.8959 155.421 85.8774C155.427 85.8663 155.434 85.8552 155.442 85.8441C155.486 85.7737 155.527 85.6996 155.57 85.6256C155.581 85.607 155.592 85.5885 155.601 85.57C155.608 85.5589 155.614 85.5478 155.62 85.5367L155.657 85.4607C155.696 85.3811 155.733 85.3015 155.768 85.22L155.823 85.0885C155.855 85.0089 155.883 84.9293 155.908 84.8478L155.92 84.8108C155.947 84.7237 155.971 84.6293 155.994 84.5348C156.001 84.507 156.007 84.4793 156.012 84.4533C156.038 84.3293 156.057 84.2274 156.07 84.1348L158.573 65.7626C158.586 65.6626 158.597 65.5589 158.603 65.4533C158.603 65.4367 158.603 65.4219 158.605 65.4052L158.607 65.3533C158.608 65.2867 158.61 65.22 158.61 65.1552C158.61 65.1293 158.608 65.1052 158.607 65.083L158.605 65.0385C158.601 64.9811 158.599 64.9219 158.594 64.8645C158.59 64.8348 158.586 64.807 158.583 64.7793L158.571 64.6922C158.57 64.6737 158.568 64.6552 158.564 64.6367L158.534 64.4922C158.521 64.4311 158.507 64.37 158.49 64.3089L158.471 64.2404C158.47 64.2367 158.466 64.2182 158.464 64.2126C158.453 64.1848 158.446 64.1663 158.44 64.1478C158.416 64.0774 158.39 64.0052 158.36 63.9348C158.353 63.9182 158.347 63.9033 158.342 63.8867C158.329 63.8626 158.321 63.8478 158.314 63.833C158.29 63.7793 158.264 63.7293 158.236 63.6793C158.227 63.6626 158.22 63.6478 158.212 63.6311C158.188 63.5885 158.17 63.5552 158.149 63.5237L156.579 61.02C156.579 61.0274 156.579 61.033 156.577 61.0404C156.57 61.1663 156.558 61.2904 156.542 61.4089L154.038 79.7811C154.023 79.8959 153.999 80.02 153.97 80.1589C153.962 80.1904 153.955 80.2237 153.947 80.2552C153.921 80.3663 153.892 80.4774 153.858 80.5848L153.849 80.6182C153.812 80.733 153.771 80.8478 153.72 80.9737L153.688 81.0478C153.642 81.157 153.597 81.2515 153.553 81.3441L153.521 81.4089C153.507 81.4385 153.49 81.4682 153.471 81.4996L153.449 81.5385C153.401 81.6256 153.353 81.7126 153.299 81.7959C153.271 81.8404 153.242 81.883 153.212 81.9256L153.177 81.9774C153.14 82.0311 153.105 82.083 153.066 82.1348C153.027 82.1867 152.986 82.2367 152.946 82.2867L152.912 82.3274C152.881 82.3682 152.847 82.407 152.812 82.4459C152.77 82.4959 152.723 82.5422 152.677 82.5904L152.636 82.633C152.605 82.6663 152.573 82.6996 152.54 82.7311C152.497 82.7719 152.455 82.8108 152.41 82.8496L152.349 82.9052C152.314 82.9367 152.281 82.9663 152.244 82.9959C152.208 83.0256 152.171 83.0533 152.133 83.0811L152.066 83.1311C152.018 83.1682 151.97 83.2033 151.92 83.2367C151.89 83.257 151.858 83.2774 151.827 83.2959L151.79 83.3182C151.714 83.3663 151.636 83.4126 151.558 83.4571C151.473 83.5033 151.373 83.557 151.268 83.6033C151.262 83.6052 151.257 83.6089 151.251 83.6108C151.157 83.6515 151.064 83.6885 150.955 83.7274C150.916 83.7404 150.879 83.7533 150.84 83.7645C150.755 83.7904 150.679 83.8126 150.603 83.8311C150.56 83.8422 150.518 83.8515 150.473 83.8608C150.392 83.8774 150.31 83.8904 150.229 83.9015L150.197 83.9052C150.17 83.9089 150.142 83.9126 150.114 83.9163C149.983 83.9293 149.864 83.9367 149.751 83.9367H146.086L148.394 87.62Z" fill="#494949"/>
<path d="M86.1213 101.594L88.9157 106.051H67.7046L64.9102 101.594H86.1213Z" fill="#808080"/>
<path d="M88.9153 106.437H67.7042C67.5709 106.437 67.4487 106.368 67.3783 106.255L64.5839 101.798C64.5098 101.679 64.5061 101.529 64.5728 101.407C64.6413 101.285 64.7691 101.209 64.9098 101.209H86.1209C86.2542 101.209 86.3765 101.277 86.4468 101.39L89.2413 105.848C89.3153 105.966 89.319 106.116 89.2524 106.239C89.1839 106.361 89.0561 106.437 88.9153 106.437ZM67.9172 105.666H88.2191L85.9079 101.979H65.6061L67.9172 105.666Z" fill="#494949"/>
<path d="M148.179 88.0053L145.387 83.5479L134.844 119.59L128.644 140.787L127.525 144.609L130.318 149.066L131.437 145.244L137.633 124.065L148.179 88.0053Z" fill="#808080"/>
<path d="M130.448 149.998L127.107 144.666L134.77 118.474L145.257 82.6162L148.598 87.9477L148.55 88.1144L138.004 124.174L130.448 149.998ZM127.943 144.551L130.189 148.137L147.761 88.0644L145.515 84.4792L134.919 120.709L127.943 144.551Z" fill="#494949"/>
<path d="M134.81 119.643L128.643 140.787L127.525 144.609H105.402L134.81 119.643Z" fill="#AAAAAA"/>
<path d="M127.525 144.995H105.402C105.241 144.995 105.097 144.895 105.041 144.743C104.986 144.591 105.03 144.421 105.154 144.317L134.562 119.35C134.691 119.241 134.878 119.228 135.021 119.321C135.163 119.413 135.228 119.589 135.182 119.752L129.015 140.896L127.897 144.721C127.845 144.882 127.695 144.995 127.525 144.995ZM106.45 144.224H127.234L128.271 140.678L134.078 120.767L106.45 144.224Z" fill="#494949"/>
<path d="M70.1892 83.5479H145.387L134.836 119.624L112.708 119.642L105.404 144.609H52.3281L55.98 132.126H77.1911L86.1226 101.594H64.9115L70.1892 83.5479Z" fill="#565656"/>
<path d="M105.404 144.995H52.3278C52.2056 144.995 52.0927 144.937 52.0204 144.841C51.9482 144.745 51.9241 144.619 51.9593 144.502L55.6112 132.019C55.6593 131.854 55.8093 131.741 55.9816 131.741H76.9038L85.6093 101.98H64.9112C64.789 101.98 64.676 101.922 64.6038 101.826C64.5316 101.73 64.5075 101.604 64.5427 101.487L69.8223 83.4409C69.8704 83.276 70.0204 83.1631 70.1927 83.1631H145.389C145.511 83.1631 145.624 83.2205 145.696 83.3168C145.769 83.4131 145.793 83.539 145.757 83.6557L135.206 119.732C135.157 119.896 135.007 120.009 134.837 120.009L112.998 120.028L105.776 144.719C105.726 144.882 105.574 144.995 105.404 144.995ZM52.8427 144.224H105.115L112.337 119.533C112.385 119.369 112.535 119.256 112.706 119.256L134.545 119.237L144.87 83.9316H70.4779L65.4241 101.208H86.1223C86.2445 101.208 86.3575 101.265 86.4297 101.361C86.5019 101.458 86.526 101.583 86.4908 101.7L77.5593 132.232C77.5112 132.396 77.3612 132.509 77.189 132.509H56.2686L52.8427 144.224Z" fill="#494949"/>
<path d="M88.9618 83.3721L88.9099 83.548L88.7599 84.0591L82.421 105.728L82.2192 106.415L75.8821 128.083L75.6803 128.772L71.047 144.609H70.4414L75.0747 128.772L75.2766 128.085L81.6136 106.417L81.8155 105.729L88.1544 84.0591L88.3025 83.548L88.3544 83.3721H88.9618Z" fill="#494949"/>
<path d="M108.657 83.3516L108.599 83.5479L108.457 84.0386L102.118 105.707L101.918 106.394H101.916L95.579 128.065L95.3772 128.752L90.7383 144.609H90.1309L94.7716 128.752L94.9716 128.065L101.31 106.396L101.51 105.709L107.849 84.0386H107.851L107.994 83.5479L108.049 83.3516H108.657Z" fill="#494949"/>
<path d="M128.354 83.3311L128.291 83.5477L128.154 84.0181L121.815 105.687L121.615 106.374L115.274 128.044L115.074 128.731L110.43 144.609H109.822L114.469 128.731L114.669 128.044L121.007 106.376L121.209 105.688L127.546 84.0199L127.685 83.5477L127.748 83.3311H128.354Z" fill="#494949"/>
<path d="M138.916 105.67L138.715 106.357L121.615 106.374L121.007 106.375L101.918 106.394H101.916L101.311 106.396L82.2201 106.414L81.6145 106.416L63.4941 106.435L63.696 105.748L81.8164 105.729L82.4219 105.727L101.511 105.709L102.118 105.707L121.209 105.688L121.815 105.687L138.916 105.67Z" fill="#494949"/>
<path d="M132.377 128.025L132.175 128.712L115.074 128.731H114.468L95.3773 128.751H94.7717L75.681 128.772H75.0754L56.9551 128.79L57.1569 128.103L75.2773 128.085L75.8829 128.083L94.9717 128.064H95.5792L114.668 128.044H115.274L132.377 128.025Z" fill="#494949"/>
<path d="M127.526 144.609H105.404H52.3281L55.1226 149.067H108.199H130.319L127.526 144.609Z" fill="#808080"/>
<path d="M130.319 149.452H55.1222C54.9889 149.452 54.8667 149.383 54.7963 149.27L52.0018 144.814C51.9278 144.696 51.9241 144.546 51.9907 144.424C52.0592 144.302 52.187 144.226 52.3278 144.226H127.524C127.657 144.226 127.78 144.294 127.85 144.407L130.644 148.864C130.719 148.983 130.722 149.133 130.656 149.255C130.589 149.376 130.459 149.452 130.319 149.452ZM55.3352 148.681H129.622L127.311 144.994H53.0241L55.3352 148.681Z" fill="#494949"/>
<path d="M64.9107 101.594H86.1218L77.1903 132.125H55.9792H34.7422L43.6737 101.594H64.9107ZM77.3607 109.999C77.7366 109.999 78.0866 109.657 78.144 109.234C78.2015 108.81 77.9459 108.47 77.57 108.47H47.7496C47.3755 108.47 47.0255 108.812 46.9681 109.234C46.9107 109.657 47.1681 109.999 47.5403 109.999H77.3607ZM75.7348 115.562C76.1107 115.562 76.4607 115.22 76.5181 114.797C76.5755 114.373 76.32 114.033 75.944 114.033H46.1237C45.7496 114.033 45.3996 114.375 45.3422 114.797C45.2848 115.22 45.5422 115.562 45.9144 115.562H75.7348ZM74.107 121.127C74.4829 121.127 74.8329 120.784 74.8903 120.362C74.9477 119.94 74.6903 119.597 74.3163 119.597H54.6607C54.2848 119.597 53.9348 119.94 53.8774 120.362C53.82 120.786 54.0755 121.127 54.4514 121.127H74.107Z" fill="#AAAAAA"/>
<path d="M77.1901 132.511H34.7419C34.6197 132.511 34.5067 132.453 34.4345 132.357C34.3623 132.261 34.3382 132.135 34.3734 132.018L43.3049 101.487C43.353 101.322 43.503 101.209 43.6752 101.209H86.1234C86.2456 101.209 86.3586 101.266 86.4308 101.363C86.503 101.459 86.5271 101.585 86.4919 101.702L77.5604 132.233C77.5123 132.398 77.3604 132.511 77.1901 132.511ZM35.2549 131.74H76.9012L85.6067 101.979H43.9623L35.2549 131.74ZM74.1067 121.513H54.4512C54.1734 121.513 53.9197 121.398 53.7401 121.19C53.5401 120.961 53.4512 120.64 53.4956 120.309C53.5789 119.694 54.0901 119.213 54.6604 119.213H74.3141C74.5919 119.213 74.8456 119.327 75.0271 119.535C75.2271 119.765 75.316 120.085 75.2715 120.415C75.1864 121.029 74.6752 121.513 74.1067 121.513ZM54.6604 119.983C54.4993 119.983 54.2938 120.161 54.2586 120.415C54.2438 120.526 54.266 120.624 54.3197 120.685C54.353 120.724 54.3975 120.742 54.4512 120.742H74.1067C74.2678 120.742 74.4734 120.565 74.5086 120.309C74.5234 120.2 74.5012 120.102 74.4475 120.04C74.4141 120.002 74.3697 119.983 74.316 119.983H54.6604ZM75.7345 115.948H45.9141C45.6364 115.948 45.3845 115.833 45.203 115.626C45.003 115.396 44.9141 115.076 44.9586 114.746C45.0419 114.129 45.553 113.648 46.1215 113.648H75.9401C76.2178 113.648 76.4715 113.763 76.6512 113.97C76.8512 114.2 76.9401 114.52 76.8956 114.852C76.8141 115.466 76.303 115.948 75.7345 115.948ZM46.1234 114.418C45.9623 114.418 45.7586 114.596 45.7234 114.852C45.7086 114.961 45.7308 115.059 45.7845 115.12C45.8178 115.159 45.8604 115.177 45.9141 115.177H75.7327C75.8938 115.177 76.0993 115 76.1345 114.746C76.1493 114.635 76.1271 114.537 76.0734 114.476C76.0401 114.437 75.9956 114.418 75.9419 114.418H46.1234ZM77.3604 110.385H47.5419C47.2641 110.385 47.0123 110.27 46.8308 110.063C46.6308 109.833 46.5419 109.513 46.5864 109.183C46.6697 108.566 47.1808 108.085 47.7493 108.085H77.5697C77.8475 108.085 78.1012 108.2 78.2808 108.407C78.4808 108.637 78.5697 108.957 78.5252 109.289C78.4419 109.903 77.9289 110.385 77.3604 110.385ZM47.7493 108.855C47.5882 108.855 47.3845 109.033 47.3493 109.289C47.3345 109.398 47.3567 109.496 47.4104 109.557C47.4438 109.596 47.4864 109.615 47.5401 109.615H77.3586C77.5197 109.615 77.7252 109.437 77.7604 109.183C77.7752 109.072 77.753 108.974 77.6993 108.913C77.666 108.874 77.6215 108.855 77.5678 108.855H47.7493Z" fill="#494949"/>
<path d="M77.1903 132.125H55.9792H34.7422L37.5348 136.582H58.7737H79.9848L77.1903 132.125Z" fill="#AAAAAA"/>
<path d="M79.9843 136.968H37.5343C37.401 136.968 37.2788 136.9 37.2084 136.787L34.4139 132.329C34.3399 132.211 34.3362 132.061 34.4028 131.938C34.4714 131.816 34.5991 131.74 34.7399 131.74H77.188C77.3214 131.74 77.4436 131.809 77.5139 131.922L80.3084 136.379C80.3825 136.498 80.3862 136.648 80.3195 136.77C80.2528 136.892 80.1232 136.968 79.9843 136.968ZM37.7473 136.198H79.2862L76.9751 132.511H35.4362L37.7473 136.198Z" fill="#494949"/>
<path d="M86.1209 101.594L88.9154 106.051L79.9839 136.583L77.1895 132.125L86.1209 101.594Z" fill="#AAAAAA"/>
<path d="M79.9838 136.968C79.8523 136.968 79.7282 136.901 79.6579 136.787L76.8634 132.329C76.8041 132.237 76.7893 132.122 76.8208 132.016L85.7523 101.485C85.7949 101.338 85.919 101.233 86.069 101.211C86.219 101.19 86.3671 101.259 86.4486 101.388L89.243 105.846C89.3023 105.938 89.3171 106.053 89.2856 106.159L80.3542 136.69C80.3116 136.836 80.1875 136.942 80.0375 136.964C80.019 136.968 80.0004 136.968 79.9838 136.968ZM77.6079 132.068L79.8541 135.653L88.4967 106.111L86.2504 102.525L77.6079 132.068Z" fill="#494949"/>
<path d="M134.812 119.643L105.404 144.609L112.708 119.643H134.812Z" fill="#808080"/>
<path d="M105.404 144.995C105.332 144.995 105.258 144.974 105.195 144.932C105.052 144.839 104.987 144.663 105.035 144.5L112.339 119.534C112.387 119.369 112.537 119.256 112.709 119.256H134.813C134.974 119.256 135.119 119.356 135.174 119.508C135.23 119.66 135.185 119.83 135.061 119.934L105.654 144.9C105.582 144.965 105.493 144.995 105.404 144.995ZM112.996 120.028L106.133 143.484L133.761 120.028H112.996Z" fill="#494949"/>
<path d="M153.291 57.5273C155.162 57.5273 156.445 59.2403 156.158 61.3533L153.654 79.7255C153.367 81.8366 151.615 83.5496 149.745 83.5496H148.662H145.386H70.1876H64.0376C62.1653 83.5496 60.882 81.8366 61.169 79.7255L63.6727 61.3533C63.9616 59.2403 65.7116 57.5273 67.5839 57.5273H79.8024L78.1876 69.3792C78.0431 70.4366 78.6839 71.2903 79.6209 71.2903H82.7635C83.6987 71.2903 84.5746 70.4348 84.7172 69.3792L86.332 57.5273H134.543L132.928 69.3792C132.784 70.4366 133.426 71.2903 134.362 71.2903H137.504C138.439 71.2903 139.315 70.4348 139.46 69.3792L141.075 57.5273H153.291Z" fill="#808080"/>
<path d="M149.745 83.9333H64.0374C63.1003 83.9333 62.2503 83.55 61.6411 82.8518C60.9337 82.0407 60.6226 80.8833 60.7874 79.6722L63.2911 61.3C63.604 59.0074 65.5281 57.1426 67.5837 57.1426H79.8022C79.9133 57.1426 80.0188 57.1907 80.0929 57.2741C80.167 57.3574 80.2003 57.4685 80.1837 57.5796L78.5688 69.4315C78.5096 69.8722 78.6151 70.2852 78.8577 70.563C79.054 70.787 79.317 70.9055 79.6207 70.9055H82.7633C83.5114 70.9055 84.217 70.1981 84.3355 69.3278L85.9503 57.4759C85.9763 57.2852 86.1392 57.1426 86.3318 57.1426H134.543C134.654 57.1426 134.76 57.1907 134.834 57.2741C134.906 57.3574 134.939 57.4685 134.924 57.5796L133.31 69.4315C133.25 69.8704 133.356 70.2833 133.598 70.563C133.795 70.787 134.058 70.9055 134.361 70.9055H137.504C138.241 70.9055 138.961 70.1833 139.078 69.3278L140.693 57.4759C140.719 57.2852 140.882 57.1426 141.074 57.1426H153.293C154.228 57.1426 155.078 57.5259 155.687 58.2241C156.395 59.0352 156.706 60.1944 156.541 61.4055L154.037 79.7778C153.723 82.0685 151.798 83.9333 149.745 83.9333ZM67.5837 57.9129C65.9003 57.9129 64.317 59.4796 64.054 61.4055L61.5503 79.7778C61.4151 80.7667 61.6596 81.7037 62.2207 82.3463C62.6818 82.8741 63.3263 83.1648 64.0374 83.1648H149.745C151.428 83.1648 153.01 81.6 153.273 79.6741L155.776 61.3018C155.911 60.3111 155.667 59.3741 155.106 58.7315C154.647 58.2037 154.002 57.9148 153.291 57.9148H141.41L139.839 69.4333C139.667 70.6926 138.641 71.6778 137.502 71.6778H134.36C133.836 71.6778 133.358 71.4629 133.017 71.0704C132.626 70.6241 132.454 69.9889 132.545 69.3278L134.1 57.9129H86.6689L85.0985 69.4315C84.9263 70.6907 83.9003 71.6759 82.7633 71.6759H79.6207C79.0966 71.6759 78.6189 71.4611 78.2781 71.0704C77.8874 70.6241 77.7151 69.9889 77.8059 69.3278L79.3614 57.9129H67.5837Z" fill="#494949"/>
<path d="M74.3142 119.598C74.6902 119.598 74.9457 119.94 74.8883 120.362C74.8309 120.787 74.4809 121.127 74.105 121.127H54.4513C54.0753 121.127 53.8198 120.785 53.8772 120.362C53.9346 119.94 54.2846 119.598 54.6605 119.598H74.3142Z" fill="#808080"/>
<path d="M74.1067 121.513H54.4511C54.1734 121.513 53.9197 121.398 53.74 121.191C53.54 120.961 53.4511 120.641 53.4956 120.309C53.5789 119.694 54.09 119.213 54.6604 119.213H74.3141C74.5919 119.213 74.8456 119.328 75.0271 119.535C75.2271 119.765 75.316 120.085 75.2715 120.415C75.1863 121.03 74.6752 121.513 74.1067 121.513ZM54.6604 119.983C54.4993 119.983 54.2937 120.161 54.2586 120.415C54.2437 120.526 54.266 120.624 54.3197 120.685C54.353 120.724 54.3974 120.743 54.4511 120.743H74.1067C74.2678 120.743 74.4734 120.565 74.5086 120.309C74.5234 120.2 74.5011 120.102 74.4474 120.041C74.4141 120.002 74.3697 119.983 74.316 119.983H54.6604Z" fill="#808080"/>
<path d="M77.569 108.47C77.9449 108.47 78.2005 108.812 78.1431 109.235C78.0857 109.657 77.7357 109.999 77.3597 109.999H47.5412C47.1671 109.999 46.9116 109.657 46.969 109.235C47.0264 108.81 47.3764 108.47 47.7505 108.47H77.569Z" fill="#808080"/>
<path d="M77.3595 110.385H47.541C47.2632 110.385 47.0114 110.27 46.8299 110.063C46.6299 109.833 46.541 109.513 46.5854 109.183C46.6688 108.566 47.1799 108.085 47.7484 108.085H77.5669C77.8447 108.085 78.0984 108.2 78.278 108.407C78.478 108.637 78.5669 108.957 78.5225 109.289C78.441 109.903 77.928 110.385 77.3595 110.385ZM47.7484 108.855C47.5873 108.855 47.3836 109.033 47.3484 109.289C47.3336 109.398 47.3558 109.496 47.4095 109.557C47.4428 109.596 47.4854 109.615 47.5391 109.615H77.3577C77.5188 109.615 77.7243 109.437 77.7595 109.183C77.7743 109.072 77.7521 108.974 77.6984 108.913C77.6651 108.874 77.6206 108.855 77.5669 108.855H47.7484Z" fill="#808080"/>
<path d="M75.942 114.033C76.318 114.033 76.5735 114.376 76.5161 114.798C76.4587 115.22 76.1087 115.563 75.7328 115.563H45.9143C45.5402 115.563 45.2846 115.22 45.342 114.798C45.3994 114.374 45.7494 114.033 46.1235 114.033H75.942Z" fill="#808080"/>
<path d="M75.7344 115.948H45.914C45.6363 115.948 45.3844 115.834 45.2029 115.626C45.0029 115.397 44.914 115.076 44.9585 114.747C45.0418 114.13 45.5529 113.648 46.1214 113.648H75.94C76.2177 113.648 76.4714 113.763 76.6511 113.971C76.8511 114.2 76.94 114.521 76.8955 114.852C76.814 115.467 76.3029 115.948 75.7344 115.948ZM46.1233 114.419C45.9622 114.419 45.7585 114.597 45.7233 114.852C45.7085 114.961 45.7307 115.06 45.7844 115.121C45.8177 115.16 45.8603 115.178 45.914 115.178H75.7326C75.8937 115.178 76.0992 115 76.1344 114.747C76.1492 114.635 76.127 114.537 76.0733 114.476C76.04 114.437 75.9955 114.419 75.9418 114.419H46.1233Z" fill="#808080"/>
<path d="M158.986 102.755C160.508 102.755 161.742 101.522 161.742 99.9997C161.742 98.4778 160.508 97.2441 158.986 97.2441C157.464 97.2441 156.23 98.4778 156.23 99.9997C156.23 101.522 157.464 102.755 158.986 102.755Z" fill="#494949"/>
<path d="M30.4177 128.005C31.9395 128.005 33.1732 126.772 33.1732 125.25C33.1732 123.728 31.9395 122.494 30.4177 122.494C28.8958 122.494 27.6621 123.728 27.6621 125.25C27.6621 126.772 28.8958 128.005 30.4177 128.005Z" fill="#494949"/>
<path d="M31.7985 130.234C32.3344 130.234 32.7689 129.799 32.7689 129.263C32.7689 128.727 32.3344 128.293 31.7985 128.293C31.2626 128.293 30.8281 128.727 30.8281 129.263C30.8281 129.799 31.2626 130.234 31.7985 130.234Z" fill="#494949"/>
<path d="M159.98 55.3539C161.502 55.3539 162.736 54.1202 162.736 52.5983C162.736 51.0765 161.502 49.8428 159.98 49.8428C158.458 49.8428 157.225 51.0765 157.225 52.5983C157.225 54.1202 158.458 55.3539 159.98 55.3539Z" fill="#494949"/>
<path d="M155.783 52.9407C156.319 52.9407 156.753 52.5063 156.753 51.9704C156.753 51.4345 156.319 51 155.783 51C155.247 51 154.812 51.4345 154.812 51.9704C154.812 52.5063 155.247 52.9407 155.783 52.9407Z" fill="#494949"/>
<path d="M54.0962 95.1426C56.7144 95.1426 58.8369 93.0201 58.8369 90.4019C58.8369 87.7836 56.7144 85.6611 54.0962 85.6611C51.478 85.6611 49.3555 87.7836 49.3555 90.4019C49.3555 93.0201 51.478 95.1426 54.0962 95.1426Z" fill="#808080"/>
<path d="M49.357 88.0627C50.6037 88.0627 51.6144 87.052 51.6144 85.8053C51.6144 84.5585 50.6037 83.5479 49.357 83.5479C48.1103 83.5479 47.0996 84.5585 47.0996 85.8053C47.0996 87.052 48.1103 88.0627 49.357 88.0627Z" fill="#494949"/>
</svg>
