<svg width="41" height="40" viewBox="0 0 41 40" fill="none" xmlns="http://www.w3.org/2000/svg">
<path d="M20.5 3.75C17.2861 3.75 14.1443 4.70305 11.472 6.48862C8.79969 8.27419 6.71689 10.8121 5.48696 13.7814C4.25704 16.7507 3.93524 20.018 4.56225 23.1702C5.18926 26.3224 6.73692 29.2179 9.00952 31.4905C11.2821 33.7631 14.1776 35.3107 17.3298 35.9378C20.482 36.5648 23.7493 36.243 26.7186 35.013C29.6879 33.7831 32.2258 31.7003 34.0114 29.028C35.797 26.3557 36.75 23.2139 36.75 20C36.7455 15.6916 35.0319 11.561 31.9855 8.51454C28.939 5.46806 24.8084 3.75455 20.5 3.75ZM27.6344 17.1344L18.8844 25.8844C18.7683 26.0006 18.6304 26.0928 18.4787 26.1557C18.3269 26.2186 18.1643 26.251 18 26.251C17.8357 26.251 17.6731 26.2186 17.5213 26.1557C17.3696 26.0928 17.2317 26.0006 17.1156 25.8844L13.3656 22.1344C13.1311 21.8998 12.9993 21.5817 12.9993 21.25C12.9993 20.9183 13.1311 20.6002 13.3656 20.3656C13.6002 20.1311 13.9183 19.9993 14.25 19.9993C14.5817 19.9993 14.8998 20.1311 15.1344 20.3656L18 23.2328L25.8656 15.3656C25.9818 15.2495 26.1196 15.1574 26.2714 15.0945C26.4231 15.0317 26.5858 14.9993 26.75 14.9993C26.9143 14.9993 27.0769 15.0317 27.2286 15.0945C27.3804 15.1574 27.5182 15.2495 27.6344 15.3656C27.7505 15.4818 27.8426 15.6196 27.9055 15.7714C27.9684 15.9231 28.0007 16.0858 28.0007 16.25C28.0007 16.4142 27.9684 16.5769 27.9055 16.7286C27.8426 16.8804 27.7505 17.0182 27.6344 17.1344Z" fill="#199B2E"/>
</svg>
