<svg width="110" height="127" viewBox="0 0 110 127" fill="none" xmlns="http://www.w3.org/2000/svg">
<g filter="url(#filter0_d_3850_12029)">
<path d="M72.7273 55.3747C75.0053 53.0966 75.0053 49.4032 72.7273 47.1251C70.4492 44.8471 66.7557 44.8471 64.4777 47.1251L53.1684 58.4344L51.524 56.7901C49.246 54.512 45.5525 54.512 43.2744 56.7901C40.9964 59.0681 40.9964 62.7616 43.2744 65.0396L49.0436 70.8088C51.3216 73.0868 55.0151 73.0868 57.2931 70.8088L72.7273 55.3747Z" fill="#861313"/>
<path fill-rule="evenodd" clip-rule="evenodd" d="M65.6779 1.77602C60.1078 -0.455615 53.8922 -0.455614 48.3221 1.77602L27.1671 10.2518C27.1013 10.2781 27.036 10.3057 26.9712 10.3344L17.9439 14.3389C10.0268 17.8509 4.49924 25.5836 4.5 34.5882C4.50097 46.0636 5.3283 65.487 10.7233 78.8139C14.3105 87.6752 20.7713 95.3555 27.3377 101.493C33.9512 107.675 40.997 112.591 46.1795 115.864C52.8209 120.057 61.1791 120.057 67.8205 115.864C73.003 112.591 80.0488 107.675 86.6623 101.493C93.2287 95.3555 99.6895 87.6752 103.277 78.8139C108.672 65.487 109.499 46.0636 109.5 34.5882C109.501 25.5836 103.973 17.8509 96.0561 14.3389L87.0288 10.3344C86.964 10.3057 86.8987 10.2781 86.8329 10.2518L65.6779 1.77602ZM52.661 12.6058C55.4461 11.49 58.5539 11.49 61.3389 12.6058L82.3953 21.042L91.3254 25.0034C95.3434 26.7858 97.8337 30.5351 97.8333 34.5872C97.8324 46.142 96.909 63.4524 92.4626 74.4361C89.7677 81.093 84.6426 87.4114 78.6956 92.9701C72.7958 98.4848 66.4009 102.962 61.5916 105.999C58.7553 107.79 55.2447 107.79 52.4084 105.999C47.5991 102.962 41.2042 98.4848 35.3044 92.9701C29.3574 87.4114 24.2323 81.093 21.5374 74.4361C17.091 63.4524 16.1676 46.142 16.1667 34.5872C16.1663 30.5351 18.6566 26.7858 22.6746 25.0034L31.6047 21.042L52.661 12.6058Z" fill="#861313"/>
</g>
<defs>
<filter id="filter0_d_3850_12029" x="0.5" y="0.102295" width="109" height="126.907" filterUnits="userSpaceOnUse" color-interpolation-filters="sRGB">
<feFlood flood-opacity="0" result="BackgroundImageFix"/>
<feColorMatrix in="SourceAlpha" type="matrix" values="0 0 0 0 0 0 0 0 0 0 0 0 0 0 0 0 0 0 127 0" result="hardAlpha"/>
<feOffset dx="-4" dy="8"/>
<feComposite in2="hardAlpha" operator="out"/>
<feColorMatrix type="matrix" values="0 0 0 0 0.960784 0 0 0 0 0.4 0 0 0 0 0.188235 0 0 0 0.37 0"/>
<feBlend mode="normal" in2="BackgroundImageFix" result="effect1_dropShadow_3850_12029"/>
<feBlend mode="normal" in="SourceGraphic" in2="effect1_dropShadow_3850_12029" result="shape"/>
</filter>
</defs>
</svg>
