<svg width="200" height="200" viewBox="0 0 200 200" fill="none" xmlns="http://www.w3.org/2000/svg">
<path d="M161.124 88.6408C163.248 88.6408 164.97 86.9188 164.97 84.7945C164.97 82.6703 163.248 80.9482 161.124 80.9482C158.999 80.9482 157.277 82.6703 157.277 84.7945C157.277 86.9188 158.999 88.6408 161.124 88.6408Z" fill="#494949"/>
<path d="M99.9994 169.387C137.758 169.387 168.368 157.379 168.368 142.566C168.368 127.754 137.758 115.746 99.9994 115.746C62.2405 115.746 31.6309 127.754 31.6309 142.566C31.6309 157.379 62.2405 169.387 99.9994 169.387Z" fill="#494949"/>
<path d="M97.8059 45.9854L94.9651 63.7928H76.5059L97.8059 45.9854Z" fill="#808080"/>
<path d="M94.9644 64.2094H76.5051C76.3292 64.2094 76.1737 64.1001 76.1125 63.9353C76.0533 63.7705 76.1033 63.5853 76.2366 63.4742L97.5366 45.6649C97.6699 45.5538 97.8588 45.5372 98.0088 45.6223C98.1607 45.7075 98.2422 45.8779 98.2144 46.0501L95.3737 63.8594C95.344 64.0612 95.1699 64.2094 94.9644 64.2094ZM77.6533 63.3761H94.6088L97.2181 47.0186L77.6533 63.3761Z" fill="#333333"/>
<path d="M99.5083 79.4613C99.3806 79.4613 99.2528 79.4021 99.1713 79.291L98.0472 77.7576C97.9213 77.5854 97.9454 77.3447 98.1046 77.2002C98.2639 77.0576 98.5065 77.0576 98.6639 77.2039C98.6713 77.2113 98.6805 77.2188 98.6879 77.228C98.6954 77.2354 98.7028 77.2447 98.7083 77.2521C98.7268 77.2743 98.7472 77.3039 98.7676 77.3317L99.8435 78.7984C99.9787 78.9836 99.9398 79.2447 99.7546 79.3799C99.6805 79.4354 99.5954 79.4613 99.5083 79.4613Z" fill="#494949"/>
<mask id="mask0_4634_20587" style="mask-type:luminance" maskUnits="userSpaceOnUse" x="97" y="77" width="3" height="3">
<path d="M99.5083 79.4613C99.3806 79.4613 99.2528 79.4021 99.1713 79.291L98.0472 77.7576C97.9213 77.5854 97.9454 77.3447 98.1046 77.2002C98.2639 77.0576 98.5065 77.0576 98.6639 77.2039C98.6713 77.2113 98.6805 77.2188 98.6879 77.228C98.6954 77.2354 98.7028 77.2447 98.7083 77.2521C98.7268 77.2743 98.7472 77.3039 98.7676 77.3317L99.8435 78.7984C99.9787 78.9836 99.9398 79.2447 99.7546 79.3799C99.6805 79.4354 99.5954 79.4613 99.5083 79.4613Z" fill="white"/>
</mask>
<g mask="url(#mask0_4634_20587)">
<path d="M99.2729 78.6205L103.943 84.9872C103.666 84.6075 103.369 84.239 103.054 83.8797C99.6007 79.9446 94.5655 77.976 89.2174 77.976C86.897 77.976 84.5192 78.3464 82.184 79.0872L77.5137 72.7205C79.8489 71.9797 82.2266 71.6094 84.547 71.6094C89.8952 71.6094 94.9303 73.5779 98.384 77.5131C98.6989 77.8723 98.9952 78.2409 99.2729 78.6205Z" fill="#AAAAAA"/>
<path d="M103.943 85.4035C103.815 85.4035 103.687 85.3442 103.606 85.2331C103.335 84.8628 103.043 84.4998 102.739 84.1535C99.478 80.4387 94.6761 78.3924 89.215 78.3924C86.9132 78.3924 84.5909 78.759 82.3076 79.4831C82.1372 79.5368 81.952 79.4757 81.8446 79.3331L77.1743 72.9665C77.0946 72.859 77.0724 72.7183 77.115 72.5905C77.1558 72.4628 77.2576 72.3628 77.3854 72.322C79.7502 71.572 82.1576 71.1924 84.5446 71.1924C90.2483 71.1924 95.2743 73.3387 98.6946 77.2368C99.015 77.6016 99.3206 77.985 99.6076 78.3739L104.274 84.7368C104.276 84.7387 104.276 84.7405 104.278 84.7405C104.413 84.9257 104.374 85.1868 104.189 85.3239C104.115 85.3776 104.03 85.4035 103.943 85.4035ZM89.2169 77.559C93.4928 77.559 97.3872 78.7665 100.511 81.0128L98.9372 78.8665C98.6669 78.4961 98.3743 78.1331 98.0706 77.7868C94.8095 74.072 90.0076 72.0257 84.5465 72.0257C82.4317 72.0257 80.2983 72.335 78.1965 72.9479L82.3428 78.6016C84.615 77.909 86.9261 77.559 89.2169 77.559Z" fill="#333333"/>
</g>
<path d="M74.8062 108.032C74.6914 108.032 74.5784 107.986 74.4951 107.893L74.4303 107.819C74.2155 107.573 74.0099 107.317 73.8192 107.058L69.1488 100.691C69.0136 100.506 69.0525 100.245 69.2377 100.11C69.4229 99.9746 69.684 100.013 69.821 100.199L69.8247 100.204C70.0007 100.443 70.1895 100.678 70.3877 100.904L70.447 100.971C70.4562 100.982 70.4655 100.991 70.4729 101.002L75.1432 107.369C75.2747 107.549 75.2432 107.799 75.0692 107.939C74.9914 108.002 74.897 108.032 74.8062 108.032Z" fill="#494949"/>
<mask id="mask1_4634_20587" style="mask-type:luminance" maskUnits="userSpaceOnUse" x="69" y="100" width="7" height="9">
<path d="M74.8062 108.032C74.6914 108.032 74.5784 107.986 74.4951 107.893L74.4303 107.819C74.2155 107.573 74.0099 107.317 73.8192 107.058L69.1488 100.691C69.0136 100.506 69.0525 100.245 69.2377 100.11C69.4229 99.9746 69.684 100.013 69.821 100.199L69.8247 100.204C70.0007 100.443 70.1895 100.678 70.3877 100.904L70.447 100.971C70.4562 100.982 70.4655 100.991 70.4729 101.002L75.1432 107.369C75.2747 107.549 75.2432 107.799 75.0692 107.939C74.9914 108.002 74.897 108.032 74.8062 108.032Z" fill="white"/>
</mask>
<g mask="url(#mask1_4634_20587)">
<g opacity="0.6">
<path d="M70.4751 101.612L75.1455 107.979C75.0085 107.838 74.8733 107.693 74.7436 107.545C74.5344 107.308 74.3381 107.062 74.1547 106.812L69.4844 100.445C69.6677 100.695 69.864 100.942 70.0733 101.179C70.2029 101.327 70.3381 101.471 70.4751 101.612Z" fill="#AAAAAA"/>
<path d="M75.145 108.395C75.0357 108.395 74.9283 108.352 74.8469 108.269C74.7024 108.123 74.5617 107.971 74.4283 107.819C74.2135 107.575 74.008 107.319 73.8172 107.058L69.1469 100.691C69.0117 100.506 69.0506 100.245 69.2357 100.11C69.4209 99.9746 69.682 100.013 69.8191 100.199L69.8228 100.204C69.9987 100.443 70.1876 100.678 70.3857 100.904C70.5098 101.045 70.6394 101.186 70.7728 101.321C70.7876 101.336 70.7987 101.35 70.8117 101.365L75.482 107.732C75.6117 107.908 75.582 108.154 75.4154 108.297C75.3376 108.363 75.2413 108.395 75.145 108.395Z" fill="#333333"/>
</g>
</g>
<path d="M75.1459 108.395C75.0366 108.395 74.9292 108.352 74.8478 108.269C74.7274 108.147 74.6089 108.021 74.494 107.891C74.4903 107.886 74.4848 107.882 74.4811 107.876C74.4329 107.817 74.3774 107.739 74.3255 107.667L74.2681 107.587L69.7977 101.493C69.6663 101.313 69.6977 101.063 69.8718 100.923C70.044 100.782 70.2959 100.802 70.444 100.969C70.5515 101.087 70.6607 101.204 70.7718 101.319C70.7848 101.334 70.7977 101.349 70.8107 101.363L75.4811 107.73C75.6107 107.906 75.5811 108.152 75.4144 108.295C75.3366 108.363 75.2422 108.395 75.1459 108.395Z" fill="#494949"/>
<mask id="mask2_4634_20587" style="mask-type:luminance" maskUnits="userSpaceOnUse" x="69" y="100" width="7" height="9">
<path d="M75.1459 108.395C75.0366 108.395 74.9292 108.352 74.8478 108.269C74.7274 108.147 74.6089 108.021 74.494 107.891C74.4903 107.886 74.4848 107.882 74.4811 107.876C74.4329 107.817 74.3774 107.739 74.3255 107.667L74.2681 107.587L69.7977 101.493C69.6663 101.313 69.6977 101.063 69.8718 100.923C70.044 100.782 70.2959 100.802 70.444 100.969C70.5515 101.087 70.6607 101.204 70.7718 101.319C70.7848 101.334 70.7977 101.349 70.8107 101.363L75.4811 107.73C75.6107 107.906 75.5811 108.152 75.4144 108.295C75.3366 108.363 75.2422 108.395 75.1459 108.395Z" fill="white"/>
</mask>
<g mask="url(#mask2_4634_20587)">
<g opacity="0.6">
<path d="M70.4751 101.612L75.1455 107.979C75.0085 107.838 74.8733 107.693 74.7436 107.545C74.5344 107.308 74.3381 107.062 74.1547 106.812L69.4844 100.445C69.6677 100.695 69.864 100.942 70.0733 101.179C70.2029 101.327 70.3381 101.471 70.4751 101.612Z" fill="#AAAAAA"/>
<path d="M75.145 108.395C75.0357 108.395 74.9283 108.352 74.8469 108.269C74.7024 108.123 74.5617 107.971 74.4283 107.819C74.2135 107.575 74.008 107.319 73.8172 107.058L69.1469 100.691C69.0117 100.506 69.0506 100.245 69.2357 100.11C69.4209 99.9746 69.682 100.013 69.8191 100.199L69.8228 100.204C69.9987 100.443 70.1876 100.678 70.3857 100.904C70.5098 101.045 70.6394 101.186 70.7728 101.321C70.7876 101.336 70.7987 101.35 70.8117 101.365L75.482 107.732C75.6117 107.908 75.582 108.154 75.4154 108.297C75.3376 108.363 75.2413 108.395 75.145 108.395Z" fill="#333333"/>
</g>
</g>
<path d="M94.7083 93.7893C94.5971 94.1411 94.4694 94.4948 94.3286 94.843C94.0268 95.5911 93.6601 96.3263 93.2286 97.0393C93.0212 97.3819 92.8008 97.7208 92.562 98.0541C91.7545 99.193 90.7731 100.263 89.6249 101.221C86.5008 103.834 82.7453 105.137 79.1971 105.137C75.6508 105.137 72.3119 103.832 70.0231 101.221C65.4397 95.9985 66.7897 87.5356 73.036 82.3171C76.1601 79.7041 79.9157 78.4004 83.4638 78.4004C87.0101 78.4004 90.349 79.706 92.6379 82.3171C92.7045 82.393 92.7675 82.4671 92.8268 82.543C93.1249 82.9022 93.399 83.2782 93.6434 83.6615C94.086 84.3578 94.436 85.0893 94.7064 85.8559C94.8453 86.2448 94.9601 86.643 95.0508 87.0467C95.5527 89.2059 95.4249 91.5319 94.7083 93.7893Z" fill="#AAAAAA"/>
<path d="M95.0529 87.0469H82.8381C81.5492 87.0469 80.6621 86.0413 80.8621 84.7969C81.0603 83.5524 82.2658 82.5469 83.5566 82.5469H92.8307C93.1288 82.9061 93.4029 83.2821 93.6473 83.6654C94.0899 84.3617 94.4399 85.0932 94.7103 85.8598C94.8473 86.245 94.9621 86.6432 95.0529 87.0469Z" fill="#AAAAAA"/>
<path d="M94.7069 93.789C94.5958 94.1408 94.468 94.4945 94.3273 94.8427C94.0255 95.5908 93.6588 96.326 93.2273 97.039C93.0199 97.3816 92.7995 97.7204 92.5606 98.0538H80.9532C79.7292 98.0538 78.8958 97.0982 79.0829 95.9204C79.2717 94.7427 80.4125 93.7871 81.6329 93.7871H94.7069V93.789Z" fill="#AAAAAA"/>
<path d="M98.1758 45.6758H149.704L148.917 50.6128L135.376 135.513H70.1869H65.0684L69.1628 109.835C71.8591 111.231 74.9369 111.929 78.1239 111.929C82.4072 111.929 86.8906 110.668 90.9258 108.144H127.055C127.683 108.144 128.267 107.655 128.365 107.05C128.461 106.448 128.031 105.959 127.405 105.959H93.9202C96.9795 103.381 99.248 100.285 100.678 97.0147H128.831C129.459 97.0147 130.042 96.5258 130.139 95.9239C130.235 95.3202 129.805 94.8295 129.179 94.8295H101.504C102.454 91.8499 102.717 88.7887 102.265 85.885H130.605C131.233 85.885 131.817 85.3962 131.913 84.7943C132.009 84.1906 131.579 83.6999 130.954 83.6999H101.778C101.118 81.4536 99.9943 79.3499 98.385 77.511C94.9313 73.5758 89.8961 71.6073 84.548 71.6073C81.3628 71.6073 78.0684 72.3054 74.9276 73.6999L76.5073 63.7906H94.9665L97.8072 45.985L98.1758 45.6758ZM125.281 119.272C125.909 119.272 126.492 118.783 126.591 118.178C126.687 117.576 126.257 117.087 125.631 117.087H81.6776C81.0535 117.087 80.4684 117.576 80.3721 118.178C80.2758 118.781 80.7054 119.272 81.3295 119.272H125.281ZM132.381 74.7573C133.009 74.7573 133.592 74.2684 133.689 73.6665C133.785 73.0628 133.355 72.5721 132.729 72.5721H102.935C102.309 72.5721 101.726 73.061 101.629 73.6665C101.533 74.2684 101.959 74.7573 102.587 74.7573H132.381Z" fill="#333333"/>
<path d="M135.376 135.928H65.0684C64.9462 135.928 64.8314 135.874 64.7518 135.782C64.6722 135.689 64.6388 135.567 64.6573 135.446L68.7536 109.769C68.774 109.637 68.8573 109.522 68.9777 109.463C69.0962 109.402 69.2388 109.404 69.3573 109.465C71.9462 110.806 74.9777 111.513 78.1259 111.513C82.4647 111.513 86.8147 110.226 90.7055 107.791C90.7722 107.75 90.8481 107.728 90.9259 107.728H127.055C127.478 107.728 127.889 107.387 127.952 106.985C127.978 106.822 127.941 106.671 127.846 106.559C127.746 106.441 127.589 106.376 127.404 106.376H93.9203C93.7444 106.376 93.5888 106.267 93.5296 106.102C93.4703 105.937 93.5184 105.754 93.6518 105.641C96.5518 103.197 98.8499 100.156 100.296 96.8483C100.363 96.6965 100.513 96.5984 100.678 96.5984H128.831C129.254 96.5984 129.665 96.2595 129.728 95.8576C129.754 95.6928 129.717 95.5409 129.622 95.4298C129.522 95.3113 129.365 95.2465 129.18 95.2465H101.504C101.37 95.2465 101.246 95.1835 101.167 95.0761C101.089 94.9687 101.067 94.8298 101.105 94.7039C102.033 91.7946 102.291 88.7669 101.852 85.9502C101.833 85.8298 101.868 85.7076 101.946 85.615C102.024 85.5224 102.141 85.4687 102.263 85.4687H130.604C131.026 85.4687 131.437 85.1298 131.5 84.728C131.526 84.5632 131.489 84.4113 131.394 84.3002C131.294 84.1817 131.137 84.1169 130.952 84.1169H101.778C101.593 84.1169 101.43 83.9946 101.378 83.8169C100.718 81.5669 99.6055 79.5372 98.0703 77.7854C94.8092 74.0706 90.0073 72.0243 84.5462 72.0243C81.3907 72.0243 78.1222 72.7354 75.0944 74.0817C74.9555 74.1428 74.7925 74.1243 74.6703 74.0317C74.5481 73.9391 74.4888 73.7872 74.5129 73.6354L76.0925 63.7261C76.124 63.5243 76.2999 63.3743 76.5036 63.3743H94.6073L97.3907 45.9187C97.4055 45.8206 97.4573 45.7298 97.5333 45.665L97.9036 45.3521C97.9796 45.2891 98.074 45.2539 98.1722 45.2539H149.704C149.826 45.2539 149.941 45.3076 150.02 45.4002C150.1 45.4928 150.133 45.615 150.115 45.7354L135.787 135.572C135.755 135.78 135.581 135.928 135.376 135.928ZM65.5555 135.095H135.02L149.215 46.0909H98.3277L98.1925 46.2058L95.3777 63.8595C95.3462 64.0613 95.1703 64.2113 94.9666 64.2113H76.8629L75.4573 73.0243C78.3925 71.8243 81.5184 71.1928 84.5481 71.1928C90.2518 71.1928 95.2777 73.3391 98.6981 77.2372C100.244 79.0039 101.383 81.0354 102.087 83.2835H130.955C131.381 83.2835 131.774 83.4576 132.031 83.7595C132.287 84.0595 132.393 84.4502 132.326 84.8595C132.196 85.6687 131.441 86.3021 130.605 86.3021H102.744C103.081 88.9298 102.848 91.7132 102.065 94.4132H129.18C129.605 94.4132 129.998 94.5872 130.255 94.8891C130.511 95.1891 130.617 95.5798 130.55 95.9891C130.42 96.7984 129.665 97.4317 128.83 97.4317H100.948C99.5907 100.435 97.5573 103.215 95.024 105.543H127.404C127.83 105.543 128.222 105.717 128.48 106.019C128.735 106.319 128.839 106.708 128.774 107.117C128.644 107.926 127.889 108.561 127.054 108.561H91.0444C87.0462 111.039 82.5814 112.346 78.124 112.346C75.0481 112.346 72.0759 111.696 69.4851 110.459L65.5555 135.095ZM125.281 119.689H81.3296C80.9055 119.689 80.5129 119.517 80.2555 119.213C79.9999 118.913 79.8944 118.522 79.961 118.111C80.0907 117.302 80.8444 116.669 81.6777 116.669H125.63C126.055 116.669 126.448 116.843 126.705 117.145C126.961 117.445 127.065 117.834 127 118.243C126.872 119.054 126.117 119.689 125.281 119.689ZM81.6777 117.504C81.2573 117.504 80.8481 117.843 80.7833 118.245C80.7573 118.409 80.7944 118.563 80.8888 118.674C80.9888 118.793 81.1462 118.858 81.3277 118.858H125.28C125.702 118.858 126.113 118.517 126.176 118.115C126.202 117.952 126.165 117.8 126.07 117.689C125.97 117.571 125.813 117.506 125.628 117.506H81.6777V117.504ZM132.381 75.1743H102.587C102.161 75.1743 101.77 75.0021 101.513 74.7002C101.257 74.4002 101.154 74.0113 101.218 73.6021C101.348 72.7909 102.102 72.1576 102.935 72.1576H132.73C133.155 72.1576 133.548 72.3317 133.805 72.6335C134.061 72.9335 134.167 73.3243 134.1 73.7335C133.972 74.5409 133.217 75.1743 132.381 75.1743ZM102.935 72.9891C102.515 72.9891 102.105 73.3298 102.041 73.7317C102.015 73.8965 102.052 74.0484 102.146 74.1576C102.246 74.2743 102.402 74.3391 102.587 74.3391H132.381C132.804 74.3391 133.215 74.0002 133.278 73.5983C133.304 73.4335 133.267 73.2817 133.172 73.1706C133.072 73.0521 132.915 72.9872 132.73 72.9872H102.935V72.9891Z" fill="#494949"/>
<g opacity="0.5">
<g opacity="0.6">
<path d="M73.6129 81.9297L73.1703 84.7093C73.1017 84.7612 73.0332 84.813 72.9666 84.8704C71.461 86.126 71.1369 88.1667 72.2406 89.4241C72.2888 89.4797 72.3406 89.5334 72.3943 89.5834L70.4758 101.609C70.3388 101.469 70.2036 101.324 70.074 101.176C67.7962 98.5778 66.9925 95.1723 67.5369 91.7686C68.0795 88.363 69.9684 84.9593 73.0758 82.363C73.2499 82.2149 73.4314 82.0704 73.6129 81.9297Z" fill="#808080"/>
</g>
</g>
<path d="M129.18 94.8301C129.807 94.8301 130.235 95.319 130.139 95.9245C130.043 96.5264 129.457 97.0153 128.831 97.0153H100.678C100.994 96.2949 101.27 95.5653 101.502 94.8301H129.18Z" fill="#808080"/>
<path d="M128.831 97.4317H100.677C100.537 97.4317 100.405 97.3613 100.329 97.2428C100.253 97.1243 100.24 96.9761 100.296 96.8484C100.609 96.1336 100.881 95.4132 101.105 94.7058C101.159 94.5317 101.32 94.415 101.503 94.415H129.179C129.605 94.415 129.998 94.5891 130.255 94.891C130.511 95.191 130.616 95.5817 130.55 95.991C130.422 96.7984 129.666 97.4317 128.831 97.4317ZM101.307 96.5984H128.831C129.253 96.5984 129.664 96.2595 129.727 95.8576C129.753 95.6928 129.716 95.541 129.622 95.4299C129.522 95.3113 129.364 95.2465 129.179 95.2465H101.805C101.657 95.6947 101.49 96.1465 101.307 96.5984Z" fill="#808080"/>
<path d="M127.405 105.958C128.033 105.958 128.461 106.447 128.365 107.049C128.268 107.652 127.683 108.143 127.055 108.143H90.9238C91.9257 107.517 92.8998 106.812 93.8349 106.03C93.8627 106.006 93.8924 105.982 93.9201 105.96H127.405V105.958Z" fill="#808080"/>
<path d="M127.056 108.56H90.9242C90.739 108.56 90.5742 108.437 90.5242 108.258C90.4724 108.08 90.5464 107.887 90.7038 107.789C91.6983 107.167 92.6613 106.467 93.5687 105.71L93.6464 105.645C93.7224 105.582 93.8224 105.543 93.9205 105.543H127.406C127.832 105.543 128.224 105.717 128.482 106.019C128.737 106.319 128.841 106.708 128.776 107.117C128.646 107.924 127.893 108.56 127.056 108.56ZM92.3057 107.726H127.056C127.478 107.726 127.889 107.386 127.952 106.984C127.978 106.821 127.941 106.669 127.846 106.558C127.746 106.439 127.589 106.374 127.404 106.374H94.0705C93.5039 106.849 92.9131 107.3 92.3057 107.726Z" fill="#808080"/>
<path d="M153.909 51.4091L153.25 55.5499L153.122 56.348L139.709 140.446H68.6887L65.0684 135.511H135.376L148.917 50.6147L149.705 45.6758L153.909 51.4091Z" fill="#AAAAAA"/>
<path d="M139.709 140.863H68.6906C68.5572 140.863 68.4332 140.8 68.3554 140.693L64.7332 135.757C64.6406 135.631 64.6258 135.463 64.698 135.322C64.7683 135.181 64.9128 135.094 65.0702 135.094H135.022L148.507 50.5481L149.296 45.6092C149.322 45.4425 149.446 45.3092 149.609 45.2703C149.774 45.2314 149.944 45.2925 150.042 45.4296L154.246 51.1629C154.313 51.2518 154.339 51.3648 154.322 51.474L153.535 56.4129L140.12 140.513C140.087 140.715 139.913 140.863 139.709 140.863ZM68.8998 140.03H139.352L152.711 56.2814L153.47 51.5148L149.959 46.7259L149.328 50.6796L135.787 135.576C135.755 135.778 135.579 135.928 135.376 135.928H65.8906L68.8998 140.03Z" fill="#333333"/>
<path d="M144.042 145.386L148.712 151.752H78.4008L73.7305 145.386H144.042Z" fill="#808080"/>
<path d="M148.712 152.169H78.4008C78.2675 152.169 78.1434 152.106 78.0656 151.998L73.3953 145.632C73.3027 145.506 73.2879 145.337 73.3601 145.197C73.4305 145.056 73.5749 144.969 73.7323 144.969H144.043C144.177 144.969 144.301 145.032 144.379 145.139L149.049 151.506C149.142 151.632 149.156 151.8 149.084 151.941C149.012 152.08 148.869 152.169 148.712 152.169ZM78.6119 151.335H147.89L143.83 145.802H74.5527L78.6119 151.335Z" fill="#333333"/>
<path d="M158.369 55.5508L144.042 145.386H73.7305L74.5175 140.447H139.71L153.249 55.5508H158.369Z" fill="#333333"/>
<path d="M144.042 145.802H73.7306C73.6083 145.802 73.4935 145.749 73.4139 145.656C73.3343 145.563 73.3009 145.441 73.3194 145.321L74.1065 140.384C74.138 140.182 74.3139 140.032 74.5176 140.032H139.355L152.838 55.4856C152.869 55.2838 153.045 55.1338 153.249 55.1338H158.369C158.492 55.1338 158.606 55.1875 158.686 55.2801C158.766 55.3727 158.799 55.4949 158.781 55.6153L144.453 145.45C144.421 145.652 144.247 145.802 144.042 145.802ZM74.2194 144.969H143.686L157.881 55.9671H153.605L140.121 140.513C140.09 140.715 139.914 140.865 139.71 140.865H74.8731L74.2194 144.969Z" fill="#333333"/>
<path d="M158.369 55.5498L163.039 61.9165L148.711 151.752L144.041 145.385L158.369 55.5498Z" fill="#AAAAAA"/>
<path d="M148.711 152.168C148.58 152.168 148.456 152.107 148.376 151.998L143.706 145.631C143.639 145.542 143.613 145.43 143.63 145.318L157.958 55.4832C157.984 55.3166 158.108 55.1832 158.271 55.1443C158.435 55.1054 158.606 55.1666 158.704 55.3036L163.374 61.6703C163.441 61.7592 163.467 61.8721 163.45 61.9832L149.123 151.818C149.097 151.985 148.973 152.118 148.81 152.157C148.776 152.165 148.743 152.168 148.711 152.168ZM144.48 145.278L148.456 150.7L162.598 62.0221L158.623 56.5999L144.48 145.278Z" fill="#333333"/>
<path d="M66.6502 108.24L42.3872 128.524C42.3298 128.572 42.2706 128.614 42.2113 128.659C42.1835 128.679 42.1576 128.699 42.1298 128.72C42.0817 128.753 42.0317 128.783 41.9835 128.814C41.9483 128.837 41.9132 128.861 41.878 128.881C41.852 128.896 41.8243 128.909 41.7983 128.924C41.7335 128.959 41.6669 128.994 41.6002 129.024C41.5761 129.035 41.552 129.044 41.528 129.053C41.4391 129.092 41.3502 129.125 41.2613 129.155C41.2206 129.17 41.178 129.183 41.1354 129.196C41.102 129.205 41.0669 129.216 41.0335 129.224C40.9798 129.237 40.9261 129.249 40.8724 129.261C40.8391 129.268 40.8057 129.274 40.7743 129.279C40.715 129.288 40.6576 129.296 40.5983 129.303C40.5706 129.307 40.5428 129.311 40.515 129.312C40.4298 129.32 40.3428 129.324 40.2576 129.324C39.5317 129.324 38.8502 129.057 38.3817 128.524L37.5169 127.538C37.4743 127.49 37.4354 127.44 37.3965 127.388L42.0669 133.755C42.1039 133.807 42.1446 133.857 42.1872 133.905L43.052 134.89C43.5206 135.424 44.202 135.69 44.928 135.69C45.0132 135.69 45.0983 135.687 45.1854 135.679C45.2132 135.677 45.2409 135.672 45.2687 135.67C45.328 135.662 45.3854 135.655 45.4446 135.646C45.478 135.64 45.5113 135.633 45.5428 135.627C45.5965 135.616 45.6502 135.605 45.7039 135.59C45.7391 135.581 45.7724 135.572 45.8057 135.562C45.8298 135.555 45.8557 135.549 45.8798 135.542C45.8965 135.537 45.9132 135.529 45.9317 135.522C46.0224 135.492 46.1113 135.457 46.1983 135.42C46.215 135.412 46.2335 135.407 46.252 135.399C46.2594 135.396 46.265 135.392 46.2724 135.39C46.3391 135.359 46.4039 135.325 46.4706 135.29C46.4946 135.277 46.5187 135.268 46.5428 135.253C46.5465 135.251 46.5483 135.25 46.5502 135.248C46.5854 135.227 46.6206 135.203 46.6557 135.181C46.7002 135.153 46.7465 135.127 46.7909 135.096C46.7946 135.094 46.7983 135.09 46.802 135.087C46.8298 135.068 46.8557 135.046 46.8835 135.025C46.928 134.992 46.9743 134.961 47.0169 134.925C47.0317 134.914 47.0446 134.903 47.0594 134.89L71.3224 114.607L66.6502 108.24Z" fill="#AAAAAA"/>
<path d="M44.9256 136.107C44.0479 136.107 43.2701 135.772 42.7367 135.165L41.8719 134.179C41.8219 134.122 41.7738 134.063 41.7293 134.002L37.0608 127.639C37.0608 127.637 37.059 127.637 37.059 127.635C36.9238 127.45 36.9627 127.189 37.1479 127.054C37.333 126.918 37.5941 126.957 37.7293 127.142L37.7312 127.146C37.7608 127.187 37.7923 127.226 37.8256 127.265L38.6904 128.25C39.0627 128.674 39.6182 128.907 40.2534 128.907C40.3275 128.907 40.3997 128.904 40.4738 128.896L40.5479 128.887C40.5979 128.881 40.6478 128.876 40.6997 128.867C40.7201 128.863 40.7423 128.859 40.7627 128.854L40.7867 128.848C40.833 128.839 40.8812 128.828 40.9275 128.817C40.9571 128.809 40.9886 128.8 41.0182 128.792C41.0553 128.781 41.0904 128.77 41.1275 128.757C41.2053 128.731 41.283 128.702 41.3608 128.668L41.4238 128.642C41.483 128.615 41.5404 128.585 41.5979 128.554L41.6682 128.517C41.683 128.507 41.6997 128.498 41.7145 128.487L41.7923 128.437C41.8256 128.417 41.8571 128.396 41.8904 128.374C41.9016 128.367 41.9127 128.357 41.9238 128.348L41.9775 128.307C42.0238 128.272 42.0719 128.239 42.1164 128.2L66.3793 107.917C66.4682 107.842 66.5812 107.809 66.696 107.822C66.8108 107.835 66.9127 107.896 66.9812 107.989L71.6516 114.355C71.7812 114.533 71.7515 114.781 71.583 114.922L47.2756 135.25C47.2367 135.281 47.1978 135.311 47.1571 135.339L47.1034 135.378C47.0812 135.394 47.059 135.411 47.0367 135.428C46.9867 135.463 46.9478 135.487 46.909 135.511L46.8404 135.554C46.8145 135.57 46.7886 135.587 46.7627 135.602C46.7553 135.607 46.7478 135.611 46.7404 135.615C46.7238 135.624 46.7016 135.635 46.6812 135.644L46.6645 135.652C46.5904 135.691 46.5182 135.729 46.4423 135.765C46.4441 135.765 46.4312 135.77 46.4201 135.776C46.4016 135.783 46.3812 135.792 46.3608 135.8C46.2608 135.842 46.1608 135.881 46.0608 135.915C46.0441 135.922 46.0219 135.929 46.0016 135.937C45.983 135.942 45.9608 135.948 45.9404 135.954L45.9201 135.959C45.8812 135.97 45.8423 135.981 45.8034 135.991C45.7423 136.005 45.683 136.02 45.6219 136.031L45.6016 136.035C45.5701 136.041 45.5404 136.048 45.509 136.054C45.4423 136.065 45.3756 136.074 45.3108 136.081L45.2867 136.085C45.2627 136.089 45.2404 136.091 45.2164 136.092C45.1127 136.104 45.0182 136.107 44.9256 136.107ZM39.5886 129.674L42.4034 133.511C42.433 133.552 42.4664 133.592 42.4997 133.631L43.3645 134.617C43.7793 135.091 44.4312 135.326 45.1479 135.265L45.2201 135.255C45.2701 135.25 45.3219 135.244 45.3719 135.235C45.3923 135.231 45.4145 135.228 45.4349 135.222L45.4571 135.218C45.5053 135.209 45.5516 135.198 45.5978 135.187C45.6275 135.179 45.6571 135.17 45.6886 135.163L45.7516 135.146C45.7627 135.141 45.7812 135.133 45.7978 135.128C45.8756 135.102 45.9553 135.072 46.033 135.037C46.0478 135.029 46.0645 135.024 46.0812 135.018L46.0941 135.013C46.1553 134.985 46.2127 134.954 46.2719 134.922C46.2867 134.913 46.3034 134.905 46.3182 134.898L46.3312 134.891C46.3349 134.887 46.3404 134.885 46.3441 134.883C46.3571 134.876 46.3738 134.865 46.3904 134.855L46.4775 134.802C46.5034 134.787 46.5293 134.77 46.5534 134.754C46.5756 134.737 46.5867 134.729 46.5978 134.72L46.6682 134.667C46.696 134.646 46.7238 134.626 46.7516 134.604L46.7886 134.574L70.7534 114.541L66.5775 108.846L42.6534 128.844C42.5941 128.892 42.5349 128.939 42.4738 128.983L42.433 129.015C42.4108 129.031 42.3904 129.048 42.3682 129.063C42.3238 129.092 42.2793 129.12 42.2349 129.148L42.1701 129.189C42.1423 129.207 42.1145 129.224 42.0867 129.241C42.0645 129.254 42.0423 129.265 42.0201 129.276L41.996 129.289C41.9238 129.328 41.8497 129.367 41.7756 129.402C41.7553 129.411 41.7349 129.42 41.7127 129.428L41.6923 129.437C41.5941 129.479 41.4941 129.518 41.3923 129.552C41.346 129.568 41.2978 129.583 41.2516 129.596C41.2127 129.607 41.1738 129.618 41.1349 129.628C41.0756 129.642 41.0145 129.657 40.9534 129.668L40.933 129.672C40.9034 129.678 40.8719 129.685 40.8423 129.689C40.7756 129.7 40.7108 129.709 40.6441 129.717L40.6182 129.72C40.596 129.724 40.5719 129.726 40.5479 129.728C40.4441 129.737 40.3479 129.741 40.2553 129.741C40.0256 129.741 39.8016 129.718 39.5886 129.674Z" fill="#333333"/>
<path d="M102.265 85.8853C102.15 85.1464 101.987 84.4149 101.776 83.7001C101.118 81.452 99.9925 79.3501 98.3833 77.5112C94.9296 73.576 89.8944 71.6094 84.5462 71.6094C81.3592 71.6094 78.0648 72.3057 74.9259 73.7038C72.7888 74.6538 70.7259 75.9242 68.8185 77.5186C60.3944 84.5594 57.8814 95.5223 62.3981 103.393L38.1314 123.68C36.8574 124.743 36.5833 126.47 37.5166 127.539L38.3814 128.524C38.8481 129.058 39.5333 129.326 40.2555 129.326C40.9814 129.326 41.7499 129.058 42.3851 128.524L66.6499 108.243C67.4425 108.845 68.2833 109.378 69.1629 109.833C71.8592 111.228 74.937 111.928 78.124 111.928C82.4092 111.928 86.8925 110.669 90.924 108.143C91.9277 107.517 92.8999 106.811 93.9222 105.958C96.9796 103.378 99.2499 100.283 100.68 97.0112C100.993 96.2946 101.27 95.5612 101.502 94.826C102.452 91.852 102.717 88.7872 102.265 85.8853ZM89.624 101.222C86.4999 103.835 82.7444 105.139 79.1962 105.139C75.6499 105.139 72.3111 103.833 70.0222 101.222C65.4388 96.0001 66.7888 87.5372 73.0351 82.3186C76.1592 79.7057 79.9148 78.402 83.4629 78.402C87.0092 78.402 90.3481 79.7075 92.637 82.3186C92.7036 82.3946 92.7666 82.4686 92.8259 82.5446C93.124 82.9038 93.3981 83.2797 93.6425 83.6631C94.0851 84.3594 94.4351 85.0909 94.7055 85.8575C94.8444 86.2464 94.9592 86.6446 95.0499 87.0483C95.5499 89.2094 95.424 91.5353 94.7055 93.7909C94.5944 94.1427 94.4666 94.4964 94.3259 94.8446C94.024 95.5927 93.6574 96.3279 93.2259 97.0409C93.0185 97.3835 92.7981 97.7223 92.5592 98.0557C91.7555 99.1946 90.7722 100.265 89.624 101.222Z" fill="#AAAAAA"/>
<path d="M40.256 129.742C39.3783 129.742 38.6005 129.407 38.069 128.798L37.2042 127.813C36.7264 127.265 36.4968 126.544 36.556 125.785C36.6283 124.878 37.1042 123.992 37.8653 123.359L61.8671 103.294C59.7542 99.4239 59.2153 94.735 60.3523 90.0461C61.5283 85.1998 64.4412 80.6368 68.5542 77.1979C70.4505 75.6128 72.5394 74.309 74.7597 73.322C77.8894 71.9294 81.2746 71.1924 84.5505 71.1924C90.2542 71.1924 95.2801 73.3387 98.7005 77.2368C100.319 79.085 101.489 81.2202 102.18 83.5831C102.393 84.3072 102.562 85.059 102.68 85.8202C103.139 88.7627 102.869 91.922 101.902 94.9535C101.671 95.6887 101.389 96.4368 101.065 97.1776C99.569 100.602 97.1912 103.746 94.1931 106.276C93.1783 107.124 92.182 107.85 91.1468 108.494C87.1283 111.011 82.6264 112.342 78.1264 112.342C74.8468 112.342 71.682 111.602 68.9746 110.202C68.1783 109.791 67.4042 109.309 66.6672 108.772L42.6523 128.844C41.9616 129.422 41.1116 129.742 40.256 129.742ZM84.5486 72.0257C81.3894 72.0257 78.1209 72.7368 75.0968 74.0831C72.9468 75.0387 70.9246 76.3016 69.0875 77.8368C60.9134 84.6683 58.2523 95.3294 62.7616 103.183C62.8616 103.359 62.8227 103.581 62.6671 103.711L38.3986 123.998C37.8097 124.491 37.4394 125.165 37.3857 125.85C37.3431 126.385 37.5005 126.887 37.8301 127.263L38.6949 128.248C39.0671 128.674 39.6209 128.907 40.256 128.907C40.9153 128.907 41.5783 128.657 42.119 128.203L66.3838 107.922C66.5338 107.798 66.7486 107.792 66.9042 107.911C67.6801 108.502 68.5042 109.024 69.356 109.463C71.9449 110.802 74.9783 111.511 78.1264 111.511C82.469 111.511 86.819 110.224 90.7042 107.791C91.706 107.165 92.6727 106.461 93.656 105.639C96.556 103.194 98.8523 100.153 100.299 96.8461C100.612 96.1313 100.882 95.4109 101.106 94.7035C102.034 91.7924 102.293 88.7665 101.854 85.9498C101.741 85.2257 101.582 84.509 101.378 83.8202C100.723 81.5739 99.6097 79.5442 98.0709 77.7868C94.8116 74.072 90.0079 72.0257 84.5486 72.0257ZM79.1968 105.555C75.3727 105.555 72.0023 104.115 69.7079 101.496C67.6597 99.1628 66.6727 96.0739 66.9264 92.7961C67.2375 88.7757 69.3671 84.8387 72.7672 81.9979C75.8634 79.409 79.6616 77.9831 83.4634 77.9831C87.2875 77.9831 90.6579 79.4239 92.9523 82.0424C93.0227 82.122 93.0894 82.2016 93.1542 82.2831C93.4542 82.6442 93.7394 83.035 93.9968 83.4368C94.4431 84.1368 94.8153 84.9035 95.1023 85.7146C95.2449 86.1146 95.3653 86.5313 95.4597 86.9535C95.9727 89.1665 95.8505 91.5739 95.106 93.9146C94.9894 94.2813 94.8579 94.6461 94.7153 94.9998C94.406 95.7683 94.0264 96.5257 93.5857 97.2553C93.3616 97.6239 93.1394 97.9646 92.9023 98.2979C92.0579 99.4887 91.0449 100.579 89.8931 101.542C86.7968 104.129 82.9986 105.555 79.1968 105.555ZM83.4634 78.8165C79.8579 78.8165 76.2486 80.1739 73.3023 82.6368C70.0727 85.335 68.0505 89.0628 67.7579 92.8609C67.5209 95.9128 68.4375 98.7831 70.3357 100.946C72.469 103.381 75.6171 104.722 79.1968 104.722C82.8023 104.722 86.4116 103.365 89.3579 100.902C90.456 99.985 91.419 98.9461 92.2227 97.8146C92.4468 97.4979 92.6597 97.1757 92.8727 96.8239C93.2894 96.1331 93.6486 95.4146 93.9431 94.6868C94.0783 94.3535 94.2023 94.009 94.3116 93.6627C95.0097 91.4646 95.1264 89.209 94.6468 87.1387C94.5597 86.7479 94.4486 86.3627 94.3172 85.9942C94.0505 85.2405 93.706 84.5313 93.2949 83.885C93.0579 83.5128 92.7931 83.1498 92.5097 82.809C92.4486 82.7331 92.3894 82.6628 92.3283 82.5924C90.1912 80.1572 87.0431 78.8165 83.4634 78.8165Z" fill="#333333"/>
<path d="M79.7041 89.0077C79.6671 88.9021 79.6208 88.8021 79.5578 88.7077C79.5189 88.6429 79.4727 88.5817 79.4208 88.5225C79.1078 88.1669 78.6523 87.9873 78.1671 87.9873C78.1282 87.9873 78.0893 87.9892 78.0486 87.991C77.5986 88.0169 77.1338 88.1947 76.7412 88.5225C76.2449 88.9373 75.9745 89.5021 75.9597 90.0429C75.9486 90.4318 76.0689 90.8077 76.3301 91.1058C76.643 91.4614 77.0986 91.641 77.5838 91.641C78.069 91.641 78.5819 91.4632 79.0078 91.1058C79.2097 90.9355 79.3764 90.7429 79.5023 90.5336C79.5615 90.4373 79.6097 90.3373 79.6523 90.2336C79.819 89.8262 79.8393 89.391 79.7041 89.0077Z" fill="#333333"/>
<path d="M78.1871 85.724C78.1223 85.5388 78.0353 85.3629 77.9297 85.1963C77.8575 85.0833 77.7797 84.9759 77.689 84.8722C77.1371 84.2426 76.3316 83.9277 75.4778 83.9277C74.6982 83.9277 73.8797 84.1888 73.1704 84.7111C73.1019 84.7629 73.0334 84.8148 72.9667 84.8703C71.4612 86.1259 71.1371 88.1666 72.2408 89.424C72.2908 89.4796 72.3408 89.5333 72.3945 89.5833C72.9353 90.1055 73.6723 90.3648 74.4519 90.3648C74.9519 90.3648 75.4704 90.2574 75.9649 90.0425C76.3149 89.8907 76.6519 89.6833 76.9649 89.424C77.3204 89.124 77.613 88.7833 77.8334 88.4166C77.9167 88.2777 77.9908 88.1351 78.0519 87.9907C78.0667 87.9555 78.0816 87.9222 78.0945 87.887C78.3871 87.1666 78.4223 86.4 78.1871 85.724Z" fill="#333333"/>
<path d="M139.709 140.447H68.6887L65.0684 135.512H135.376L139.709 140.447Z" fill="#808080"/>
<path d="M139.709 140.863H68.6906C68.5572 140.863 68.4332 140.8 68.3554 140.693L64.7332 135.758C64.6406 135.632 64.6258 135.463 64.698 135.323C64.7683 135.182 64.9128 135.095 65.0702 135.095H135.378C135.498 135.095 135.611 135.147 135.691 135.237L140.024 140.173C140.131 140.295 140.157 140.471 140.091 140.619C140.02 140.769 139.872 140.863 139.709 140.863ZM68.8998 140.03H138.787L135.185 135.928H65.8887L68.8998 140.03Z" fill="#333333"/>
<path d="M130.953 83.7002C131.581 83.7002 132.009 84.1891 131.913 84.7946C131.816 85.3965 131.231 85.8854 130.605 85.8854H102.264C102.15 85.1465 101.987 84.4132 101.777 83.7002H130.953Z" fill="#808080"/>
<path d="M130.606 86.3017H102.265C102.06 86.3017 101.886 86.1517 101.854 85.948C101.743 85.2276 101.584 84.511 101.378 83.8165C101.341 83.6906 101.365 83.5536 101.445 83.4499C101.523 83.3443 101.647 83.2832 101.778 83.2832H130.956C131.382 83.2832 131.775 83.4573 132.032 83.7591C132.288 84.0591 132.393 84.4499 132.326 84.8591C132.197 85.6684 131.441 86.3017 130.606 86.3017ZM102.619 85.4684H130.606C131.028 85.4684 131.439 85.1295 131.502 84.7276C131.528 84.5628 131.491 84.411 131.397 84.2999C131.297 84.1813 131.139 84.1165 130.954 84.1165H102.325C102.441 84.5628 102.539 85.0147 102.619 85.4684Z" fill="#808080"/>
<path d="M132.729 72.5723C133.357 72.5723 133.784 73.0611 133.688 73.6667C133.592 74.2686 133.007 74.7574 132.381 74.7574H102.586C101.96 74.7574 101.532 74.2686 101.629 73.6667C101.725 73.063 102.308 72.5723 102.934 72.5723H132.729Z" fill="#808080"/>
<path d="M132.381 75.1739H102.587C102.161 75.1739 101.77 75.0017 101.512 74.6998C101.257 74.3998 101.153 74.0109 101.218 73.6017C101.348 72.7924 102.101 72.1572 102.935 72.1572H132.729C133.155 72.1572 133.548 72.3313 133.805 72.6332C134.061 72.9332 134.166 73.3239 134.1 73.7332C133.972 74.5406 133.216 75.1739 132.381 75.1739ZM102.935 72.9887C102.514 72.9887 102.105 73.3294 102.04 73.7313C102.014 73.8961 102.051 74.048 102.146 74.1591C102.246 74.2757 102.401 74.3406 102.587 74.3406H132.381C132.803 74.3406 133.214 74.0017 133.277 73.5998C133.303 73.435 133.266 73.2832 133.172 73.172C133.072 73.0535 132.914 72.9887 132.729 72.9887H102.935Z" fill="#808080"/>
<path d="M125.63 117.088C126.258 117.088 126.686 117.577 126.59 118.179C126.493 118.782 125.908 119.273 125.28 119.273H81.3303C80.7062 119.273 80.2766 118.784 80.3729 118.179C80.4692 117.577 81.0543 117.088 81.6784 117.088H125.63Z" fill="#808080"/>
<path d="M125.281 119.689H81.3295C80.9055 119.689 80.5147 119.517 80.2573 119.215C80.0018 118.915 79.8962 118.525 79.9629 118.113C80.0925 117.304 80.8462 116.671 81.6795 116.671H125.63C126.055 116.671 126.448 116.845 126.705 117.147C126.961 117.447 127.065 117.836 127 118.245C126.872 119.054 126.117 119.689 125.281 119.689ZM81.6777 117.504C81.2573 117.504 80.8481 117.843 80.7833 118.245C80.7573 118.41 80.7944 118.563 80.8888 118.675C80.9888 118.793 81.1444 118.858 81.3277 118.858H125.28C125.702 118.858 126.113 118.517 126.176 118.115C126.202 117.952 126.165 117.801 126.07 117.689C125.97 117.571 125.813 117.506 125.628 117.506H81.6777V117.504Z" fill="#808080"/>
<path d="M106.936 92.2526C106.902 92.0396 106.865 91.8267 106.824 91.6155C106.821 91.5952 106.817 91.5748 106.813 91.5544C106.806 91.5155 106.795 91.4767 106.787 91.4359C106.752 91.2637 106.713 91.0915 106.673 90.9211C106.658 90.8581 106.643 90.7933 106.626 90.7304C106.571 90.5081 106.512 90.2878 106.449 90.0692C106.361 89.7711 106.262 89.4767 106.158 89.1841C106.145 89.147 106.136 89.11 106.121 89.0729C106.108 89.0341 106.089 88.997 106.076 88.96C105.978 88.6933 105.874 88.4304 105.761 88.1692C105.752 88.1452 105.743 88.1229 105.732 88.0989C105.61 87.8192 105.476 87.5433 105.339 87.2692C105.323 87.2378 105.31 87.2063 105.295 87.1748C105.273 87.1304 105.245 87.0859 105.223 87.0415C105.128 86.8618 105.03 86.6859 104.93 86.5081C104.887 86.4359 104.849 86.3618 104.804 86.2896C104.661 86.0489 104.513 85.81 104.356 85.5748C104.356 85.5729 104.354 85.5729 104.354 85.5711C104.223 85.3748 104.087 85.1804 103.947 84.9878L99.2763 78.6211C99.4189 78.8137 99.5541 79.01 99.6874 79.2081C99.8448 79.4433 99.993 79.6822 100.136 79.9229C100.178 79.9952 100.219 80.0692 100.261 80.1415C100.361 80.3174 100.46 80.4952 100.554 80.6729C100.595 80.7489 100.634 80.8248 100.673 80.9007C100.812 81.1748 100.943 81.4507 101.065 81.7304C101.074 81.7526 101.084 81.7767 101.093 81.8007C101.206 82.0618 101.31 82.3248 101.408 82.5915C101.436 82.6655 101.463 82.7415 101.489 82.8155C101.593 83.1081 101.691 83.4026 101.778 83.7007C101.843 83.9192 101.9 84.1396 101.956 84.3618C101.973 84.4266 101.987 84.4896 102.002 84.5544C102.043 84.7248 102.08 84.8952 102.115 85.0674C102.128 85.1285 102.141 85.1878 102.152 85.2489C102.193 85.46 102.232 85.6729 102.263 85.8859C102.715 88.7878 102.45 91.8507 101.502 94.8304C101.271 95.5655 100.993 96.2952 100.678 97.0155C100.613 97.1637 100.545 97.31 100.478 97.4563C100.424 97.5711 100.371 97.6859 100.315 97.8007C100.269 97.8952 100.223 97.9915 100.176 98.0859C100.119 98.2007 100.06 98.3137 100 98.4285C99.9522 98.5229 99.9022 98.6155 99.8522 98.7081C99.7911 98.823 99.7282 98.9359 99.6633 99.0507C99.6115 99.1433 99.5597 99.2341 99.5078 99.3266C99.4411 99.4396 99.3745 99.5544 99.3059 99.6674C99.2559 99.7507 99.2078 99.8322 99.1559 99.9155C98.9782 100.203 98.7948 100.488 98.6041 100.769C98.5671 100.825 98.5282 100.88 98.4893 100.938C98.293 101.225 98.0893 101.508 97.8782 101.79C97.8522 101.823 97.8263 101.856 97.8022 101.888C97.6337 102.108 97.4615 102.327 97.2856 102.543C97.2374 102.603 97.1893 102.662 97.1393 102.723C96.9393 102.964 96.7337 103.204 96.5226 103.44C96.4893 103.477 96.4559 103.512 96.4226 103.549C96.2504 103.74 96.0745 103.927 95.8948 104.114C95.8356 104.177 95.7745 104.238 95.7133 104.299C95.5245 104.491 95.33 104.684 95.1337 104.871C95.1059 104.899 95.0782 104.927 95.0504 104.953C94.9319 105.064 94.8115 105.173 94.6911 105.284C94.6263 105.343 94.5615 105.404 94.4948 105.464C94.3059 105.632 94.1152 105.797 93.9208 105.962C93.6782 106.166 93.4374 106.358 93.1985 106.545C93.1819 106.558 93.1652 106.571 93.1485 106.584C92.9245 106.758 92.7022 106.925 92.48 107.088C92.443 107.116 92.4041 107.143 92.3671 107.171C92.1671 107.316 91.9671 107.456 91.7671 107.591C91.4874 107.782 91.2059 107.967 90.9245 108.145C90.6467 108.319 90.3671 108.486 90.0837 108.647C90.0097 108.69 89.9356 108.729 89.8615 108.771C89.6134 108.91 89.3652 109.045 89.1152 109.175C89.0208 109.223 88.9263 109.273 88.8319 109.321C88.5578 109.46 88.2819 109.591 88.0041 109.719C87.9541 109.741 87.9059 109.766 87.8559 109.788C87.7911 109.817 87.7245 109.845 87.6596 109.873C87.4782 109.953 87.2967 110.032 87.1134 110.106C87.0226 110.143 86.9319 110.178 86.8411 110.216C86.6819 110.278 86.5208 110.341 86.3615 110.403C86.2652 110.44 86.1671 110.475 86.0708 110.51C85.9134 110.567 85.7559 110.621 85.5985 110.675C85.5022 110.708 85.4059 110.74 85.3078 110.771C85.1782 110.814 85.0467 110.853 84.9171 110.893C84.7578 110.941 84.5967 110.99 84.4374 111.036C84.3134 111.071 84.1893 111.104 84.0634 111.138C83.9041 111.18 83.7467 111.221 83.5874 111.26C83.4615 111.291 83.3356 111.321 83.2115 111.349C83.0522 111.386 82.893 111.419 82.7337 111.453C82.6097 111.479 82.4837 111.504 82.3596 111.527C82.1985 111.556 82.0374 111.586 81.8763 111.612C81.7541 111.632 81.63 111.653 81.5078 111.671C81.343 111.695 81.1782 111.717 81.0152 111.74C80.8967 111.754 80.7763 111.771 80.6578 111.786C80.4856 111.806 80.3152 111.821 80.1448 111.836C80.0337 111.845 79.9208 111.858 79.8096 111.866C79.6208 111.88 79.4337 111.89 79.2467 111.899C79.1522 111.904 79.0596 111.91 78.9652 111.914C78.6837 111.925 78.4041 111.93 78.1245 111.93C74.9374 111.93 71.8615 111.232 69.1634 109.836C68.2819 109.38 67.4411 108.849 66.6504 108.243L71.3208 114.61C72.1115 115.216 72.9522 115.745 73.8337 116.203C76.53 117.599 79.6078 118.297 82.793 118.297C83.0726 118.297 83.3522 118.291 83.6337 118.28C83.7282 118.277 83.8208 118.269 83.9152 118.266C84.1022 118.256 84.2911 118.247 84.4782 118.232C84.5893 118.223 84.7004 118.212 84.8115 118.203C84.9837 118.188 85.1541 118.171 85.3263 118.153C85.4448 118.14 85.5634 118.123 85.6819 118.108C85.8467 118.086 86.0115 118.066 86.1763 118.04C86.2985 118.021 86.4226 118.001 86.5448 117.98C86.7059 117.953 86.8671 117.925 87.0282 117.895C87.1522 117.871 87.2782 117.847 87.4022 117.821C87.5615 117.788 87.7208 117.754 87.88 117.717C88.0059 117.69 88.13 117.66 88.2541 117.629C88.4134 117.59 88.5726 117.549 88.7319 117.506C88.8559 117.473 88.98 117.44 89.1041 117.404C89.2652 117.358 89.4245 117.31 89.5856 117.262C89.6652 117.238 89.7467 117.216 89.8263 117.191C89.8763 117.175 89.9263 117.158 89.9763 117.141C90.0726 117.11 90.1689 117.077 90.2671 117.045C90.4245 116.991 90.5819 116.938 90.7393 116.88C90.8356 116.845 90.9337 116.81 91.03 116.773C91.1911 116.714 91.3504 116.651 91.5096 116.586C91.6004 116.549 91.6911 116.514 91.7819 116.477C91.9652 116.401 92.1467 116.323 92.3282 116.243C92.393 116.214 92.4597 116.188 92.5245 116.158C92.5356 116.153 92.5485 116.147 92.5597 116.143C92.5967 116.127 92.6337 116.106 92.6708 116.09C92.9485 115.962 93.2245 115.83 93.4985 115.691C93.593 115.643 93.6874 115.595 93.7819 115.545C94.0319 115.416 94.2819 115.28 94.5282 115.141C94.5819 115.112 94.6356 115.086 94.6874 115.054C94.7078 115.043 94.73 115.029 94.7504 115.017C95.0319 114.856 95.3134 114.69 95.5911 114.516C95.8745 114.338 96.1541 114.153 96.4337 113.962C96.4596 113.945 96.4837 113.929 96.5097 113.912C96.6837 113.791 96.8596 113.667 97.0337 113.541C97.0708 113.514 97.1097 113.486 97.1467 113.458C97.3689 113.295 97.5911 113.129 97.8134 112.954C97.83 112.941 97.8467 112.929 97.8634 112.916C97.9819 112.823 98.1022 112.729 98.2208 112.63C98.3411 112.532 98.4633 112.432 98.5837 112.33C98.7782 112.166 98.9689 112.001 99.1578 111.832C99.2245 111.773 99.2874 111.714 99.3522 111.654C99.4726 111.543 99.5948 111.434 99.7134 111.321C99.7189 111.316 99.7263 111.31 99.7319 111.304C99.7541 111.284 99.7745 111.262 99.7948 111.241C99.993 111.053 100.186 110.86 100.376 110.667C100.437 110.606 100.497 110.543 100.556 110.482C100.736 110.295 100.911 110.108 101.084 109.917C101.11 109.89 101.137 109.862 101.162 109.834C101.169 109.827 101.174 109.817 101.182 109.81C101.393 109.573 101.599 109.334 101.799 109.093C101.849 109.034 101.897 108.975 101.945 108.916C102.121 108.699 102.295 108.48 102.461 108.26C102.48 108.234 102.502 108.21 102.521 108.184C102.526 108.177 102.532 108.169 102.537 108.162C102.749 107.88 102.952 107.597 103.149 107.31C103.187 107.254 103.224 107.199 103.263 107.143C103.454 106.86 103.639 106.575 103.817 106.288C103.828 106.269 103.841 106.253 103.852 106.234C103.891 106.169 103.928 106.104 103.967 106.04C104.036 105.927 104.102 105.814 104.169 105.699C104.223 105.606 104.273 105.514 104.324 105.423C104.387 105.31 104.45 105.197 104.511 105.082C104.561 104.99 104.611 104.895 104.66 104.801C104.719 104.688 104.778 104.573 104.834 104.458C104.882 104.364 104.928 104.269 104.974 104.173C105.03 104.058 105.084 103.943 105.137 103.828C105.16 103.778 105.186 103.73 105.208 103.68C105.252 103.582 105.295 103.486 105.337 103.388C105.654 102.667 105.93 101.938 106.162 101.203C107.123 98.2192 107.387 95.1563 106.936 92.2526Z" fill="#808080"/>
<path d="M82.7925 118.713C79.511 118.713 76.348 117.972 73.6406 116.571C72.7314 116.1 71.8666 115.552 71.0647 114.939C71.0332 114.915 71.0055 114.887 70.9814 114.854L66.311 108.487C66.1888 108.321 66.2073 108.089 66.3555 107.943C66.5036 107.798 66.7351 107.784 66.8999 107.91C67.661 108.493 68.4851 109.015 69.3517 109.463C71.9406 110.804 74.9721 111.511 78.1203 111.511C78.3814 111.511 78.6592 111.506 78.9443 111.495C78.998 111.493 79.0499 111.489 79.1036 111.485L79.2203 111.478C79.4055 111.469 79.5888 111.459 79.774 111.445C79.8462 111.439 79.9184 111.432 79.9888 111.426L80.1017 111.415C80.274 111.4 80.4406 111.384 80.6055 111.365C80.6925 111.356 80.7795 111.343 80.8666 111.332L80.9573 111.321C81.1184 111.3 81.2795 111.278 81.4425 111.254C81.5499 111.237 81.6592 111.219 81.7666 111.2L81.8036 111.195C81.961 111.169 82.1203 111.141 82.2777 111.111C82.3999 111.087 82.5221 111.063 82.6462 111.037C82.8018 111.006 82.9592 110.971 83.1147 110.935C83.2388 110.908 83.361 110.878 83.4851 110.848C83.6406 110.809 83.798 110.771 83.9536 110.728C84.0758 110.695 84.198 110.663 84.3203 110.628C84.4777 110.584 84.6351 110.535 84.7925 110.487L84.8443 110.471C84.9555 110.437 85.0666 110.402 85.1758 110.367C85.2721 110.335 85.3666 110.304 85.461 110.272C85.6166 110.221 85.7703 110.167 85.9258 110.11C86.0203 110.074 86.1166 110.041 86.211 110.004C86.3684 109.945 86.5258 109.884 86.6832 109.821L86.7555 109.793C86.8203 109.767 86.8869 109.741 86.9518 109.715C87.1314 109.641 87.3092 109.563 87.4888 109.485L87.574 109.448C87.6092 109.434 87.6462 109.417 87.6814 109.402L87.8258 109.334C88.0925 109.211 88.3666 109.08 88.6388 108.943C88.7314 108.897 88.8258 108.848 88.9184 108.8C89.1629 108.674 89.4092 108.541 89.6536 108.404L89.7443 108.354C89.7869 108.33 89.8295 108.308 89.8721 108.284C90.1758 108.109 90.4462 107.948 90.698 107.789C90.9555 107.628 91.2258 107.45 91.5277 107.245C91.724 107.109 91.9221 106.972 92.1184 106.83L92.2295 106.748C92.4703 106.572 92.6851 106.409 92.8869 106.252L92.9369 106.211C93.1869 106.015 93.4203 105.826 93.6462 105.637C93.8369 105.476 94.024 105.313 94.2092 105.148C94.2481 105.113 94.2851 105.078 94.324 105.043L94.4499 104.928C94.5518 104.835 94.6555 104.741 94.7555 104.647L94.8388 104.567C95.0258 104.387 95.2129 104.204 95.411 104.002C95.4703 103.941 95.5295 103.88 95.5888 103.819C95.7647 103.635 95.9388 103.45 96.1073 103.263L96.2055 103.158C96.4018 102.939 96.5999 102.708 96.8129 102.452L96.9573 102.276C97.1406 102.052 97.3073 101.841 97.4647 101.632L97.5406 101.535C97.7332 101.28 97.9295 101.006 98.1406 100.698L98.2536 100.534C98.4462 100.25 98.6277 99.9669 98.7962 99.6947C98.8388 99.6243 98.8814 99.5539 98.924 99.4836L98.9425 99.4521C99.0092 99.341 99.0758 99.2299 99.1406 99.1169C99.1869 99.0373 99.2314 98.9576 99.2758 98.878L99.2943 98.8447C99.3573 98.7336 99.4184 98.6206 99.4795 98.5095C99.5295 98.4188 99.5777 98.3262 99.6258 98.2336C99.6832 98.1225 99.7406 98.0095 99.798 97.8984C99.8443 97.8058 99.8906 97.7132 99.9351 97.6188C99.9888 97.5058 100.042 97.3947 100.094 97.2817L100.111 97.2428C100.172 97.1113 100.233 96.9799 100.291 96.8484C100.604 96.1336 100.878 95.4132 101.1 94.7039C102.028 91.7928 102.285 88.7669 101.846 85.9502C101.817 85.7576 101.781 85.5539 101.737 85.328L101.7 85.1502C101.665 84.9817 101.63 84.8151 101.589 84.6484L101.542 84.4595C101.481 84.2132 101.426 84.0076 101.368 83.8169C101.292 83.5595 101.204 83.2854 101.085 82.9521C101.059 82.8799 101.033 82.8058 101.005 82.7336C100.9 82.4502 100.8 82.1984 100.698 81.9632L100.67 81.8947C100.563 81.6484 100.439 81.3854 100.287 81.0873C100.25 81.0132 100.211 80.9391 100.172 80.8651C100.08 80.691 99.9851 80.5188 99.8869 80.3465L99.848 80.2799C99.8203 80.2317 99.7925 80.1817 99.7629 80.1336C99.6073 79.8725 99.4647 79.6447 99.3258 79.4373C99.1962 79.2428 99.061 79.0502 98.9258 78.865C98.7906 78.6799 98.8295 78.4188 99.0147 78.2836C99.1999 78.1484 99.461 78.1873 99.5962 78.3725L99.5981 78.3743L104.267 84.7391C104.409 84.9336 104.55 85.1354 104.685 85.3373C104.687 85.341 104.689 85.3447 104.692 85.3484C104.839 85.5688 104.987 85.8058 105.148 86.0743C105.18 86.1262 105.207 86.178 105.237 86.228L105.276 86.2965C105.38 86.478 105.48 86.6595 105.576 86.8428L105.602 86.891C105.618 86.9206 105.635 86.9502 105.65 86.9799C105.661 87.0002 105.67 87.0225 105.68 87.0428L105.694 87.0762C105.852 87.3873 105.983 87.665 106.098 87.928L106.128 87.9984C106.237 88.2539 106.342 88.5188 106.452 88.8113L106.467 88.8502C106.478 88.8762 106.489 88.9021 106.498 88.9299C106.507 88.9539 106.515 88.9799 106.522 89.0058L106.535 89.0447C106.657 89.3873 106.752 89.6762 106.831 89.9502C106.891 90.1521 106.948 90.3669 107.015 90.6262C107.028 90.6762 107.039 90.728 107.052 90.778L107.063 90.8225C107.105 90.9984 107.144 91.1743 107.18 91.3502L107.191 91.3965C107.196 91.4206 107.202 91.4447 107.207 91.4706L107.218 91.5354C107.265 91.7762 107.302 91.9891 107.333 92.1891C107.791 95.1336 107.524 98.291 106.557 101.322C106.326 102.056 106.042 102.806 105.717 103.548C105.674 103.647 105.63 103.747 105.585 103.845C105.57 103.876 105.557 103.906 105.542 103.935L105.513 103.997C105.459 104.113 105.404 104.23 105.348 104.345C105.302 104.443 105.254 104.539 105.205 104.635C105.148 104.752 105.089 104.867 105.028 104.984C104.978 105.08 104.928 105.174 104.876 105.271C104.813 105.387 104.75 105.502 104.685 105.617L104.657 105.667C104.615 105.745 104.57 105.822 104.526 105.898C104.459 106.015 104.391 106.13 104.32 106.245L104.272 106.324C104.25 106.363 104.226 106.402 104.204 106.441L104.178 106.482C103.992 106.78 103.804 107.072 103.605 107.365L103.489 107.534C103.268 107.854 103.065 108.137 102.867 108.4L102.789 108.502C102.626 108.715 102.45 108.941 102.263 109.169L102.244 109.193C102.202 109.245 102.159 109.298 102.115 109.35C101.894 109.615 101.691 109.854 101.487 110.08L101.465 110.106C101.45 110.122 101.433 110.141 101.417 110.158L101.385 110.191C101.209 110.384 101.031 110.574 100.85 110.763C100.789 110.826 100.728 110.889 100.667 110.952C100.461 111.161 100.267 111.352 100.076 111.535L100.054 111.558C100.039 111.572 100.026 111.585 100.011 111.6C100.009 111.602 99.9962 111.613 99.9943 111.615C99.8906 111.713 99.7851 111.809 99.6795 111.906L99.5518 112.024C99.511 112.061 99.4703 112.1 99.4277 112.137C99.2369 112.308 99.0425 112.476 98.8443 112.643C98.7203 112.747 98.5981 112.848 98.4758 112.947C98.3536 113.045 98.2332 113.141 98.1129 113.235L98.0629 113.276C97.8517 113.441 97.6295 113.609 97.3851 113.787L97.2703 113.872C97.0925 114 96.9147 114.128 96.7369 114.25C96.7203 114.261 96.7036 114.272 96.6869 114.284L96.6592 114.302C96.3499 114.513 96.0684 114.697 95.8018 114.865C95.5369 115.032 95.2573 115.198 94.948 115.376L94.8832 115.415C94.8518 115.434 94.8184 115.45 94.7869 115.467C94.7647 115.478 94.7425 115.489 94.7221 115.502C94.4684 115.645 94.2129 115.782 93.9629 115.911C93.8666 115.961 93.7703 116.011 93.674 116.059C93.3906 116.202 93.1073 116.337 92.8332 116.463L92.7906 116.484C92.7666 116.495 92.7425 116.508 92.7184 116.517L92.6925 116.528C92.6425 116.55 92.6017 116.569 92.561 116.585L92.4832 116.619C92.298 116.7 92.1129 116.78 91.9277 116.856C91.8629 116.884 91.7962 116.909 91.7295 116.935L91.6518 116.967C91.4888 117.032 91.3258 117.095 91.1629 117.156C91.0647 117.193 90.9666 117.228 90.8684 117.265C90.7092 117.322 90.548 117.378 90.3888 117.434C90.2869 117.467 90.1906 117.5 90.0943 117.532L90.0314 117.552C90.0018 117.563 89.9703 117.572 89.9406 117.582C89.8925 117.597 89.8443 117.611 89.7943 117.624L89.6962 117.654C89.5332 117.704 89.3703 117.752 89.2073 117.798C89.0814 117.834 88.9555 117.869 88.8295 117.902C88.6666 117.945 88.5055 117.987 88.3425 118.026C88.2166 118.058 88.0888 118.087 87.961 118.117C87.798 118.154 87.6369 118.189 87.474 118.222C87.3462 118.248 87.2203 118.274 87.0925 118.298C86.9295 118.33 86.7647 118.358 86.5999 118.385L86.5573 118.393C86.4462 118.411 86.3369 118.43 86.2258 118.447C86.0573 118.472 85.8906 118.495 85.7221 118.515L85.6314 118.526C85.5406 118.537 85.4499 118.55 85.361 118.559C85.1869 118.58 85.0129 118.595 84.8388 118.611L84.7277 118.622C84.6499 118.63 84.574 118.637 84.4962 118.643C84.3036 118.658 84.1129 118.667 83.9221 118.676L83.8147 118.682C83.7555 118.685 83.6962 118.689 83.6369 118.691C83.3536 118.708 83.0647 118.713 82.7925 118.713ZM71.6203 114.313C72.3684 114.882 73.1777 115.391 74.0258 115.83C76.6147 117.171 79.6462 117.878 82.7943 117.878C83.0555 117.878 83.3332 117.872 83.6184 117.861C83.6721 117.859 83.7258 117.856 83.7795 117.852L83.8943 117.845C84.0795 117.835 84.2629 117.826 84.448 117.811C84.5203 117.806 84.5925 117.798 84.6647 117.793L84.7777 117.782C84.948 117.767 85.1147 117.75 85.2832 117.732C85.3684 117.722 85.4536 117.711 85.5406 117.7L85.6332 117.687C85.7943 117.667 85.9573 117.645 86.1184 117.621C86.224 117.604 86.3314 117.587 86.4369 117.569L86.4795 117.561C86.6388 117.535 86.7962 117.508 86.9536 117.478C87.0758 117.454 87.198 117.43 87.3221 117.404C87.4795 117.372 87.6351 117.337 87.7925 117.302C87.9147 117.274 88.0388 117.245 88.161 117.215C88.3184 117.176 88.474 117.135 88.6314 117.095C88.7536 117.061 88.8758 117.03 88.9962 116.995C89.1536 116.95 89.311 116.902 89.4684 116.854L89.5795 116.821C89.6221 116.808 89.6629 116.797 89.7036 116.784L89.8518 116.734C89.9443 116.704 90.0388 116.672 90.1314 116.641C90.2906 116.587 90.4462 116.534 90.5999 116.478C90.6943 116.443 90.7906 116.409 90.8851 116.372C91.0425 116.313 91.1999 116.252 91.3573 116.189L91.4369 116.158C91.4999 116.134 91.561 116.108 91.624 116.084C91.8036 116.009 91.9832 115.932 92.161 115.854L92.2462 115.817C92.2832 115.802 92.3184 115.785 92.3536 115.771L92.4351 115.734C92.4573 115.722 92.4777 115.713 92.4999 115.702C92.7647 115.58 93.0388 115.448 93.3147 115.311C93.4092 115.265 93.5018 115.217 93.5943 115.169C93.8369 115.043 94.0832 114.91 94.3295 114.772C94.3573 114.758 94.3851 114.743 94.4129 114.728C94.4369 114.715 94.461 114.702 94.4851 114.689L94.5462 114.652C94.848 114.48 95.1184 114.317 95.374 114.158C95.6314 113.997 95.9036 113.819 96.2036 113.613L96.2777 113.565C96.4499 113.447 96.6221 113.324 96.7943 113.2L96.9073 113.117C97.1443 112.943 97.3592 112.782 97.5629 112.621L97.6129 112.58C97.7277 112.489 97.8462 112.397 97.9647 112.3C98.0832 112.204 98.2036 112.106 98.3221 112.006C98.5129 111.845 98.6999 111.682 98.8851 111.517C98.924 111.484 98.961 111.448 98.9962 111.415L99.1295 111.293C99.2295 111.2 99.3314 111.109 99.4295 111.015C99.4314 111.013 99.4406 111.004 99.4443 111.002L99.5129 110.935C99.698 110.759 99.8851 110.574 100.085 110.371C100.144 110.309 100.204 110.248 100.263 110.187C100.439 110.004 100.613 109.819 100.781 109.632L100.88 109.524C101.074 109.306 101.274 109.076 101.487 108.819C101.53 108.769 101.57 108.719 101.611 108.667L101.631 108.643C101.811 108.422 101.983 108.204 102.141 107.998L102.217 107.9C102.407 107.648 102.604 107.374 102.817 107.065L102.928 106.902C103.12 106.619 103.302 106.335 103.472 106.061L103.505 106.009C103.526 105.976 103.546 105.941 103.567 105.906L103.618 105.819C103.685 105.708 103.752 105.597 103.817 105.485C103.859 105.411 103.902 105.337 103.942 105.261L103.97 105.211C104.031 105.1 104.094 104.989 104.154 104.878C104.204 104.785 104.252 104.695 104.3 104.602C104.357 104.491 104.415 104.38 104.47 104.267C104.517 104.172 104.563 104.08 104.609 103.985C104.663 103.874 104.717 103.761 104.768 103.648L104.839 103.502C104.881 103.408 104.924 103.313 104.967 103.217C105.281 102.5 105.554 101.78 105.776 101.072C106.704 98.1613 106.961 95.1354 106.522 92.3188C106.492 92.1299 106.457 91.928 106.413 91.6984L106.378 91.5225C106.342 91.3539 106.305 91.1873 106.267 91.0206L106.255 90.9743C106.244 90.928 106.233 90.8799 106.222 90.8336C106.159 90.5854 106.104 90.3799 106.048 90.1891C105.972 89.928 105.881 89.6539 105.765 89.3262C105.757 89.3021 105.75 89.2817 105.742 89.2595C105.739 89.2465 105.733 89.2317 105.73 89.2188C105.724 89.2039 105.718 89.191 105.713 89.178C105.704 89.1558 105.694 89.1317 105.685 89.1095C105.581 88.8317 105.481 88.578 105.378 88.3391L105.35 88.2706C105.242 88.0225 105.117 87.7576 104.967 87.4613C104.957 87.4428 104.946 87.4206 104.937 87.4002L104.922 87.3669C104.913 87.3484 104.902 87.328 104.891 87.3095C104.878 87.2873 104.865 87.2632 104.852 87.2391C104.759 87.0632 104.665 86.891 104.567 86.7188L104.526 86.6465C104.5 86.6002 104.472 86.5521 104.444 86.5058C104.289 86.2447 104.146 86.015 104.007 85.8095C104.005 85.8076 104.004 85.8039 104.002 85.8002C103.874 85.6095 103.741 85.4206 103.607 85.2373L102.013 83.0632C102.076 83.2502 102.13 83.4225 102.178 83.5873C102.237 83.7891 102.296 84.0039 102.361 84.2632L102.409 84.4595C102.45 84.6354 102.489 84.8095 102.526 84.9854L102.565 85.1706C102.611 85.4076 102.648 85.6206 102.68 85.8243C103.137 88.7688 102.868 91.9262 101.904 94.9576C101.672 95.6928 101.389 96.4428 101.063 97.1836C101.004 97.3206 100.939 97.4576 100.876 97.5947L100.859 97.6317C100.805 97.7484 100.75 97.865 100.694 97.9817C100.648 98.078 100.6 98.1743 100.552 98.2725C100.492 98.3891 100.433 98.5058 100.374 98.6206C100.324 98.715 100.274 98.8114 100.224 98.9058C100.161 99.0225 100.096 99.1373 100.031 99.2539L100.013 99.2873C99.9666 99.3706 99.9203 99.4521 99.8721 99.5354C99.8055 99.6521 99.7369 99.7669 99.6666 99.8817L99.648 99.9132C99.6036 99.9873 99.5592 100.061 99.5147 100.134C99.3406 100.417 99.1518 100.709 98.9518 101.004L98.8351 101.174C98.6166 101.493 98.4129 101.776 98.2129 102.041L98.1351 102.141C97.9703 102.358 97.7981 102.576 97.6092 102.808L97.4592 102.989C97.2406 103.254 97.0351 103.491 96.8314 103.717L96.7295 103.826C96.5536 104.019 96.3758 104.209 96.1925 104.4C96.1314 104.463 96.0703 104.526 96.0092 104.589C95.8055 104.797 95.6129 104.987 95.4184 105.172L95.3332 105.256C95.2295 105.354 95.124 105.45 95.0166 105.548L94.8962 105.659C94.8536 105.698 94.8129 105.737 94.7703 105.774C94.5795 105.945 94.3851 106.113 94.1869 106.28C93.9517 106.476 93.7129 106.671 93.4536 106.872L93.4036 106.913C93.1943 107.076 92.9721 107.245 92.7258 107.424L92.611 107.509C92.4073 107.658 92.2036 107.798 92.0018 107.937C91.6925 108.148 91.411 108.332 91.1443 108.5C90.8814 108.665 90.6018 108.832 90.2906 109.011C90.2443 109.037 90.198 109.063 90.1499 109.089L90.0647 109.137C89.8129 109.278 89.5573 109.417 89.3055 109.547C89.2092 109.597 89.1129 109.647 89.0166 109.695C88.7332 109.837 88.4517 109.972 88.1758 110.098L88.111 110.128C88.0832 110.141 88.0536 110.156 88.0258 110.169C87.9851 110.187 87.9443 110.204 87.9036 110.222L87.824 110.256C87.6388 110.337 87.4536 110.417 87.2684 110.493C87.1999 110.521 87.1314 110.548 87.061 110.576L86.9906 110.604C86.8277 110.669 86.6666 110.732 86.5017 110.793C86.4036 110.83 86.3055 110.865 86.2055 110.902C86.0462 110.959 85.8851 111.015 85.7258 111.069C85.6277 111.102 85.5295 111.135 85.4314 111.167C85.3166 111.204 85.1999 111.239 85.0851 111.274L85.0332 111.289C84.8703 111.339 84.7073 111.387 84.5443 111.434C84.4184 111.469 84.2906 111.504 84.1647 111.537C84.0036 111.58 83.8425 111.622 83.6795 111.661C83.5518 111.693 83.424 111.722 83.2962 111.752C83.1351 111.789 82.9721 111.824 82.811 111.858C82.6851 111.884 82.5573 111.909 82.4295 111.934C82.2647 111.965 82.1017 111.993 81.9369 112.021L81.8999 112.026C81.7869 112.045 81.674 112.063 81.561 112.082C81.3925 112.108 81.2258 112.13 81.0592 112.15L80.9703 112.161C80.8777 112.174 80.7869 112.185 80.6962 112.197C80.524 112.217 80.3518 112.232 80.1795 112.248L80.0647 112.259C79.9869 112.267 79.9092 112.274 79.8332 112.28C79.6425 112.295 79.4518 112.304 79.261 112.313L79.1518 112.319C79.0925 112.322 79.0332 112.326 78.974 112.328C78.6777 112.339 78.3906 112.345 78.1184 112.345C74.8369 112.345 71.674 111.604 68.9666 110.202C68.761 110.097 68.5592 109.985 68.3592 109.872L71.6203 114.313Z" fill="#333333"/>
<path d="M161.125 120.05C162.647 120.05 163.88 118.816 163.88 117.295C163.88 115.773 162.647 114.539 161.125 114.539C159.603 114.539 158.369 115.773 158.369 117.295C158.369 118.816 159.603 120.05 161.125 120.05Z" fill="#F9FAFB"/>
<path d="M45.2458 109.883C46.7676 109.883 48.0013 108.649 48.0013 107.128C48.0013 105.606 46.7676 104.372 45.2458 104.372C43.7239 104.372 42.4902 105.606 42.4902 107.128C42.4902 108.649 43.7239 109.883 45.2458 109.883Z" fill="#F9FAFB"/>
<path d="M46.6266 112.111C47.1625 112.111 47.597 111.676 47.597 111.14C47.597 110.604 47.1625 110.17 46.6266 110.17C46.0907 110.17 45.6562 110.604 45.6562 111.14C45.6562 111.676 46.0907 112.111 46.6266 112.111Z" fill="#F9FAFB"/>
<path d="M60.2888 75.226C61.8106 75.226 63.0443 73.9923 63.0443 72.4704C63.0443 70.9485 61.8106 69.7148 60.2888 69.7148C58.7669 69.7148 57.5332 70.9485 57.5332 72.4704C57.5332 73.9923 58.7669 75.226 60.2888 75.226Z" fill="#F9FAFB"/>
<path d="M63.5094 70.678C64.0454 70.678 64.4798 70.2436 64.4798 69.7077C64.4798 69.1718 64.0454 68.7373 63.5094 68.7373C62.9735 68.7373 62.5391 69.1718 62.5391 69.7077C62.5391 70.2436 62.9735 70.678 63.5094 70.678Z" fill="#494949"/>
<path d="M168.2 60.7149C170.818 60.7149 172.94 58.5924 172.94 55.9741C172.94 53.3559 170.818 51.2334 168.2 51.2334C165.581 51.2334 163.459 53.3559 163.459 55.9741C163.459 58.5924 165.581 60.7149 168.2 60.7149Z" fill="#E4E7EC"/>
<path d="M163.459 53.633C164.705 53.633 165.716 52.6223 165.716 51.3756C165.716 50.1288 164.705 49.1182 163.459 49.1182C162.212 49.1182 161.201 50.1288 161.201 51.3756C161.201 52.6223 162.212 53.633 163.459 53.633Z" fill="#F9FAFB"/>
</svg>
