<svg width="28" height="28" viewBox="0 0 28 28" fill="none" xmlns="http://www.w3.org/2000/svg">
<rect x="0.5" y="0.5" width="27" height="27" rx="13.5" stroke="#494949"/>
<path d="M19.8618 16.9963C19.5149 16.3988 18.9993 14.7081 18.9993 12.5C18.9993 11.1739 18.4725 9.90215 17.5348 8.96447C16.5971 8.02678 15.3254 7.5 13.9993 7.5C12.6732 7.5 11.4014 8.02678 10.4637 8.96447C9.52606 9.90215 8.99928 11.1739 8.99928 12.5C8.99928 14.7087 8.48303 16.3988 8.13615 16.9963C8.04757 17.1482 8.00061 17.3207 8.00001 17.4966C7.9994 17.6724 8.04518 17.8453 8.13271 17.9978C8.22025 18.1503 8.34645 18.277 8.49859 18.3652C8.65073 18.4534 8.82343 18.4999 8.99928 18.5H11.5499C11.6653 19.0645 11.972 19.5718 12.4184 19.9361C12.8647 20.3004 13.4231 20.4994 13.9993 20.4994C14.5754 20.4994 15.1339 20.3004 15.5802 19.9361C16.0265 19.5718 16.3333 19.0645 16.4487 18.5H18.9993C19.1751 18.4998 19.3477 18.4532 19.4997 18.365C19.6518 18.2768 19.7779 18.15 19.8654 17.9975C19.9528 17.845 19.9986 17.6722 19.9979 17.4964C19.9973 17.3206 19.9503 17.1481 19.8618 16.9963ZM13.9993 19.5C13.6892 19.4999 13.3867 19.4037 13.1335 19.2246C12.8803 19.0455 12.6889 18.7924 12.5855 18.5H15.413C15.3097 18.7924 15.1182 19.0455 14.865 19.2246C14.6118 19.4037 14.3094 19.4999 13.9993 19.5ZM8.99928 17.5C9.48053 16.6725 9.99928 14.755 9.99928 12.5C9.99928 11.4391 10.4207 10.4217 11.1708 9.67157C11.921 8.92143 12.9384 8.5 13.9993 8.5C15.0601 8.5 16.0776 8.92143 16.8277 9.67157C17.5778 10.4217 17.9993 11.4391 17.9993 12.5C17.9993 14.7531 18.5168 16.6706 18.9993 17.5H8.99928Z" fill="white"/>
</svg>
