<svg width="24" height="24" viewBox="0 0 24 24" fill="none" xmlns="http://www.w3.org/2000/svg">
<rect x="0.5" y="0.5" width="23" height="23" rx="3.5" fill="#0E0E0E"/>
<rect x="0.5" y="0.5" width="23" height="23" rx="3.5" stroke="#494949"/>
<path d="M18.0004 12C18.0004 12.116 17.9477 12.2273 17.8539 12.3094C17.7602 12.3914 17.633 12.4375 17.5004 12.4375H7.70727L11.3541 15.628C11.4006 15.6686 11.4374 15.7169 11.4626 15.77C11.4877 15.8231 11.5007 15.88 11.5007 15.9375C11.5007 15.995 11.4877 16.0519 11.4626 16.105C11.4374 16.1581 11.4006 16.2064 11.3541 16.247C11.3077 16.2877 11.2525 16.3199 11.1918 16.3419C11.1311 16.3639 11.0661 16.3752 11.0004 16.3752C10.9347 16.3752 10.8696 16.3639 10.8089 16.3419C10.7482 16.3199 10.6931 16.2877 10.6466 16.247L6.14664 12.3095C6.10016 12.2689 6.06328 12.2206 6.03811 12.1675C6.01295 12.1144 6 12.0575 6 12C6 11.9425 6.01295 11.8856 6.03811 11.8325C6.06328 11.7794 6.10016 11.7311 6.14664 11.6905L10.6466 7.75297C10.7405 7.67088 10.8677 7.62476 11.0004 7.62476C11.1331 7.62476 11.2603 7.67088 11.3541 7.75297C11.448 7.83506 11.5007 7.9464 11.5007 8.0625C11.5007 8.1786 11.448 8.28994 11.3541 8.37203L7.70727 11.5625H17.5004C17.633 11.5625 17.7602 11.6086 17.8539 11.6906C17.9477 11.7727 18.0004 11.884 18.0004 12Z" fill="white"/>
</svg>
