<svg width="88" height="36" viewBox="0 0 88 36" fill="none" xmlns="http://www.w3.org/2000/svg">
<g clip-path="url(#clip0_337_8998)">
<path d="M39.6301 0.0414536C53.3821 0.0414536 67.0836 0.0914811 80.7843 0.0111395C84.9257 -0.0131423 87.2087 2.85332 87.7846 5.47876C87.9216 6.10337 87.9925 6.75265 87.9938 7.39077C88.0082 14.4684 88.004 21.5462 88.0021 28.6238C88.0016 30.6606 87.3704 32.4842 85.9101 34.0057C84.6592 35.3091 83.1002 35.972 81.2322 35.9696C77.845 35.9651 74.4578 35.9683 71.0706 35.9683C49.7821 35.9683 28.4934 35.9326 7.20513 35.9981C2.90247 36.0114 0.555598 32.8957 0.105539 30.0552C0.0352931 29.6119 -0.002441 29.1595 -0.00285498 28.7112C-0.00945254 21.5692 -0.00762604 14.4271 -0.0074477 7.28509C-0.00740431 5.58108 0.471744 4.01301 1.53357 2.63323C2.84575 0.928162 4.59656 0.0336688 6.85896 0.0361312C17.7657 0.0480011 28.6725 0.0414594 39.6301 0.0414536ZM30.3477 8.86825C29.8891 8.41989 29.4728 7.92199 28.965 7.53151C26.4013 5.5603 23.3309 4.88425 20.1541 4.57427C18.1054 4.37436 16.0732 4.65409 14.0796 5.12216C11.7457 5.67015 9.60097 6.57624 7.87408 8.22775C7.02794 9.03695 6.47325 10.0137 6.24754 11.1163C6.03155 12.1713 6.4312 13.1462 6.99745 14.0429C7.79604 15.3075 8.96465 16.2146 10.3255 16.8674C15.285 19.2462 20.3936 19.3634 25.5824 17.6372C27.2615 17.0786 28.7647 16.2128 29.9676 14.936C30.8841 13.9633 31.4895 12.8241 31.4597 11.5181C31.4383 10.5763 30.9942 9.69795 30.3477 8.86825ZM40.4156 23.238C39.7384 22.1281 39.0662 21.0153 38.3772 19.9121C38.2959 19.7818 38.128 19.6248 37.9901 19.6154C37.4726 19.5803 36.951 19.6014 36.4168 19.6014C36.4168 22.6136 36.4168 25.5779 36.4168 28.5314C37.0277 28.5314 37.6087 28.5314 38.1518 28.5314C38.1518 26.5804 38.1518 24.6668 38.1518 22.6711C38.9146 23.9459 39.6574 25.145 40.3501 26.3697C40.5629 26.7459 40.8609 26.6917 41.1903 26.7142C41.512 26.7363 41.7048 26.6495 41.8696 26.3634C42.5711 25.146 43.3033 23.9446 44.0575 22.6818C44.0575 24.6822 44.0575 26.6094 44.0575 28.5342C44.6431 28.5342 45.224 28.5342 45.7931 28.5342C45.7931 25.5469 45.7931 22.5943 45.7931 19.6013C45.3824 19.6013 44.9934 19.6321 44.6122 19.5933C44.1637 19.5475 43.9268 19.7061 43.7073 20.0832C42.8748 21.5133 41.9966 22.9193 41.1086 24.3783C40.8701 23.9896 40.659 23.6456 40.4156 23.238ZM42.5166 11.5554C42.6788 10.1976 42.1801 9.28278 40.9233 8.66951C40.6251 8.52397 40.3034 8.42154 39.9917 8.30089C39.4935 8.10798 38.9827 7.93961 38.4997 7.7169C38.1174 7.54063 37.8298 7.24671 37.9106 6.79891C37.9933 6.34017 38.364 6.15309 38.8046 6.06215C39.6755 5.8824 40.2797 6.20909 40.6523 6.98982C41.2015 6.76819 41.719 6.55936 42.2334 6.35179C41.628 4.75079 40.1409 4.21349 38.4134 4.48941C37.1966 4.68375 36.3308 5.51371 36.1726 6.50421C35.9879 7.6605 36.4979 8.58306 37.7019 9.17188C38.1795 9.40541 38.7113 9.53689 39.1987 9.7548C39.6215 9.94387 40.0657 10.1356 40.412 10.4225C40.9351 10.8556 40.8093 11.5952 40.2217 11.9366C39.5216 12.3432 38.527 12.203 38.0177 11.5869C37.7832 11.3032 37.6265 10.9615 37.4124 10.6098C36.8782 10.8127 36.3244 11.0231 35.7748 11.2319C36.3608 13.0058 37.7822 13.9262 39.6675 13.7908C41.1169 13.6867 42.2203 12.8465 42.5166 11.5554ZM27.7349 24.4758C25.4306 25.5697 22.9775 26.1547 20.4183 26.2872C15.3341 26.5505 10.6001 25.671 6.67169 22.3043C6.65165 22.3243 6.61206 22.3458 6.61217 22.3671C6.61251 22.4292 6.61018 22.5017 6.6414 22.5518C7.31962 23.6414 8.1747 24.5713 9.28063 25.2982C11.8269 26.9719 14.7422 27.5672 17.7367 27.8445C18.8772 27.9501 20.0543 27.7909 21.206 27.6743C23.3263 27.4596 25.3579 26.9231 27.2422 25.9509C28.723 25.1868 30.0084 24.2154 30.8294 22.7762C30.919 22.619 30.9861 22.4502 31.0131 22.3931C29.9777 23.0534 28.8894 23.7474 27.7349 24.4758ZM25.7168 22.2733C21.8638 23.5028 17.9502 23.6507 13.9937 22.8272C11.5987 22.3287 9.38098 21.4447 7.47874 19.9349C7.19823 19.7123 6.93766 19.467 6.6519 19.2182C6.6366 19.2868 6.61631 19.3216 6.62554 19.3465C6.65898 19.4367 6.69762 19.5258 6.74262 19.6114C7.53266 21.1137 8.8074 22.1683 10.3498 22.8932C15.6976 25.4064 21.1341 25.4442 26.5949 23.2382C28.1083 22.6269 29.4235 21.7145 30.3945 20.4214C30.6585 20.0699 30.8566 19.6736 31.0849 19.2979C31.0488 19.2721 31.0127 19.2463 30.9766 19.2205C29.5163 20.6494 27.7424 21.5866 25.7168 22.2733ZM14.4707 19.915C11.5151 19.3322 8.81197 18.2618 6.6102 16.2097C6.63454 16.362 6.68012 16.4806 6.7388 16.5931C7.43229 17.9221 8.54353 18.8677 9.85552 19.6183C12.4014 21.0749 15.2017 21.6821 18.1377 21.7663C21.5499 21.8641 24.8141 21.3035 27.7912 19.6206C28.9853 18.9456 30.0114 18.0942 30.7155 16.9349C30.8079 16.7828 30.853 16.6048 30.92 16.4388C30.7686 16.435 30.6967 16.4719 30.6397 16.5236C29.3577 17.686 27.852 18.5056 26.2036 19.0894C22.4084 20.4335 18.5153 20.6246 14.4707 19.915ZM73.4018 12.6891C73.4018 12.0304 73.3546 11.3677 73.4177 10.7145C73.4625 10.2509 73.5845 9.76624 73.802 9.35259C74.0584 8.86478 74.6737 8.69534 75.2016 8.83675C75.7292 8.97806 75.9853 9.30545 76.0233 9.91521C76.0413 10.2034 76.0359 10.4931 76.0363 10.7821C76.0377 11.709 76.0368 12.6358 76.0368 13.572C76.6608 13.572 77.226 13.572 77.7969 13.572C77.7969 12.1667 77.8784 10.7833 77.7754 9.41242C77.6575 7.84353 76.647 7.10823 75.0499 7.25067C74.3699 7.31133 73.8429 7.65321 73.3718 8.1601C73.3718 6.94858 73.3718 5.80505 73.3718 4.6636C72.7813 4.6636 72.217 4.6636 71.6746 4.6636C71.6746 7.65786 71.6746 10.6207 71.6746 13.5738C72.2626 13.5738 72.8145 13.5738 73.4018 13.5738C73.4018 13.2939 73.4018 13.0394 73.4018 12.6891ZM49.2729 8.14436C49.2051 8.21587 49.1323 8.28371 49.0701 8.35945C48.1826 9.44133 48.0072 10.6338 48.5545 11.8891C49.0669 13.0642 50.0573 13.6782 51.3748 13.7869C52.8588 13.9093 54.0002 13.3603 54.7887 12.1017C54.2938 11.8654 53.8165 11.6376 53.3164 11.3988C52.8202 12.1975 52.0803 12.45 51.1856 12.2278C50.5073 12.0594 50.1256 11.5974 50.0171 10.8846C51.6468 10.8846 53.2466 10.8846 54.8416 10.8846C54.9809 9.29686 54.3829 8.1019 53.1969 7.55003C51.9363 6.96341 50.423 7.17998 49.2729 8.14436ZM67.0265 28.5C67.7077 28.1992 68.2181 27.7292 68.6024 27.0796C68.106 26.8448 67.6298 26.6196 67.16 26.3974C66.4162 27.3273 65.7718 27.4215 64.893 27.1732C64.2682 26.9967 63.9 26.484 63.9052 25.8696C65.4879 25.8696 67.071 25.8696 68.6489 25.8696C68.8299 24.3816 68.2669 23.1457 67.1085 22.5922C65.8397 21.9859 64.575 22.0473 63.4306 22.8643C62.2614 23.699 61.8809 24.8753 62.1552 26.2042C62.5827 28.2762 64.7091 29.2867 67.0265 28.5ZM58.0307 7.26503C57.1359 7.40272 56.3749 7.7601 55.7873 8.49133C56.2207 8.77553 56.6335 9.04625 57.058 9.3246C57.7225 8.66734 58.477 8.35984 59.3814 8.8092C59.7875 9.01099 60.0464 9.33717 59.9586 9.69109C59.1393 9.67629 58.3628 9.58228 57.6083 9.66643C56.3114 9.81109 55.5691 10.7116 55.6512 11.8799C55.7264 12.9484 56.69 13.7408 57.9276 13.8021C58.7408 13.8424 59.3807 13.5412 59.9465 12.9281C59.9596 13.2016 59.9681 13.3767 59.9775 13.5723C60.5533 13.5723 61.1192 13.5723 61.6829 13.5723C61.6829 12.1822 61.7278 10.8177 61.669 9.45729C61.6203 8.32908 60.8918 7.57083 59.7321 7.35799C59.2079 7.26178 58.6591 7.28614 58.0307 7.26503ZM52.1411 28.4476C53.4591 27.7747 54.0051 26.7081 53.9635 25.3116C53.9212 23.893 52.9168 22.6572 51.4849 22.3224C49.8507 21.9402 48.2333 22.5606 47.5165 23.8444C46.7928 25.1407 46.9867 26.7584 47.9903 27.7951C48.9457 28.7822 50.6178 29.0599 52.1411 28.4476ZM69.6111 23.891C70.2226 25.2086 70.8221 26.5314 71.4545 27.8399C71.6028 28.1468 71.6024 28.3836 71.448 28.6857C71.0192 29.5249 70.6303 30.3826 70.2123 31.261C70.8893 31.261 71.4972 31.261 72.1248 31.261C73.4655 28.3318 74.8054 25.4045 76.1648 22.4344C75.4615 22.4344 74.8412 22.4344 74.1903 22.4344C73.677 23.6426 73.1604 24.8587 72.6093 26.156C72.5199 25.972 72.4755 25.8875 72.4373 25.8006C71.9889 24.7819 71.5483 23.76 71.0855 22.7472C71.0245 22.6138 70.8572 22.4403 70.7294 22.4326C70.1615 22.3984 69.5899 22.4178 68.9319 22.4178C69.1674 22.9269 69.3747 23.3748 69.6111 23.891ZM56.6743 25.9198C56.7433 25.4795 56.7436 25.0161 56.897 24.6042C57.1349 23.9651 57.726 23.6939 58.3891 23.8103C58.9984 23.9172 59.2799 24.2627 59.3023 25.0083C59.3241 25.7316 59.3074 26.4559 59.3076 27.1798C59.3076 27.6374 59.3076 28.0951 59.3076 28.5475C59.9315 28.5475 60.4843 28.5475 61.055 28.5475C61.055 27.1306 61.1035 25.7332 61.0398 24.3404C60.9884 23.2163 60.3039 22.5028 59.2495 22.282C58.1988 22.062 57.3248 22.3488 56.6049 23.2006C56.5798 22.9016 56.5607 22.6745 56.5414 22.4438C55.9837 22.4438 55.4669 22.4438 54.9252 22.4438C54.9252 24.4883 54.9252 26.5064 54.9252 28.5417C55.5094 28.5417 56.0738 28.5417 56.6743 28.5417C56.6743 27.6814 56.6743 26.848 56.6743 25.9198ZM68.785 5.9656C68.7776 5.84286 68.7702 5.72012 68.7624 5.59082C68.1622 5.59082 67.5935 5.59082 66.9758 5.59082C66.9758 6.2184 66.9758 6.81939 66.9758 7.45028C66.5939 7.45028 66.2613 7.45028 65.9026 7.45028C65.9026 7.9377 65.9026 8.3935 65.9026 8.8918C66.2775 8.8918 66.6255 8.8918 66.9924 8.8918C66.9924 9.83266 66.9706 10.7317 66.997 11.6294C67.0513 13.4852 68.9233 14.4411 70.6077 13.4747C70.5371 13.2496 70.4701 13.0199 70.3925 12.7936C70.3104 12.5543 70.218 12.3181 70.1309 12.0826C69.2757 12.3153 68.8323 12.1497 68.803 11.5388C68.761 10.663 68.7923 9.78406 68.7923 8.86403C69.3357 8.86403 69.8332 8.86403 70.3144 8.86403C70.3144 8.36526 70.3144 7.91064 70.3144 7.42603C69.7898 7.42603 69.3046 7.42603 68.785 7.42603C68.785 6.94914 68.785 6.5026 68.785 5.9656ZM43.3602 7.43998C43.2378 7.50501 43.0159 7.56242 43.0096 7.63633C42.975 8.04414 42.993 8.45599 42.993 8.8997C43.4107 8.8997 43.7601 8.8997 44.1283 8.8997C44.1283 9.83256 44.1238 10.7308 44.1296 11.629C44.1349 12.4292 44.3825 13.1348 45.1656 13.5365C46.0133 13.9713 46.8764 13.857 47.7552 13.517C47.5794 13.0059 47.4196 12.5413 47.2604 12.0785C46.4364 12.3047 45.9774 12.1658 45.9458 11.6251C45.893 10.7205 45.9314 9.81108 45.9314 8.86622C46.4641 8.86622 46.9635 8.86622 47.4552 8.86622C47.4552 8.37083 47.4552 7.91467 47.4552 7.41916C46.9194 7.41916 46.419 7.41916 45.8895 7.41916C45.8895 6.78972 45.8895 6.20019 45.8895 5.5914C45.2921 5.5914 44.7254 5.5914 44.1096 5.5914C44.1096 6.21971 44.1096 6.82079 44.1096 7.43998C43.8592 7.43998 43.6579 7.43998 43.3602 7.43998ZM64.8224 8.54148C64.8224 7.24709 64.8224 5.9527 64.8224 4.65789C64.1983 4.65789 63.6322 4.65789 63.0602 4.65789C63.0602 7.64555 63.0602 10.6067 63.0602 13.5715C63.6578 13.5715 64.2231 13.5715 64.8224 13.5715C64.8224 11.9078 64.8224 10.2729 64.8224 8.54148Z" fill="#020202"/>
<path d="M30.3694 8.89576C30.9937 9.69788 31.4377 10.5762 31.4592 11.5181C31.489 12.8241 30.8836 13.9632 29.9671 14.936C28.7641 16.2127 27.261 17.0785 25.5819 17.6371C20.3931 19.3633 15.2845 19.2461 10.325 16.8673C8.96413 16.2145 7.79553 15.3075 6.99693 14.0428C6.43069 13.1461 6.03104 12.1713 6.24702 11.1162C6.47274 10.0137 7.02742 9.03688 7.87356 8.22768C9.60045 6.57617 11.7452 5.67008 14.0791 5.12209C16.0727 4.65402 18.1049 4.3743 20.1536 4.5742C23.3304 4.88418 26.4008 5.56024 28.9645 7.53144C29.4723 7.92193 29.8886 8.41982 30.3694 8.89576Z" fill="#F18B38"/>
<path d="M30.3694 8.89601C30.9937 9.69813 31.4377 10.5765 31.4592 11.5183C31.489 12.8243 30.8836 13.9634 29.9671 14.9362C28.7641 16.213 27.261 17.0787 25.5819 17.6373C20.3931 19.3635 15.2845 19.2464 10.325 16.8675C8.96413 16.2148 7.79553 15.3077 6.99693 14.043C6.43069 13.1463 6.03104 12.1715 6.24702 11.1164C6.47274 10.0139 7.02742 9.03712 7.87356 8.22793C9.60045 6.57642 11.7452 5.67033 14.0791 5.12234C16.0727 4.65426 18.1049 4.37454 20.1536 4.57445C23.3304 4.88443 26.4008 5.56048 28.9645 7.53168C29.4723 7.92217 29.8886 8.42006 30.3694 8.89601Z" fill="#F18B38"/>
<path d="M40.4329 23.2699C40.6602 23.6457 40.8712 23.9897 41.1098 24.3784C41.9977 22.9194 42.8759 21.5133 43.7085 20.0833C43.928 19.7062 44.1649 19.5476 44.6133 19.5934C44.9945 19.6322 45.3836 19.6014 45.7942 19.6014C45.7942 22.5944 45.7942 25.547 45.7942 28.5343C45.2251 28.5343 44.6442 28.5343 44.0586 28.5343C44.0586 26.6095 44.0586 24.6823 44.0586 22.6819C43.3045 23.9447 42.5722 25.1461 41.8708 26.3635C41.7059 26.6496 41.5131 26.7364 41.1914 26.7143C40.862 26.6918 40.564 26.746 40.3512 26.3698C39.6585 25.1451 38.9158 23.946 38.1529 22.6712C38.1529 24.6669 38.1529 26.5805 38.1529 28.5315C37.6098 28.5315 37.0288 28.5315 36.418 28.5315C36.418 25.578 36.418 22.6137 36.418 19.6015C36.9521 19.6015 37.4738 19.5804 37.9913 19.6155C38.1292 19.6249 38.297 19.7819 38.3783 19.9122C39.0674 21.0154 39.7395 22.1282 40.4329 23.2699Z" fill="#FBFBFB"/>
<path d="M40.4329 23.2699C40.6602 23.6457 40.8712 23.9897 41.1098 24.3784C41.9977 22.9194 42.8759 21.5133 43.7085 20.0833C43.928 19.7062 44.1649 19.5476 44.6133 19.5934C44.9945 19.6322 45.3836 19.6014 45.7942 19.6014C45.7942 22.5944 45.7942 25.547 45.7942 28.5343C45.2251 28.5343 44.6442 28.5343 44.0586 28.5343C44.0586 26.6095 44.0586 24.6823 44.0586 22.6819C43.3045 23.9447 42.5722 25.1461 41.8708 26.3635C41.7059 26.6496 41.5131 26.7364 41.1914 26.7143C40.862 26.6918 40.564 26.746 40.3512 26.3698C39.6585 25.1451 38.9158 23.946 38.1529 22.6712C38.1529 24.6669 38.1529 26.5805 38.1529 28.5315C37.6098 28.5315 37.0288 28.5315 36.418 28.5315C36.418 25.578 36.418 22.6137 36.418 19.6015C36.9521 19.6015 37.4738 19.5804 37.9913 19.6155C38.1292 19.6249 38.297 19.7819 38.3783 19.9122C39.0674 21.0154 39.7395 22.1282 40.4329 23.2699Z" fill="#FBFBFB"/>
<path d="M42.5063 11.5952C42.219 12.8465 41.1155 13.6868 39.6662 13.7909C37.7809 13.9262 36.3595 13.0059 35.7734 11.2319C36.3231 11.0231 36.8768 10.8127 37.4111 10.6098C37.6252 10.9615 37.7819 11.3032 38.0164 11.5869C38.5257 12.203 39.5202 12.3432 40.2203 11.9366C40.808 11.5953 40.9338 10.8557 40.4107 10.4225C40.0644 10.1357 39.6202 9.94391 39.1973 9.75484C38.71 9.53692 38.1782 9.40544 37.7006 9.17191C36.4966 8.58309 35.9866 7.66053 36.1713 6.50424C36.3295 5.51374 37.1953 4.68379 38.412 4.48945C40.1395 4.21352 41.6267 4.75083 42.2321 6.35183C41.7177 6.5594 41.2002 6.76823 40.651 6.98986C40.2784 6.20913 39.6742 5.88243 38.8033 6.06219C38.3627 6.15313 37.992 6.3402 37.9093 6.79895C37.8285 7.24675 38.1161 7.54066 38.4984 7.71694C38.9814 7.93965 39.4921 8.10802 39.9904 8.30093C40.3021 8.42158 40.6237 8.524 40.922 8.66955C42.1788 9.28282 42.6774 10.1977 42.5063 11.5952Z" fill="#FAFAFA"/>
<path d="M42.5102 11.5952C42.2229 12.8465 41.1194 13.6868 39.6701 13.7909C37.7848 13.9262 36.3634 13.0059 35.7773 11.2319C36.327 11.0231 36.8807 10.8127 37.415 10.6098C37.6291 10.9615 37.7858 11.3032 38.0203 11.5869C38.5296 12.203 39.5242 12.3432 40.2242 11.9366C40.8119 11.5953 40.9377 10.8557 40.4146 10.4225C40.0683 10.1357 39.6241 9.94391 39.2012 9.75484C38.7139 9.53692 38.1821 9.40544 37.7045 9.17191C36.5005 8.58309 35.9905 7.66053 36.1752 6.50424C36.3334 5.51374 37.1992 4.68379 38.4159 4.48945C40.1435 4.21352 41.6306 4.75083 42.236 6.35183C41.7216 6.5594 41.2041 6.76823 40.6549 6.98986C40.2823 6.20913 39.6781 5.88243 38.8072 6.06219C38.3666 6.15313 37.9959 6.3402 37.9132 6.79895C37.8324 7.24675 38.12 7.54066 38.5023 7.71694C38.9853 7.93965 39.4961 8.10802 39.9943 8.30093C40.306 8.42158 40.6277 8.524 40.9259 8.66955C42.1827 9.28282 42.6813 10.1977 42.5102 11.5952Z" fill="#FAFAFA"/>
<path d="M27.7691 24.4587C28.8905 23.7475 29.9788 23.0535 31.0143 22.3932C30.9872 22.4503 30.9201 22.6191 30.8305 22.7763C30.0095 24.2155 28.7241 25.1869 27.2433 25.951C25.359 26.9232 23.3274 27.4597 21.2071 27.6744C20.0554 27.791 18.8783 27.9502 17.7378 27.8446C14.7434 27.5673 11.828 26.972 9.28174 25.2983C8.17581 24.5714 7.32073 23.6415 6.64251 22.5519C6.61129 22.5018 6.61362 22.4293 6.61328 22.3672C6.61317 22.3459 6.65276 22.3244 6.6728 22.3044C10.6012 25.6711 15.3352 26.5506 20.4194 26.2873C22.9786 26.1548 25.4317 25.5698 27.7691 24.4587Z" fill="#F2F0F0"/>
<path d="M27.7691 24.4587C28.8905 23.7475 29.9788 23.0535 31.0143 22.3932C30.9872 22.4503 30.9201 22.6191 30.8305 22.7763C30.0095 24.2155 28.7241 25.1869 27.2433 25.951C25.359 26.9232 23.3274 27.4597 21.2071 27.6744C20.0554 27.791 18.8783 27.9502 17.7378 27.8446C14.7434 27.5673 11.828 26.972 9.28174 25.2983C8.17581 24.5714 7.32073 23.6415 6.64251 22.5519C6.61129 22.5018 6.61362 22.4293 6.61328 22.3672C6.61317 22.3459 6.65276 22.3244 6.6728 22.3044C10.6012 25.6711 15.3352 26.5506 20.4194 26.2873C22.9786 26.1548 25.4317 25.5698 27.7691 24.4587Z" fill="#F2F0F0"/>
<path d="M25.7564 22.2606C27.7442 21.5866 29.5181 20.6494 30.9784 19.2205C31.0145 19.2463 31.0506 19.2721 31.0867 19.2979C30.8583 19.6736 30.6602 20.0699 30.3962 20.4215C29.4253 21.7145 28.11 22.6269 26.5967 23.2383C21.1359 25.4442 15.6994 25.4065 10.3516 22.8932C8.80917 22.1683 7.53443 21.1137 6.74439 19.6114C6.69939 19.5258 6.66075 19.4367 6.62732 19.3465C6.61809 19.3216 6.63838 19.2868 6.65367 19.2183C6.93944 19.467 7.2 19.7123 7.48052 19.9349C9.38275 21.4447 11.6004 22.3287 13.9954 22.8272C17.952 23.6507 21.8656 23.5029 25.7564 22.2606Z" fill="#F2F0F0"/>
<path d="M25.7564 22.2606C27.7442 21.5866 29.5181 20.6494 30.9784 19.2205C31.0145 19.2463 31.0506 19.2721 31.0867 19.2979C30.8583 19.6736 30.6602 20.0699 30.3962 20.4215C29.4253 21.7145 28.11 22.6269 26.5967 23.2383C21.1359 25.4442 15.6994 25.4065 10.3516 22.8932C8.80917 22.1683 7.53443 21.1137 6.74439 19.6114C6.69939 19.5258 6.66075 19.4367 6.62732 19.3465C6.61809 19.3216 6.63838 19.2868 6.65367 19.2183C6.93944 19.467 7.2 19.7123 7.48052 19.9349C9.38275 21.4447 11.6004 22.3287 13.9954 22.8272C17.952 23.6507 21.8656 23.5029 25.7564 22.2606Z" fill="#F2F0F0"/>
<path d="M14.5114 19.9254C18.5145 20.6246 22.4076 20.4335 26.2028 19.0895C27.8512 18.5056 29.3569 17.6861 30.6389 16.5237C30.6959 16.472 30.7678 16.4351 30.9192 16.4388C30.8522 16.6048 30.8071 16.7828 30.7147 16.935C30.0106 18.0942 28.9845 18.9456 27.7904 19.6206C24.8132 21.3036 21.5491 21.8642 18.1369 21.7663C15.2009 21.6822 12.4006 21.0749 9.8547 19.6184C8.54271 18.8678 7.43147 17.9221 6.73798 16.5931C6.6793 16.4807 6.63372 16.362 6.60938 16.2097C8.81115 18.2619 11.5142 19.3323 14.5114 19.9254Z" fill="#F2F0F0"/>
<path d="M14.5114 19.9254C18.5145 20.6246 22.4076 20.4335 26.2028 19.0895C27.8512 18.5056 29.3569 17.6861 30.6389 16.5237C30.6959 16.472 30.7678 16.4351 30.9192 16.4388C30.8522 16.6048 30.8071 16.7828 30.7147 16.935C30.0106 18.0942 28.9845 18.9456 27.7904 19.6206C24.8132 21.3036 21.5491 21.8642 18.1369 21.7663C15.2009 21.6822 12.4006 21.0749 9.8547 19.6184C8.54271 18.8678 7.43147 17.9221 6.73798 16.5931C6.6793 16.4807 6.63372 16.362 6.60938 16.2097C8.81115 18.2619 11.5142 19.3323 14.5114 19.9254Z" fill="#F2F0F0"/>
<path d="M73.4029 12.737C73.4029 13.0394 73.4029 13.2939 73.4029 13.5738C72.8156 13.5738 72.2637 13.5738 71.6758 13.5738C71.6758 10.6207 71.6758 7.65784 71.6758 4.66357C72.2181 4.66357 72.7825 4.66357 73.3729 4.66357C73.3729 5.80503 73.3729 6.94856 73.3729 8.16008C73.8441 7.65319 74.371 7.31131 75.0511 7.25065C76.6482 7.10821 77.6587 7.84351 77.7765 9.4124C77.8795 10.7833 77.798 12.1667 77.798 13.572C77.2272 13.572 76.662 13.572 76.038 13.572C76.038 12.6358 76.0388 11.709 76.0375 10.7821C76.037 10.4931 76.0424 10.2034 76.0245 9.91519C75.9865 9.30543 75.7304 8.97804 75.2028 8.83673C74.6748 8.69532 74.0595 8.86476 73.8031 9.35257C73.5857 9.76622 73.4637 10.2508 73.4189 10.7145C73.3558 11.3676 73.4029 12.0304 73.4029 12.737Z" fill="#FBFBFB"/>
<path d="M73.4029 12.737C73.4029 13.0394 73.4029 13.2939 73.4029 13.5738C72.8156 13.5738 72.2637 13.5738 71.6758 13.5738C71.6758 10.6207 71.6758 7.65784 71.6758 4.66357C72.2181 4.66357 72.7825 4.66357 73.3729 4.66357C73.3729 5.80503 73.3729 6.94856 73.3729 8.16008C73.8441 7.65319 74.371 7.31131 75.0511 7.25065C76.6482 7.10821 77.6587 7.84351 77.7765 9.4124C77.8795 10.7833 77.798 12.1667 77.798 13.572C77.2272 13.572 76.662 13.572 76.038 13.572C76.038 12.6358 76.0388 11.709 76.0375 10.7821C76.037 10.4931 76.0424 10.2034 76.0245 9.91519C75.9865 9.30543 75.7304 8.97804 75.2028 8.83673C74.6748 8.69532 74.0595 8.86476 73.8031 9.35257C73.5857 9.76622 73.4637 10.2508 73.4189 10.7145C73.3558 11.3676 73.4029 12.0304 73.4029 12.737Z" fill="#FBFBFB"/>
<path d="M49.3011 8.12404C50.4222 7.18018 51.9354 6.96361 53.1961 7.55023C54.382 8.1021 54.9801 9.29706 54.8407 10.8848C53.2457 10.8848 51.646 10.8848 50.0163 10.8848C50.1247 11.5976 50.5065 12.0596 51.1847 12.228C52.0794 12.4502 52.8193 12.1977 53.3155 11.399C53.8157 11.6378 54.293 11.8656 54.7879 12.1019C53.9994 13.3605 52.858 13.9095 51.374 13.7871C50.0564 13.6784 49.0661 13.0644 48.5536 11.8893C48.0063 10.634 48.1817 9.44154 49.0693 8.35965C49.1314 8.28391 49.2042 8.21607 49.3011 8.12404ZM52.3027 8.73833C51.1973 8.44244 50.3549 8.82557 50.1833 9.68658C51.1627 9.68658 52.1452 9.68658 53.1667 9.68658C53.0284 9.24189 52.7877 8.93915 52.3027 8.73833Z" fill="#FBFBFB"/>
<path d="M49.3011 8.12404C50.4222 7.18018 51.9354 6.96361 53.1961 7.55023C54.382 8.1021 54.9801 9.29706 54.8407 10.8848C53.2457 10.8848 51.646 10.8848 50.0163 10.8848C50.1247 11.5976 50.5065 12.0596 51.1847 12.228C52.0794 12.4502 52.8193 12.1977 53.3155 11.399C53.8157 11.6378 54.293 11.8656 54.7879 12.1019C53.9994 13.3605 52.858 13.9095 51.374 13.7871C50.0564 13.6784 49.0661 13.0644 48.5536 11.8893C48.0063 10.634 48.1817 9.44154 49.0693 8.35965C49.1314 8.28391 49.2042 8.21607 49.3011 8.12404ZM52.3027 8.73833C51.1973 8.44244 50.3549 8.82557 50.1833 9.68658C51.1627 9.68658 52.1452 9.68658 53.1667 9.68658C53.0284 9.24189 52.7877 8.93915 52.3027 8.73833Z" fill="#FBFBFB"/>
<path d="M66.9928 28.5188C64.7092 29.2868 62.5828 28.2763 62.1553 26.2043C61.881 24.8754 62.2615 23.6991 63.4308 22.8644C64.5751 22.0474 65.8398 21.986 67.1086 22.5923C68.267 23.1458 68.83 24.3817 68.649 25.8697C67.0711 25.8697 65.488 25.8697 63.9053 25.8697C63.9001 26.4841 64.2683 26.9968 64.8931 27.1733C65.7719 27.4216 66.4163 27.3274 67.1601 26.3975C67.6299 26.6197 68.1061 26.8449 68.6025 27.0797C68.2182 27.7293 67.7078 28.1993 66.9928 28.5188ZM63.988 24.5502C64.0188 24.6023 64.0491 24.6994 64.0804 24.6997C65.0355 24.7077 65.9906 24.7063 66.9592 24.7063C66.7741 24.0575 66.3728 23.7057 65.7734 23.6328C64.9851 23.5369 64.3826 23.7919 63.988 24.5502Z" fill="#FBFBFB"/>
<path d="M66.9928 28.5188C64.7092 29.2868 62.5828 28.2763 62.1553 26.2043C61.881 24.8754 62.2615 23.6991 63.4308 22.8644C64.5751 22.0474 65.8398 21.986 67.1086 22.5923C68.267 23.1458 68.83 24.3817 68.649 25.8697C67.0711 25.8697 65.488 25.8697 63.9053 25.8697C63.9001 26.4841 64.2683 26.9968 64.8931 27.1733C65.7719 27.4216 66.4163 27.3274 67.1601 26.3975C67.6299 26.6197 68.1061 26.8449 68.6025 27.0797C68.2182 27.7293 67.7078 28.1993 66.9928 28.5188ZM63.988 24.5502C64.0188 24.6023 64.0491 24.6994 64.0804 24.6997C65.0355 24.7077 65.9906 24.7063 66.9592 24.7063C66.7741 24.0575 66.3728 23.7057 65.7734 23.6328C64.9851 23.5369 64.3826 23.7919 63.988 24.5502Z" fill="#FBFBFB"/>
<path d="M58.0756 7.2605C58.6586 7.28622 59.2073 7.26186 59.7315 7.35807C60.8913 7.57091 61.6197 8.32916 61.6684 9.45737C61.7272 10.8178 61.6824 12.1823 61.6824 13.5724C61.1186 13.5724 60.5528 13.5724 59.9769 13.5724C59.9675 13.3768 59.9591 13.2017 59.9459 12.9282C59.3801 13.5413 58.7402 13.8425 57.9271 13.8022C56.6895 13.7408 55.7258 12.9485 55.6507 11.88C55.5686 10.7117 56.3108 9.81117 57.6077 9.66651C58.3622 9.58236 59.1388 9.67637 59.9581 9.69117C60.0459 9.33725 59.7869 9.01107 59.3808 8.80928C58.4765 8.35992 57.722 8.66742 57.0574 9.32468C56.633 9.04633 56.2202 8.77561 55.7868 8.49141C56.3743 7.76018 57.1353 7.4028 58.0756 7.2605ZM57.7641 12.2826C58.6702 12.7029 59.6754 12.3263 59.9135 11.456C59.9474 11.3319 59.8409 11.0519 59.7697 11.0423C59.2138 10.9673 58.6316 10.8364 58.0946 10.9251C57.3822 11.0427 57.2283 11.6969 57.7641 12.2826Z" fill="#FBFBFB"/>
<path d="M58.0795 7.2605C58.6625 7.28622 59.2112 7.26186 59.7354 7.35807C60.8952 7.57091 61.6236 8.32916 61.6723 9.45737C61.7311 10.8178 61.6863 12.1823 61.6863 13.5724C61.1225 13.5724 60.5567 13.5724 59.9808 13.5724C59.9714 13.3768 59.963 13.2017 59.9499 12.9282C59.3841 13.5413 58.7441 13.8425 57.931 13.8022C56.6934 13.7408 55.7297 12.9485 55.6546 11.88C55.5725 10.7117 56.3147 9.81117 57.6116 9.66651C58.3661 9.58236 59.1427 9.67637 59.962 9.69117C60.0498 9.33725 59.7909 9.01107 59.3847 8.80928C58.4804 8.35992 57.7259 8.66742 57.0614 9.32468C56.6369 9.04633 56.2241 8.77561 55.7907 8.49141C56.3783 7.76018 57.1392 7.4028 58.0795 7.2605ZM57.768 12.2826C58.6741 12.7029 59.6793 12.3263 59.9174 11.456C59.9513 11.3319 59.8448 11.0519 59.7736 11.0423C59.2178 10.9673 58.6355 10.8364 58.0985 10.9251C57.3861 11.0427 57.2322 11.6969 57.768 12.2826Z" fill="#FBFBFB"/>
<path d="M52.1051 28.46C50.6182 29.0599 48.9462 28.7823 47.9907 27.7952C46.9872 26.7584 46.7932 25.1407 47.517 23.8444C48.2338 22.5606 49.8512 21.9403 51.4853 22.3224C52.9172 22.6572 53.9216 23.8931 53.964 25.3117C54.0056 26.7082 53.4596 27.7747 52.1051 28.46ZM51.4052 26.9919C51.5308 26.8851 51.669 26.7888 51.78 26.6697C52.2606 26.154 52.342 25.2258 51.9716 24.589C51.6397 24.0185 50.9813 23.7002 50.3135 23.7991C49.61 23.9033 49.1487 24.284 48.9555 24.9349C48.7423 25.6526 48.8513 26.3191 49.4531 26.8311C50.0142 27.3083 50.6635 27.3497 51.4052 26.9919Z" fill="#FBFBFB"/>
<path d="M52.1051 28.46C50.6182 29.0599 48.9462 28.7823 47.9907 27.7952C46.9872 26.7584 46.7932 25.1407 47.517 23.8444C48.2338 22.5606 49.8512 21.9403 51.4853 22.3224C52.9172 22.6572 53.9216 23.8931 53.964 25.3117C54.0056 26.7082 53.4596 27.7747 52.1051 28.46ZM51.4052 26.9919C51.5308 26.8851 51.669 26.7888 51.78 26.6697C52.2606 26.154 52.342 25.2258 51.9716 24.589C51.6397 24.0185 50.9813 23.7002 50.3135 23.7991C49.61 23.9033 49.1487 24.284 48.9555 24.9349C48.7423 25.6526 48.8513 26.3191 49.4531 26.8311C50.0142 27.3083 50.6635 27.3497 51.4052 26.9919Z" fill="#FBFBFB"/>
<path d="M69.5982 23.8569C69.3764 23.3749 69.1691 22.9269 68.9336 22.4178C69.5916 22.4178 70.1631 22.3984 70.7311 22.4327C70.8589 22.4404 71.0262 22.6138 71.0872 22.7473C71.55 23.76 71.9906 24.7819 72.439 25.8006C72.4772 25.8875 72.5216 25.972 72.6109 26.156C73.1621 24.8588 73.6787 23.6427 74.192 22.4344C74.8429 22.4344 75.4632 22.4344 76.1665 22.4344C74.8071 25.4046 73.4672 28.3319 72.1265 31.2611C71.4988 31.2611 70.891 31.2611 70.214 31.2611C70.632 30.3827 71.0209 29.525 71.4497 28.6857C71.6041 28.3836 71.6045 28.1468 71.4562 27.84C70.8238 26.5315 70.2243 25.2087 69.5982 23.8569Z" fill="#FAFAFA"/>
<path d="M69.5982 23.8569C69.3764 23.3749 69.1691 22.9269 68.9336 22.4178C69.5916 22.4178 70.1631 22.3984 70.7311 22.4327C70.8589 22.4404 71.0262 22.6138 71.0872 22.7473C71.55 23.76 71.9906 24.7819 72.439 25.8006C72.4772 25.8875 72.5216 25.972 72.6109 26.156C73.1621 24.8588 73.6787 23.6427 74.192 22.4344C74.8429 22.4344 75.4632 22.4344 76.1665 22.4344C74.8071 25.4046 73.4672 28.3319 72.1265 31.2611C71.4988 31.2611 70.891 31.2611 70.214 31.2611C70.632 30.3827 71.0209 29.525 71.4497 28.6857C71.6041 28.3836 71.6045 28.1468 71.4562 27.84C70.8238 26.5315 70.2243 25.2087 69.5982 23.8569Z" fill="#FAFAFA"/>
<path d="M56.6749 25.9672C56.6749 26.848 56.6749 27.6813 56.6749 28.5416C56.0743 28.5416 55.51 28.5416 54.9258 28.5416C54.9258 26.5064 54.9258 24.4883 54.9258 22.4438C55.4674 22.4438 55.9843 22.4438 56.5419 22.4438C56.5613 22.6744 56.5804 22.9015 56.6055 23.2006C57.3254 22.3487 58.1994 22.062 59.2501 22.282C60.3045 22.5027 60.9889 23.2162 61.0403 24.3403C61.104 25.7332 61.0556 27.1306 61.0556 28.5475C60.4849 28.5475 59.932 28.5475 59.3081 28.5475C59.3081 28.0951 59.3082 27.6374 59.3081 27.1797C59.308 26.4559 59.3247 25.7316 59.3029 25.0083C59.2804 24.2627 58.9989 23.9172 58.3897 23.8103C57.7266 23.6939 57.1355 23.965 56.8976 24.6041C56.7442 25.0161 56.7438 25.4794 56.6749 25.9672Z" fill="#F9F9F9"/>
<path d="M56.6749 25.9672C56.6749 26.848 56.6749 27.6813 56.6749 28.5416C56.0743 28.5416 55.51 28.5416 54.9258 28.5416C54.9258 26.5064 54.9258 24.4883 54.9258 22.4438C55.4674 22.4438 55.9843 22.4438 56.5419 22.4438C56.5613 22.6744 56.5804 22.9015 56.6055 23.2006C57.3254 22.3487 58.1994 22.062 59.2501 22.282C60.3045 22.5027 60.9889 23.2162 61.0403 24.3403C61.104 25.7332 61.0556 27.1306 61.0556 28.5475C60.4849 28.5475 59.932 28.5475 59.3081 28.5475C59.3081 28.0951 59.3082 27.6374 59.3081 27.1797C59.308 26.4559 59.3247 25.7316 59.3029 25.0083C59.2804 24.2627 58.9989 23.9172 58.3897 23.8103C57.7266 23.6939 57.1355 23.965 56.8976 24.6041C56.7442 25.0161 56.7438 25.4794 56.6749 25.9672Z" fill="#F9F9F9"/>
<path d="M68.7848 6.01083C68.7848 6.5026 68.7848 6.94914 68.7848 7.42603C69.3044 7.42603 69.7896 7.42603 70.3142 7.42603C70.3142 7.91064 70.3142 8.36526 70.3142 8.86403C69.833 8.86403 69.3355 8.86403 68.7921 8.86403C68.7921 9.78406 68.7608 10.663 68.8028 11.5388C68.8321 12.1497 69.2755 12.3153 70.1307 12.0826C70.2178 12.3181 70.3101 12.5543 70.3923 12.7936C70.4699 13.0199 70.5368 13.2496 70.6075 13.4747C68.9231 14.4411 67.0511 13.4852 66.9967 11.6294C66.9704 10.7317 66.9922 9.83266 66.9922 8.8918C66.6252 8.8918 66.2773 8.8918 65.9023 8.8918C65.9023 8.3935 65.9023 7.93769 65.9023 7.45028C66.2611 7.45028 66.5937 7.45028 66.9756 7.45028C66.9756 6.81939 66.9756 6.2184 66.9756 5.59082C67.5933 5.59082 68.162 5.59082 68.7622 5.59082C68.77 5.72012 68.7774 5.84286 68.7848 6.01083Z" fill="#F9F9F9"/>
<path d="M68.7848 6.01083C68.7848 6.5026 68.7848 6.94914 68.7848 7.42603C69.3044 7.42603 69.7896 7.42603 70.3142 7.42603C70.3142 7.91064 70.3142 8.36526 70.3142 8.86403C69.833 8.86403 69.3355 8.86403 68.7921 8.86403C68.7921 9.78406 68.7608 10.663 68.8028 11.5388C68.8321 12.1497 69.2755 12.3153 70.1307 12.0826C70.2178 12.3181 70.3101 12.5543 70.3923 12.7936C70.4699 13.0199 70.5368 13.2496 70.6075 13.4747C68.9231 14.4411 67.0511 13.4852 66.9967 11.6294C66.9704 10.7317 66.9922 9.83266 66.9922 8.8918C66.6252 8.8918 66.2773 8.8918 65.9023 8.8918C65.9023 8.3935 65.9023 7.93769 65.9023 7.45028C66.2611 7.45028 66.5937 7.45028 66.9756 7.45028C66.9756 6.81939 66.9756 6.2184 66.9756 5.59082C67.5933 5.59082 68.162 5.59082 68.7622 5.59082C68.77 5.72012 68.7774 5.84286 68.7848 6.01083Z" fill="#F9F9F9"/>
<path d="M43.4083 7.44013C43.6578 7.44012 43.8591 7.44012 44.1096 7.44012C44.1096 6.82094 44.1096 6.21986 44.1096 5.59155C44.7254 5.59155 45.2921 5.59155 45.8895 5.59155C45.8895 6.20034 45.8895 6.78987 45.8895 7.41931C46.4189 7.41931 46.9194 7.41931 47.4552 7.41931C47.4552 7.91482 47.4552 8.37098 47.4552 8.86637C46.9634 8.86637 46.4641 8.86637 45.9313 8.86637C45.9313 9.81123 45.8929 10.7206 45.9457 11.6253C45.9773 12.1659 46.4363 12.3049 47.2603 12.0786C47.4195 12.5415 47.5793 13.006 47.7551 13.5171C46.8764 13.8572 46.0132 13.9715 45.1656 13.5367C44.3824 13.135 44.1348 12.4294 44.1296 11.6292C44.1237 10.731 44.1282 9.83271 44.1282 8.89985C43.76 8.89985 43.4107 8.89985 42.993 8.89985C42.993 8.45614 42.9749 8.04429 43.0095 7.63648C43.0158 7.56256 43.2378 7.50516 43.4083 7.44013Z" fill="#F9F9F9"/>
<path d="M43.4083 7.44013C43.6578 7.44012 43.8591 7.44012 44.1096 7.44012C44.1096 6.82094 44.1096 6.21986 44.1096 5.59155C44.7254 5.59155 45.2921 5.59155 45.8895 5.59155C45.8895 6.20034 45.8895 6.78987 45.8895 7.41931C46.4189 7.41931 46.9194 7.41931 47.4552 7.41931C47.4552 7.91482 47.4552 8.37098 47.4552 8.86637C46.9634 8.86637 46.4641 8.86637 45.9313 8.86637C45.9313 9.81123 45.8929 10.7206 45.9457 11.6253C45.9773 12.1659 46.4363 12.3049 47.2603 12.0786C47.4195 12.5415 47.5793 13.006 47.7551 13.5171C46.8764 13.8572 46.0132 13.9715 45.1656 13.5367C44.3824 13.135 44.1348 12.4294 44.1296 11.6292C44.1237 10.731 44.1282 9.83271 44.1282 8.89985C43.76 8.89985 43.4107 8.89985 42.993 8.89985C42.993 8.45614 42.9749 8.04429 43.0095 7.63648C43.0158 7.56256 43.2378 7.50516 43.4083 7.44013Z" fill="#F9F9F9"/>
<path d="M64.8247 8.58981C64.8247 10.273 64.8247 11.9079 64.8247 13.5715C64.2253 13.5715 63.66 13.5715 63.0625 13.5715C63.0625 10.6068 63.0625 7.64562 63.0625 4.65796C63.6345 4.65796 64.2006 4.65796 64.8247 4.65796C64.8247 5.95277 64.8247 7.24717 64.8247 8.58981Z" fill="#F7F7F7"/>
<path d="M64.8247 8.58981C64.8247 10.273 64.8247 11.9079 64.8247 13.5715C64.2253 13.5715 63.66 13.5715 63.0625 13.5715C63.0625 10.6068 63.0625 7.64562 63.0625 4.65796C63.6345 4.65796 64.2006 4.65796 64.8247 4.65796C64.8247 5.95277 64.8247 7.24717 64.8247 8.58981Z" fill="#F7F7F7"/>
<path d="M52.3391 8.75324C52.788 8.93908 53.0287 9.24183 53.167 9.68651C52.1455 9.68651 51.163 9.68651 50.1836 9.68651C50.3551 8.82551 51.1976 8.44237 52.3391 8.75324Z" fill="#101010"/>
<path d="M64 24.5152C64.3829 23.792 64.9853 23.537 65.7737 23.6329C66.3731 23.7058 66.7744 24.0576 66.9595 24.7064C65.9909 24.7064 65.0357 24.7079 64.0807 24.6998C64.0494 24.6996 64.019 24.6024 64 24.5152Z" fill="#030303"/>
<path d="M57.7321 12.2603C57.2292 11.6968 57.383 11.0426 58.0954 10.925C58.6325 10.8363 59.2147 10.9672 59.7706 11.0422C59.8417 11.0518 59.9483 11.3318 59.9143 11.4559C59.6762 12.3261 58.671 12.7028 57.7321 12.2603Z" fill="#050505"/>
<path d="M51.3707 27.0089C50.6638 27.3497 50.0145 27.3084 49.4534 26.8311C48.8516 26.3191 48.7426 25.6526 48.9558 24.9349C49.149 24.284 49.6103 23.9033 50.3138 23.7991C50.9816 23.7002 51.64 24.0185 51.9718 24.589C52.3422 25.2258 52.2609 26.154 51.7803 26.6697C51.6693 26.7888 51.5311 26.8851 51.3707 27.0089Z" fill="#030303"/>
</g>
<defs>
<clipPath id="clip0_337_8998">
<rect width="88" height="36" fill="white"/>
</clipPath>
</defs>
</svg>
