<svg width="273" height="98" viewBox="0 0 273 98" fill="none" xmlns="http://www.w3.org/2000/svg">
<path d="M3.04767 56.1397L0.557933 55.9134L3.04767 56.1397ZM270.193 59.1216L272.693 59.1216V59.1216H270.193ZM87.2608 4.12926C85.9415 4.53645 85.202 5.93605 85.6092 7.25535C86.0164 8.57465 87.416 9.31407 88.7353 8.90688L87.2608 4.12926ZM187.998 27.5181L188.75 25.1337C160.87 16.3457 115.116 13.9893 75.9596 18.5656C56.3667 20.8554 38.2232 24.9024 24.6856 30.8654C11.331 36.7479 1.55768 44.9154 0.557933 55.9134L3.04767 56.1397L5.5374 56.366C6.27032 48.3033 13.6246 41.2011 26.7012 35.4412C39.5948 29.7618 57.186 25.7937 76.54 23.5318C115.278 19.0044 160.266 21.3979 187.246 29.9024L187.998 27.5181ZM3.04767 56.1397L0.557933 55.9134C-0.0928557 63.0726 4.70229 68.987 11.9682 73.6975C19.3143 78.46 29.8669 82.4733 42.3932 85.7627C67.493 92.3539 101.225 96.2167 134.997 96.9972C168.766 97.7776 202.774 95.4811 228.418 89.6553C241.22 86.747 252.117 82.9203 259.875 78.0359C267.612 73.1641 272.693 66.9153 272.693 59.1216L270.193 59.1216L267.693 59.1216C267.693 64.427 264.295 69.3443 257.21 73.8047C250.146 78.2524 239.88 81.9241 227.31 84.7795C202.213 90.4812 168.652 92.7736 135.113 91.9985C101.577 91.2235 68.2616 87.3862 43.6631 80.9267C31.3402 77.6907 21.3809 73.841 14.6881 69.5021C7.91524 65.1112 5.14472 60.6858 5.5374 56.366L3.04767 56.1397ZM270.193 59.1216H272.693C272.693 54.2051 270.144 49.5481 266.172 45.2978C262.18 41.0274 256.527 36.92 249.758 33.0509C236.206 25.3058 217.746 18.2717 197.878 12.7458C177.992 7.21484 156.576 3.1619 137.064 1.42988C117.618 -0.2962 99.8047 0.257683 87.2608 4.12926L87.998 6.51807L88.7353 8.90688C100.342 5.32467 117.378 4.70208 136.622 6.4103C155.799 8.11257 176.913 12.1047 196.538 17.563C216.182 23.0265 234.214 29.9259 247.277 37.392C253.814 41.1285 258.999 44.9461 262.519 48.7119C266.057 52.4978 267.693 55.9881 267.693 59.1216H270.193Z" fill="#F7931A"/>
</svg>
