<svg width="64" height="44" viewBox="0 0 64 44" fill="none" xmlns="http://www.w3.org/2000/svg">
<g clip-path="url(#clip0_2952_8928)">
<path d="M62.6625 6.87074C61.9265 4.16616 59.7582 2.03642 57.0044 1.31361C52.0134 0 32 0 32 0C32 0 11.9867 0 6.9956 1.31361C4.24204 2.03642 2.07329 4.16616 1.33736 6.87074C0 11.7726 0 22 0 22C0 22 0 32.2273 1.33736 37.1296C2.07329 39.8338 4.24204 41.9636 6.9956 42.6867C11.9867 44 32 44 32 44C32 44 52.0134 44 57.0044 42.6867C59.7582 41.9636 61.9265 39.8338 62.6625 37.1296C64 32.2273 64 22 64 22C64 22 64 11.7726 62.6625 6.87074Z" fill="#ED1D24"/>
<path d="M25.4551 31.2861L42.1824 22.0009L25.4551 12.7148V31.2861Z" fill="white"/>
</g>
<defs>
<clipPath id="clip0_2952_8928">
<rect width="64" height="44" fill="white"/>
</clipPath>
</defs>
</svg>
